<?xml version="1.0" encoding="UTF-8" standalone="no"?>
<!-- Created with Inkscape (http://www.inkscape.org/) -->

<svg
   version="1.1"
   id="svg2"
   xml:space="preserve"
   width="755.97455"
   height="516.64948"
   viewBox="0 0 755.97455 516.64948"
   sodipodi:docname="sh_contact2.pdf"
   xmlns:inkscape="http://www.inkscape.org/namespaces/inkscape"
   xmlns:sodipodi="http://sodipodi.sourceforge.net/DTD/sodipodi-0.dtd"
   xmlns="http://www.w3.org/2000/svg"
   xmlns:svg="http://www.w3.org/2000/svg"><defs
     id="defs6"><clipPath
       clipPathUnits="userSpaceOnUse"
       id="clipPath122"><path
         d="M 0,0 H 567 V 388 H 0 Z"
         id="path120" /></clipPath><clipPath
       clipPathUnits="userSpaceOnUse"
       id="clipPath156"><path
         d="M 0,0 H 567 V 388 H 0 Z"
         id="path154" /></clipPath></defs><sodipodi:namedview
     id="namedview4"
     pagecolor="#ffffff"
     bordercolor="#666666"
     borderopacity="1.0"
     inkscape:pageshadow="2"
     inkscape:pageopacity="0.0"
     inkscape:pagecheckerboard="0" /><g
     id="g8"
     inkscape:groupmode="layer"
     inkscape:label="sh_contact2"
     transform="matrix(1.3333333,0,0,1.3333333,0,8.2495698e-6)"><g
       id="g10"><g
         id="g12"
         transform="rotate(90)"><path
           d="m 348.48,-390.137 c 0,94.571 -76.664,171.235 -171.234,171.235 -94.57,0 -171.234,-76.664 -171.234,-171.235 0,-94.57 76.664,-171.234 171.234,-171.234 94.57,0 171.234,76.664 171.234,171.234 z"
           style="fill:none;stroke:#b6b6b6;stroke-width:2.26772;stroke-linecap:butt;stroke-linejoin:round;stroke-miterlimit:4;stroke-dasharray:none;stroke-opacity:1"
           id="path14" /></g><g
         id="g16"><path
           d="M 339.488,176.68 H 173.094 L 279.789,49.027"
           style="fill:none;stroke:#000000;stroke-width:1.81417;stroke-linecap:butt;stroke-linejoin:miter;stroke-miterlimit:4;stroke-dasharray:5.44252, 5.44252;stroke-dashoffset:0;stroke-opacity:1"
           id="path18" /></g><g
         id="g20"><path
           d="M 277.473,48.297 V 306.012"
           style="fill:none;stroke:#b6b6b6;stroke-width:1.81417;stroke-linecap:butt;stroke-linejoin:miter;stroke-miterlimit:4;stroke-dasharray:5.44252, 5.44252;stroke-dashoffset:0;stroke-opacity:1"
           id="path22" /></g><g
         id="g24"
         transform="rotate(90)"><path
           d="m 343.773,-171.879 c 0,91.969 -74.558,166.524 -166.527,166.524 -91.969,0 -166.527,-74.555 -166.527,-166.524 0,-91.969 74.558,-166.527 166.527,-166.527 91.969,0 166.527,74.558 166.527,166.527 z"
           style="fill:none;stroke:#b6b6b6;stroke-width:2.26772;stroke-linecap:butt;stroke-linejoin:round;stroke-miterlimit:4;stroke-dasharray:none;stroke-opacity:1"
           id="path26" /></g><path
         d="m 171.879,180.117 c -1.586,0 -2.871,-1.285 -2.871,-2.871 0,-1.586 1.285,-2.871 2.871,-2.871 1.586,0 2.871,1.285 2.871,2.871 0,1.586 -1.285,2.871 -2.871,2.871 z"
         style="fill:#000000;fill-opacity:1;fill-rule:nonzero;stroke:none"
         id="path28" /><path
         d="m 390.227,181.703 c -2.536,0 -4.594,-2.055 -4.594,-4.59 0,-2.539 2.058,-4.593 4.594,-4.593 2.539,0 4.593,2.054 4.593,4.593 0,2.535 -2.054,4.59 -4.593,4.59 z"
         style="fill:#000000;fill-opacity:1;fill-rule:nonzero;stroke:none"
         id="path30" /><path
         d="m 338.277,181.84 c -2.539,0 -4.593,-2.059 -4.593,-4.594 0,-2.535 2.054,-4.594 4.593,-4.594 2.535,0 4.59,2.059 4.59,4.594 0,2.535 -2.055,4.594 -4.59,4.594 z"
         style="fill:#0073c0;fill-opacity:1;fill-rule:nonzero;stroke:none"
         id="path32" /><path
         d="m 337.875,195.09 c -2.535,0 -4.59,-2.059 -4.59,-4.594 0,-2.539 2.055,-4.594 4.59,-4.594 2.539,0 4.594,2.055 4.594,4.594 0,2.535 -2.055,4.594 -4.594,4.594 z"
         style="fill:#0073c0;fill-opacity:1;fill-rule:nonzero;stroke:none"
         id="path34" /><path
         d="m 335.543,208.133 c -2.5,-0.438 -4.168,-2.821 -3.731,-5.317 0.438,-2.5 2.821,-4.171 5.317,-3.73 2.5,0.437 4.172,2.816 3.73,5.316 -0.437,2.5 -2.816,4.168 -5.316,3.731 z"
         style="fill:#0073c0;fill-opacity:1;fill-rule:nonzero;stroke:none"
         id="path36" /><path
         d="m 338.277,181.84 c -2.539,0 -4.593,-2.059 -4.593,-4.594 0,-2.535 2.054,-4.594 4.593,-4.594 2.535,0 4.59,2.059 4.59,4.594 0,2.535 -2.055,4.594 -4.59,4.594 z"
         style="fill:#0073c0;fill-opacity:1;fill-rule:nonzero;stroke:none"
         id="path38" /><path
         d="m 337.875,195.09 c -2.535,0 -4.59,-2.059 -4.59,-4.594 0,-2.539 2.055,-4.594 4.59,-4.594 2.539,0 4.594,2.055 4.594,4.594 0,2.535 -2.055,4.594 -4.594,4.594 z"
         style="fill:#0073c0;fill-opacity:1;fill-rule:nonzero;stroke:none"
         id="path40" /><path
         d="m 335.543,208.133 c -2.5,-0.438 -4.168,-2.821 -3.731,-5.317 0.438,-2.5 2.821,-4.171 5.317,-3.73 2.5,0.437 4.172,2.816 3.73,5.316 -0.437,2.5 -2.816,4.168 -5.316,3.731 z"
         style="fill:#0073c0;fill-opacity:1;fill-rule:nonzero;stroke:none"
         id="path42" /><path
         d="m 333.066,221.152 c -2.504,-0.41 -4.203,-2.769 -3.793,-5.273 0.411,-2.504 2.77,-4.203 5.274,-3.793 2.504,0.41 4.203,2.769 3.793,5.273 -0.41,2.504 -2.77,4.203 -5.274,3.793 z"
         style="fill:#0073c0;fill-opacity:1;fill-rule:nonzero;stroke:none"
         id="path44" /><path
         d="m 328.656,233.652 c -2.394,-0.836 -3.66,-3.457 -2.824,-5.851 0.836,-2.395 3.457,-3.66 5.852,-2.824 2.394,0.835 3.66,3.457 2.824,5.851 -0.836,2.395 -3.457,3.66 -5.852,2.824 z"
         style="fill:#0073c0;fill-opacity:1;fill-rule:nonzero;stroke:none"
         id="path46" /><path
         d="m 324.012,246.066 c -2.399,-0.824 -3.68,-3.433 -2.856,-5.836 0.821,-2.398 3.434,-3.679 5.832,-2.855 2.403,0.82 3.68,3.434 2.86,5.832 -0.821,2.402 -3.434,3.68 -5.836,2.859 z"
         style="fill:#0073c0;fill-opacity:1;fill-rule:nonzero;stroke:none"
         id="path48" /><path
         d="m 317.578,257.652 c -2.223,-1.226 -3.031,-4.019 -1.805,-6.242 1.223,-2.219 4.016,-3.027 6.239,-1.805 2.222,1.223 3.031,4.016 1.808,6.239 -1.226,2.222 -4.019,3.031 -6.242,1.808 z"
         style="fill:#0073c0;fill-opacity:1;fill-rule:nonzero;stroke:none"
         id="path50" /><path
         d="m 311.02,269.168 c -2.239,-1.199 -3.079,-3.984 -1.879,-6.219 1.195,-2.238 3.98,-3.078 6.214,-1.879 2.239,1.196 3.079,3.981 1.883,6.219 -1.199,2.234 -3.984,3.078 -6.218,1.879 z"
         style="fill:#0073c0;fill-opacity:1;fill-rule:nonzero;stroke:none"
         id="path52" /><path
         d="m 302.801,279.562 c -1.996,-1.566 -2.344,-4.453 -0.778,-6.449 1.567,-1.996 4.454,-2.343 6.45,-0.777 1.996,1.566 2.343,4.457 0.777,6.449 -1.566,1.996 -4.457,2.344 -6.449,0.777 z"
         style="fill:#0073c0;fill-opacity:1;fill-rule:nonzero;stroke:none"
         id="path54" /><path
         d="m 302.898,279.637 c -2.039,-1.512 -2.464,-4.387 -0.949,-6.426 1.512,-2.035 4.387,-2.461 6.426,-0.949 2.035,1.511 2.461,4.39 0.949,6.426 -1.512,2.039 -4.39,2.464 -6.426,0.949 z"
         style="fill:#0073c0;fill-opacity:1;fill-rule:nonzero;stroke:none"
         id="path56" /><path
         d="m 294.68,290.039 c -2.035,-1.512 -2.461,-4.391 -0.95,-6.426 1.512,-2.039 4.391,-2.465 6.426,-0.953 2.035,1.516 2.461,4.391 0.949,6.43 -1.511,2.035 -4.39,2.461 -6.425,0.949 z"
         style="fill:#0073c0;fill-opacity:1;fill-rule:nonzero;stroke:none"
         id="path58" /><path
         d="m 285.027,299.121 c -1.742,-1.844 -1.664,-4.75 0.176,-6.496 1.844,-1.742 4.75,-1.664 6.496,0.176 1.742,1.844 1.664,4.75 -0.176,6.496 -1.843,1.742 -4.75,1.664 -6.496,-0.176 z"
         style="fill:#0073c0;fill-opacity:1;fill-rule:nonzero;stroke:none"
         id="path60" /><path
         d="m 275.277,308.098 c -1.765,-1.825 -1.722,-4.731 0.102,-6.496 1.82,-1.766 4.726,-1.723 6.492,0.097 1.766,1.821 1.723,4.731 -0.098,6.496 -1.82,1.766 -4.73,1.723 -6.496,-0.097 z"
         style="fill:#0073c0;fill-opacity:1;fill-rule:nonzero;stroke:none"
         id="path62" /><path
         d="m 337.875,159.402 c -2.535,0 -4.59,2.059 -4.59,4.594 0,2.539 2.055,4.594 4.59,4.594 2.539,0 4.594,-2.055 4.594,-4.594 0,-2.535 -2.055,-4.594 -4.594,-4.594 z"
         style="fill:#0073c0;fill-opacity:1;fill-rule:nonzero;stroke:none"
         id="path64" /><path
         d="m 335.543,146.359 c -2.5,0.438 -4.168,2.821 -3.731,5.317 0.438,2.5 2.821,4.172 5.317,3.73 2.5,-0.437 4.172,-2.82 3.73,-5.316 -0.437,-2.5 -2.816,-4.168 -5.316,-3.731 z"
         style="fill:#0073c0;fill-opacity:1;fill-rule:nonzero;stroke:none"
         id="path66" /><path
         d="m 333.066,133.34 c -2.504,0.41 -4.203,2.769 -3.793,5.273 0.411,2.504 2.77,4.203 5.274,3.793 2.504,-0.41 4.203,-2.769 3.793,-5.273 -0.41,-2.504 -2.77,-4.203 -5.274,-3.793 z"
         style="fill:#0073c0;fill-opacity:1;fill-rule:nonzero;stroke:none"
         id="path68" /><path
         d="m 328.656,120.84 c -2.394,0.836 -3.66,3.457 -2.824,5.851 0.836,2.395 3.457,3.661 5.852,2.825 2.394,-0.836 3.66,-3.457 2.824,-5.852 -0.836,-2.394 -3.457,-3.66 -5.852,-2.824 z"
         style="fill:#0073c0;fill-opacity:1;fill-rule:nonzero;stroke:none"
         id="path70" /><path
         d="m 324.012,108.426 c -2.399,0.824 -3.68,3.433 -2.856,5.836 0.821,2.398 3.434,3.679 5.832,2.855 2.403,-0.82 3.68,-3.433 2.86,-5.832 -0.821,-2.402 -3.434,-3.68 -5.836,-2.859 z"
         style="fill:#0073c0;fill-opacity:1;fill-rule:nonzero;stroke:none"
         id="path72" /><path
         d="m 317.578,96.84 c -2.223,1.226 -3.031,4.019 -1.805,6.242 1.223,2.219 4.016,3.027 6.239,1.805 2.222,-1.223 3.031,-4.016 1.808,-6.239 -1.226,-2.222 -4.019,-3.031 -6.242,-1.808 z"
         style="fill:#0073c0;fill-opacity:1;fill-rule:nonzero;stroke:none"
         id="path74" /><path
         d="m 311.02,85.324 c -2.239,1.199 -3.079,3.985 -1.879,6.219 1.195,2.238 3.98,3.078 6.214,1.879 2.239,-1.195 3.079,-3.981 1.883,-6.219 -1.199,-2.234 -3.984,-3.074 -6.218,-1.879 z"
         style="fill:#0073c0;fill-opacity:1;fill-rule:nonzero;stroke:none"
         id="path76" /><path
         d="m 302.898,74.855 c -2.039,1.512 -2.46,4.387 -0.949,6.426 1.512,2.035 4.387,2.461 6.426,0.949 2.035,-1.511 2.461,-4.39 0.949,-6.425 -1.512,-2.039 -4.39,-2.465 -6.426,-0.95 z"
         style="fill:#0073c0;fill-opacity:1;fill-rule:nonzero;stroke:none"
         id="path78" /><path
         d="m 294.68,64.453 c -2.035,1.516 -2.461,4.391 -0.95,6.43 1.512,2.035 4.391,2.461 6.426,0.949 2.035,-1.516 2.461,-4.391 0.949,-6.43 -1.511,-2.035 -4.39,-2.461 -6.425,-0.949 z"
         style="fill:#0073c0;fill-opacity:1;fill-rule:nonzero;stroke:none"
         id="path80" /><path
         d="m 285.027,55.371 c -1.742,1.844 -1.664,4.75 0.176,6.496 1.844,1.742 4.75,1.664 6.496,-0.176 1.742,-1.843 1.664,-4.75 -0.176,-6.496 -1.843,-1.742 -4.75,-1.664 -6.496,0.176 z"
         style="fill:#0073c0;fill-opacity:1;fill-rule:nonzero;stroke:none"
         id="path82" /><path
         d="m 275.277,46.395 c -1.765,1.824 -1.722,4.73 0.102,6.496 1.82,1.765 4.726,1.722 6.492,-0.098 1.766,-1.82 1.723,-4.731 -0.098,-6.496 -1.82,-1.766 -4.73,-1.723 -6.496,0.098 z"
         style="fill:#0073c0;fill-opacity:1;fill-rule:nonzero;stroke:none"
         id="path84" /><g
         id="g86"><path
           d="m 211.91,130.238 c 18.922,10.735 26.5,28.914 19.856,46.442"
           style="fill:none;stroke:#000000;stroke-width:1.13386;stroke-linecap:butt;stroke-linejoin:miter;stroke-miterlimit:4;stroke-dasharray:3.40158, 3.40158;stroke-dashoffset:0;stroke-opacity:1"
           id="path88" /></g><g
         id="g90"><path
           d="m 254.117,177.645 c 10.711,17.863 5.571,35.39 -13.16,42.589"
           style="fill:none;stroke:#0072c0;stroke-width:1.13386;stroke-linecap:butt;stroke-linejoin:miter;stroke-miterlimit:4;stroke-dasharray:none;stroke-opacity:1"
           id="path92" /></g><path
         d="m 338.277,181.84 c -2.539,0 -4.593,-2.059 -4.593,-4.594 0,-2.535 2.054,-4.594 4.593,-4.594 2.535,0 4.59,2.059 4.59,4.594 0,2.535 -2.055,4.594 -4.59,4.594 z"
         style="fill:#0073c0;fill-opacity:1;fill-rule:nonzero;stroke:none"
         id="path94" /><path
         d="m 337.875,195.09 c -2.535,0 -4.59,-2.059 -4.59,-4.594 0,-2.539 2.055,-4.594 4.59,-4.594 2.539,0 4.594,2.055 4.594,4.594 0,2.535 -2.055,4.594 -4.594,4.594 z"
         style="fill:#0073c0;fill-opacity:1;fill-rule:nonzero;stroke:none"
         id="path96" /><path
         d="m 335.543,208.133 c -2.5,-0.438 -4.168,-2.821 -3.731,-5.317 0.438,-2.5 2.821,-4.171 5.317,-3.73 2.5,0.437 4.172,2.816 3.73,5.316 -0.437,2.5 -2.816,4.168 -5.316,3.731 z"
         style="fill:#0073c0;fill-opacity:1;fill-rule:nonzero;stroke:none"
         id="path98" /><path
         d="m 302.801,279.562 c -1.996,-1.566 -2.344,-4.453 -0.778,-6.449 1.567,-1.996 4.454,-2.343 6.45,-0.777 1.996,1.566 2.343,4.457 0.777,6.449 -1.566,1.996 -4.457,2.344 -6.449,0.777 z"
         style="fill:#0073c0;fill-opacity:1;fill-rule:nonzero;stroke:none"
         id="path100" /><path
         d="m 164.316,188.125 c -1.312,0.398 -1.941,1.598 -1.941,2.512 0,0.801 0.57,1.711 1.77,1.711 1.312,0 2.628,-1.082 2.628,-2.852 0,-1.941 -1.886,-3.199 -4.113,-3.199 -2.109,0 -3.426,1.543 -3.937,2.226 -0.914,-1.539 -2.911,-2.226 -5.024,-2.226 -4.566,0 -7.023,4.453 -7.023,5.652 0,0.516 0.515,0.516 0.855,0.516 0.457,0 0.688,0 0.86,-0.457 1.027,-3.313 3.652,-4.399 5.136,-4.399 1.371,0 2.055,0.629 2.055,1.77 0,0.742 -0.512,2.742 -0.855,4.055 l -1.258,4.968 c -0.512,2.223 -1.824,3.309 -3.082,3.309 -0.172,0 -1.028,0 -1.711,-0.512 1.312,-0.402 1.941,-1.656 1.941,-2.511 0,-0.801 -0.629,-1.715 -1.828,-1.715 -1.258,0 -2.625,1.086 -2.625,2.855 0,1.942 1.941,3.195 4.168,3.195 2.055,0 3.422,-1.539 3.879,-2.226 0.914,1.543 2.969,2.226 5.023,2.226 4.625,0 7.082,-4.453 7.082,-5.652 0,-0.512 -0.57,-0.512 -0.859,-0.512 -0.453,0 -0.684,0 -0.855,0.457 -1.028,3.309 -3.653,4.395 -5.196,4.395 -1.367,0 -1.996,-0.629 -1.996,-1.828 0,-0.742 0.457,-2.68 0.797,-4.051 0.231,-0.914 1.086,-4.34 1.258,-4.91 0.57,-2.227 1.828,-3.313 3.082,-3.313 0.23,0 1.027,0 1.769,0.516 z"
         style="fill:#000000;fill-opacity:1;fill-rule:nonzero;stroke:none"
         id="path102" /><path
         d="m 179.516,198.492 c -0.516,-0.855 -1.371,-1.539 -2.625,-1.539 -3.254,0 -6.567,3.594 -6.567,7.25 0,2.512 1.656,4.223 3.883,4.223 1.367,0 2.566,-0.742 3.594,-1.77 0.457,1.543 1.941,1.77 2.629,1.77 0.914,0 1.539,-0.512 1.996,-1.313 0.57,-1.027 0.914,-2.453 0.914,-2.57 0,-0.34 -0.344,-0.34 -0.399,-0.34 -0.402,0 -0.402,0.113 -0.57,0.797 -0.344,1.258 -0.801,2.742 -1.887,2.742 -0.625,0 -0.855,-0.57 -0.855,-1.258 0,-0.398 0.23,-1.371 0.398,-1.996 0.172,-0.687 0.457,-1.715 0.575,-2.285 l 0.511,-1.941 c 0.172,-0.684 0.457,-1.883 0.457,-1.996 0,-0.571 -0.457,-0.801 -0.855,-0.801 -0.457,0 -1.027,0.285 -1.199,1.027 z M 177.918,205 c -0.172,0.742 -0.742,1.258 -1.313,1.715 -0.23,0.226 -1.257,1.027 -2.343,1.027 -0.969,0 -1.883,-0.687 -1.883,-2.457 0,-1.367 0.742,-4.168 1.371,-5.195 1.141,-2.055 2.453,-2.395 3.141,-2.395 1.769,0 2.281,1.938 2.281,2.223 0,0.059 -0.055,0.289 -0.055,0.344 z"
         style="fill:#000000;fill-opacity:1;fill-rule:nonzero;stroke:none"
         id="path104" /><path
         d="m 420.82,158.457 c -1.312,0.402 -1.941,1.602 -1.941,2.512 0,0.801 0.57,1.715 1.769,1.715 1.313,0 2.629,-1.086 2.629,-2.856 0,-1.941 -1.886,-3.195 -4.113,-3.195 -2.109,0 -3.426,1.539 -3.937,2.226 -0.915,-1.543 -2.911,-2.226 -5.024,-2.226 -4.566,0 -7.023,4.453 -7.023,5.652 0,0.512 0.515,0.512 0.855,0.512 0.457,0 0.688,0 0.86,-0.457 1.027,-3.309 3.652,-4.395 5.136,-4.395 1.371,0 2.055,0.629 2.055,1.77 0,0.742 -0.512,2.738 -0.856,4.055 l -1.257,4.964 c -0.512,2.227 -1.825,3.313 -3.082,3.313 -0.172,0 -1.028,0 -1.711,-0.516 1.312,-0.398 1.941,-1.656 1.941,-2.511 0,-0.801 -0.629,-1.711 -1.828,-1.711 -1.258,0 -2.625,1.082 -2.625,2.851 0,1.942 1.941,3.199 4.168,3.199 2.055,0 3.422,-1.543 3.879,-2.226 0.914,1.539 2.969,2.226 5.023,2.226 4.625,0 7.082,-4.453 7.082,-5.652 0,-0.516 -0.57,-0.516 -0.859,-0.516 -0.453,0 -0.684,0 -0.856,0.457 -1.027,3.313 -3.652,4.399 -5.195,4.399 -1.367,0 -1.996,-0.629 -1.996,-1.828 0,-0.742 0.457,-2.684 0.797,-4.055 0.23,-0.914 1.086,-4.336 1.258,-4.91 0.57,-2.223 1.828,-3.309 3.082,-3.309 0.23,0 1.027,0 1.769,0.512 z"
         style="fill:#000000;fill-opacity:1;fill-rule:nonzero;stroke:none"
         id="path106" /><path
         d="m 432.023,161.633 c 0,-0.055 0.114,-0.399 0.114,-0.399 0,-0.172 -0.114,-0.398 -0.457,-0.398 -0.512,0 -2.625,0.226 -3.254,0.285 -0.172,0 -0.571,0.055 -0.571,0.57 0,0.34 0.399,0.34 0.684,0.34 1.199,0 1.199,0.231 1.199,0.403 0,0.171 -0.226,1.199 -0.398,1.769 l -0.57,2.34 c -0.231,0.914 -1.598,6.449 -1.657,6.793 -0.172,0.629 -0.172,0.973 -0.172,1.258 0,2.566 1.657,4.168 3.77,4.168 3.195,0 6.562,-3.426 6.562,-7.196 0,-2.968 -2.054,-4.281 -3.824,-4.281 -1.312,0 -2.453,0.742 -3.195,1.426 z m -1.312,16.441 c -1.199,0 -1.941,-1.086 -1.941,-2.625 0,-0.914 0.226,-1.769 0.968,-4.679 0.117,-0.458 0.117,-0.516 0.629,-1.086 0.973,-1.086 2.113,-1.657 3.028,-1.657 0.968,0 1.824,0.743 1.824,2.453 0,1.028 -0.512,3.657 -1.313,5.141 -0.629,1.254 -1.883,2.453 -3.195,2.453 z"
         style="fill:#000000;fill-opacity:1;fill-rule:nonzero;stroke:none"
         id="path108" /><g
         id="g110"><path
           d="M 172.117,178.129 311.391,264.23"
           style="fill:none;stroke:#0073c0;stroke-width:1.81417;stroke-linecap:butt;stroke-linejoin:miter;stroke-miterlimit:4;stroke-dasharray:none;stroke-opacity:1"
           id="path112" /></g><path
         d="m 171.879,181.84 c -2.535,0 -4.594,-2.059 -4.594,-4.594 0,-2.535 2.059,-4.594 4.594,-4.594 2.539,0 4.594,2.059 4.594,4.594 0,2.535 -2.055,4.594 -4.594,4.594 z"
         style="fill:#000000;fill-opacity:1;fill-rule:nonzero;stroke:none"
         id="path114" /><g
         id="g116"><g
           id="g118" /><g
           id="g130"><g
             clip-path="url(#clipPath122)"
             opacity="0.8"
             id="g128"><g
               id="g126"><path
                 d="M 96.516,351.977 H 243.25 v 28.445 H 96.516 Z"
                 style="fill:#ffffff;fill-opacity:1;fill-rule:nonzero;stroke:none"
                 id="path124" /></g></g></g></g><path
         d="m 105.031,367.059 h 5.797 c 4.078,0 7.785,-2.739 7.785,-6.172 0,-3.383 -3.383,-6.387 -8.054,-6.387 H 98.43 v 1.07 h 0.855 c 2.633,0 2.688,0.379 2.688,1.614 v 18.035 c 0,1.234 -0.055,1.609 -2.688,1.609 H 98.43 v 1.074 c 1.234,-0.105 3.758,-0.105 5.043,-0.105 1.289,0 3.867,0 5.101,0.105 v -1.074 h -0.859 c -2.629,0 -2.684,-0.375 -2.684,-1.609 z m -0.109,-0.86 v -9.23 c 0,-1.184 0.055,-1.399 1.664,-1.399 h 3.062 c 5.422,0 5.422,3.653 5.422,5.317 0,1.609 0,5.312 -5.422,5.312 z"
         style="fill:#000000;fill-opacity:1;fill-rule:nonzero;stroke:none"
         id="path132" /><path
         d="m 130.965,375.324 c 0.16,1.344 1.07,2.793 2.683,2.793 0.75,0 2.844,-0.484 2.844,-3.273 v -1.934 h -0.859 v 1.934 c 0,1.984 -0.86,2.199 -1.235,2.199 -1.125,0 -1.289,-1.555 -1.289,-1.719 v -6.816 c 0,-1.449 0,-2.789 -1.234,-4.078 -1.34,-1.344 -3.059,-1.879 -4.668,-1.879 -2.848,0 -5.207,1.609 -5.207,3.863 0,1.02 0.695,1.613 1.609,1.613 0.965,0 1.555,-0.699 1.555,-1.558 0,-0.43 -0.16,-1.555 -1.769,-1.555 0.964,-1.238 2.628,-1.613 3.703,-1.613 1.718,0 3.652,1.344 3.652,4.402 v 1.235 c -1.773,0.109 -4.133,0.214 -6.281,1.234 -2.578,1.183 -3.438,2.953 -3.438,4.457 0,2.789 3.328,3.648 5.477,3.648 2.254,0 3.812,-1.394 4.457,-2.953 z m -0.215,-5.633 v 3.434 c 0,3.223 -2.469,4.402 -4.027,4.402 -1.664,0 -3.059,-1.179 -3.059,-2.898 0,-1.879 1.449,-4.723 7.086,-4.938 z"
         style="fill:#000000;fill-opacity:1;fill-rule:nonzero;stroke:none"
         id="path134" /><path
         d="m 142.441,366.523 v -3.757 l -4.777,0.375 v 1.074 c 2.414,0 2.684,0.215 2.684,1.933 v 9.176 c 0,1.504 -0.375,1.504 -2.684,1.504 v 1.074 c 1.34,-0.054 2.949,-0.105 3.918,-0.105 1.34,0 2.953,0 4.348,0.105 v -1.074 h -0.75 c -2.524,0 -2.578,-0.375 -2.578,-1.609 v -5.262 c 0,-3.379 1.449,-6.441 4.027,-6.441 0.215,0 0.32,0 0.375,0.054 -0.109,0 -0.805,0.43 -0.805,1.344 0,0.91 0.75,1.449 1.5,1.449 0.594,0 1.449,-0.429 1.449,-1.504 0,-1.074 -1.07,-2.093 -2.519,-2.093 -2.524,0 -3.758,2.308 -4.188,3.757 z"
         style="fill:#000000;fill-opacity:1;fill-rule:nonzero;stroke:none"
         id="path136" /><path
         d="m 156.008,364.215 h 4.937 v -1.074 h -4.937 v -6.282 h -0.86 c 0,2.793 -1.019,6.442 -4.402,6.602 v 0.754 h 2.899 v 9.445 c 0,4.188 3.222,4.617 4.457,4.617 2.414,0 3.382,-2.414 3.382,-4.617 v -1.93 h -0.859 v 1.879 c 0,2.524 -1.02,3.809 -2.309,3.809 -2.308,0 -2.308,-3.113 -2.308,-3.703 z"
         style="fill:#000000;fill-opacity:1;fill-rule:nonzero;stroke:none"
         id="path138" /><path
         d="m 169.48,362.766 -4.777,0.375 v 1.074 c 2.199,0 2.524,0.215 2.524,1.879 v 9.23 c 0,1.504 -0.379,1.504 -2.688,1.504 v 1.074 c 1.074,-0.054 2.953,-0.105 3.758,-0.105 1.234,0 2.418,0.051 3.598,0.105 v -1.074 c -2.309,0 -2.415,-0.16 -2.415,-1.504 z m 0.106,-5.961 c 0,-1.071 -0.805,-1.825 -1.77,-1.825 -1.074,0 -1.828,0.915 -1.828,1.825 0,0.914 0.754,1.828 1.828,1.828 0.965,0 1.77,-0.754 1.77,-1.828 z"
         style="fill:#000000;fill-opacity:1;fill-rule:nonzero;stroke:none"
         id="path140" /><path
         d="m 176.949,370.441 c 0,-5.582 2.789,-7.031 4.613,-7.031 0.325,0 2.473,0.051 3.653,1.289 -1.395,0.106 -1.61,1.125 -1.61,1.555 0,0.914 0.641,1.558 1.555,1.558 0.914,0 1.61,-0.539 1.61,-1.613 0,-2.308 -2.629,-3.648 -5.258,-3.648 -4.297,0 -7.41,3.703 -7.41,7.945 0,4.402 3.382,7.781 7.355,7.781 4.563,0 5.691,-4.132 5.691,-4.453 0,-0.324 -0.378,-0.324 -0.484,-0.324 -0.269,0 -0.375,0.109 -0.43,0.324 -0.964,3.164 -3.222,3.594 -4.457,3.594 -1.824,0 -4.828,-1.449 -4.828,-6.977 z"
         style="fill:#000000;fill-opacity:1;fill-rule:nonzero;stroke:none"
         id="path142" /><path
         d="m 194.199,354.121 -4.941,0.379 v 1.07 c 2.418,0 2.683,0.215 2.683,1.934 v 17.82 c 0,1.504 -0.375,1.504 -2.683,1.504 v 1.074 c 1.129,-0.054 2.953,-0.105 3.812,-0.105 0.86,0 2.524,0.051 3.813,0.105 v -1.074 c -2.309,0 -2.684,0 -2.684,-1.504 z"
         style="fill:#000000;fill-opacity:1;fill-rule:nonzero;stroke:none"
         id="path144" /><path
         d="m 201.449,369.262 c 0.215,-5.102 3.117,-5.961 4.297,-5.961 3.488,0 3.863,4.617 3.863,5.961 z m 0,0.75 h 9.559 c 0.75,0 0.855,0 0.855,-0.75 0,-3.383 -1.879,-6.711 -6.117,-6.711 -3.973,0 -7.141,3.543 -7.141,7.836 0,4.562 3.598,7.89 7.516,7.89 4.188,0 5.742,-3.808 5.742,-4.453 0,-0.324 -0.265,-0.429 -0.48,-0.429 -0.27,0 -0.375,0.214 -0.43,0.48 -1.183,3.543 -4.297,3.543 -4.617,3.543 -1.719,0 -3.059,-1.02 -3.863,-2.309 -1.024,-1.609 -1.024,-3.863 -1.024,-5.097 z"
         style="fill:#000000;fill-opacity:1;fill-rule:nonzero;stroke:none"
         id="path146" /><path
         d="m 237.043,364.965 c -0.645,-1.289 -1.609,-2.199 -3.168,-2.199 -3.973,0 -8.211,5.046 -8.211,10.039 0,3.218 1.879,5.472 4.508,5.472 0.699,0 2.414,-0.16 4.457,-2.574 0.266,1.449 1.5,2.574 3.113,2.574 1.235,0 1.985,-0.804 2.574,-1.879 0.539,-1.234 1.02,-3.328 1.02,-3.378 0,-0.379 -0.32,-0.379 -0.43,-0.379 -0.32,0 -0.375,0.164 -0.48,0.644 -0.59,2.203 -1.184,4.242 -2.578,4.242 -0.965,0 -1.02,-0.914 -1.02,-1.558 0,-0.75 0.055,-1.071 0.43,-2.574 0.375,-1.399 0.43,-1.774 0.75,-3.063 l 1.234,-4.777 c 0.215,-0.965 0.215,-1.02 0.215,-1.18 0,-0.59 -0.375,-0.914 -0.965,-0.914 -0.859,0 -1.344,0.754 -1.449,1.504 z m -2.199,8.859 c -0.215,0.645 -0.215,0.696 -0.699,1.285 -1.504,1.879 -2.899,2.418 -3.868,2.418 -1.715,0 -2.199,-1.879 -2.199,-3.222 0,-1.715 1.074,-5.903 1.879,-7.516 1.074,-1.984 2.578,-3.273 3.973,-3.273 2.199,0 2.683,2.793 2.683,3.007 0,0.215 -0.054,0.43 -0.105,0.59 z"
         style="fill:#000000;fill-opacity:1;fill-rule:nonzero;stroke:none"
         id="path148" /><g
         id="g150"><g
           id="g152" /><g
           id="g164"><g
             clip-path="url(#clipPath156)"
             opacity="0.8"
             id="g162"><g
               id="g160"><path
                 d="m 319.668,351.977 h 146.73 v 28.445 h -146.73 z"
                 style="fill:#ffffff;fill-opacity:1;fill-rule:nonzero;stroke:none"
                 id="path158" /></g></g></g></g><path
         d="m 329.605,367.059 h 5.797 c 4.078,0 7.786,-2.739 7.786,-6.172 0,-3.383 -3.383,-6.387 -8.055,-6.387 h -12.129 v 1.07 h 0.855 c 2.633,0 2.688,0.379 2.688,1.614 v 18.035 c 0,1.234 -0.055,1.609 -2.688,1.609 h -0.855 v 1.074 c 1.234,-0.105 3.758,-0.105 5.043,-0.105 1.289,0 3.867,0 5.101,0.105 v -1.074 h -0.859 c -2.629,0 -2.684,-0.375 -2.684,-1.609 z m -0.109,-0.86 v -9.23 c 0,-1.184 0.055,-1.399 1.664,-1.399 h 3.063 c 5.422,0 5.422,3.653 5.422,5.317 0,1.609 0,5.312 -5.422,5.312 z"
         style="fill:#000000;fill-opacity:1;fill-rule:nonzero;stroke:none"
         id="path166" /><path
         d="m 355.539,375.324 c 0.16,1.344 1.07,2.793 2.684,2.793 0.75,0 2.843,-0.484 2.843,-3.273 v -1.934 h -0.859 v 1.934 c 0,1.984 -0.859,2.199 -1.234,2.199 -1.129,0 -1.289,-1.555 -1.289,-1.719 v -6.816 c 0,-1.449 0,-2.789 -1.235,-4.078 -1.34,-1.344 -3.058,-1.879 -4.668,-1.879 -2.847,0 -5.207,1.609 -5.207,3.863 0,1.02 0.696,1.613 1.61,1.613 0.964,0 1.554,-0.699 1.554,-1.558 0,-0.43 -0.16,-1.555 -1.769,-1.555 0.965,-1.238 2.629,-1.613 3.703,-1.613 1.719,0 3.652,1.344 3.652,4.402 v 1.235 c -1.773,0.109 -4.136,0.214 -6.281,1.234 -2.578,1.183 -3.438,2.953 -3.438,4.457 0,2.789 3.329,3.648 5.477,3.648 2.254,0 3.813,-1.394 4.457,-2.953 z m -0.215,-5.633 v 3.434 c 0,3.223 -2.472,4.402 -4.027,4.402 -1.664,0 -3.059,-1.179 -3.059,-2.898 0,-1.879 1.45,-4.723 7.086,-4.938 z"
         style="fill:#000000;fill-opacity:1;fill-rule:nonzero;stroke:none"
         id="path168" /><path
         d="m 367.016,366.523 v -3.757 l -4.778,0.375 v 1.074 c 2.414,0 2.684,0.215 2.684,1.933 v 9.176 c 0,1.504 -0.375,1.504 -2.684,1.504 v 1.074 c 1.34,-0.054 2.95,-0.105 3.918,-0.105 1.34,0 2.953,0 4.348,0.105 v -1.074 h -0.754 c -2.52,0 -2.574,-0.375 -2.574,-1.609 v -5.262 c 0,-3.379 1.449,-6.441 4.027,-6.441 0.211,0 0.32,0 0.375,0.054 -0.109,0 -0.805,0.43 -0.805,1.344 0,0.91 0.75,1.449 1.5,1.449 0.594,0 1.45,-0.429 1.45,-1.504 0,-1.074 -1.071,-2.093 -2.52,-2.093 -2.523,0 -3.758,2.308 -4.187,3.757 z"
         style="fill:#000000;fill-opacity:1;fill-rule:nonzero;stroke:none"
         id="path170" /><path
         d="m 380.582,364.215 h 4.938 v -1.074 h -4.938 v -6.282 h -0.859 c 0,2.793 -1.02,6.442 -4.403,6.602 v 0.754 h 2.899 v 9.445 c 0,4.188 3.222,4.617 4.457,4.617 2.414,0 3.383,-2.414 3.383,-4.617 v -1.93 h -0.86 v 1.879 c 0,2.524 -1.019,3.809 -2.308,3.809 -2.309,0 -2.309,-3.113 -2.309,-3.703 z"
         style="fill:#000000;fill-opacity:1;fill-rule:nonzero;stroke:none"
         id="path172" /><path
         d="m 394.055,362.766 -4.778,0.375 v 1.074 c 2.2,0 2.524,0.215 2.524,1.879 v 9.23 c 0,1.504 -0.379,1.504 -2.688,1.504 v 1.074 c 1.075,-0.054 2.953,-0.105 3.758,-0.105 1.234,0 2.418,0.051 3.598,0.105 v -1.074 c -2.309,0 -2.414,-0.16 -2.414,-1.504 z m 0.105,-5.961 c 0,-1.071 -0.805,-1.825 -1.769,-1.825 -1.075,0 -1.829,0.915 -1.829,1.825 0,0.914 0.754,1.828 1.829,1.828 0.964,0 1.769,-0.754 1.769,-1.828 z"
         style="fill:#000000;fill-opacity:1;fill-rule:nonzero;stroke:none"
         id="path174" /><path
         d="m 401.523,370.441 c 0,-5.582 2.789,-7.031 4.614,-7.031 0.324,0 2.468,0.051 3.652,1.289 -1.394,0.106 -1.609,1.125 -1.609,1.555 0,0.914 0.64,1.558 1.554,1.558 0.914,0 1.61,-0.539 1.61,-1.613 0,-2.308 -2.629,-3.648 -5.258,-3.648 -4.297,0 -7.41,3.703 -7.41,7.945 0,4.402 3.383,7.781 7.355,7.781 4.563,0 5.692,-4.132 5.692,-4.453 0,-0.324 -0.379,-0.324 -0.485,-0.324 -0.269,0 -0.375,0.109 -0.429,0.324 -0.965,3.164 -3.223,3.594 -4.457,3.594 -1.825,0 -4.829,-1.449 -4.829,-6.977 z"
         style="fill:#000000;fill-opacity:1;fill-rule:nonzero;stroke:none"
         id="path176" /><path
         d="m 418.773,354.121 -4.941,0.379 v 1.07 c 2.418,0 2.684,0.215 2.684,1.934 v 17.82 c 0,1.504 -0.375,1.504 -2.684,1.504 v 1.074 c 1.129,-0.054 2.953,-0.105 3.813,-0.105 0.859,0 2.523,0.051 3.812,0.105 v -1.074 c -2.309,0 -2.684,0 -2.684,-1.504 z"
         style="fill:#000000;fill-opacity:1;fill-rule:nonzero;stroke:none"
         id="path178" /><path
         d="m 426.023,369.262 c 0.215,-5.102 3.114,-5.961 4.297,-5.961 3.489,0 3.864,4.617 3.864,5.961 z m 0,0.75 h 9.559 c 0.75,0 0.856,0 0.856,-0.75 0,-3.383 -1.879,-6.711 -6.118,-6.711 -3.972,0 -7.14,3.543 -7.14,7.836 0,4.562 3.597,7.89 7.515,7.89 4.188,0 5.743,-3.808 5.743,-4.453 0,-0.324 -0.266,-0.429 -0.481,-0.429 -0.269,0 -0.375,0.214 -0.43,0.48 -1.183,3.543 -4.297,3.543 -4.617,3.543 -1.719,0 -3.058,-1.02 -3.863,-2.309 -1.024,-1.609 -1.024,-3.863 -1.024,-5.097 z"
         style="fill:#000000;fill-opacity:1;fill-rule:nonzero;stroke:none"
         id="path180" /><path
         d="m 457,354.5 c 0,0 0,-0.379 -0.43,-0.379 -0.75,0 -3.273,0.27 -4.187,0.379 -0.266,0 -0.645,0.051 -0.645,0.641 0,0.429 0.324,0.429 0.86,0.429 1.613,0 1.664,0.215 1.664,0.594 0,0.215 -0.266,1.395 -0.43,2.094 l -2.844,11.164 c -0.375,1.719 -0.535,2.308 -0.535,3.488 0,3.223 1.824,5.367 4.348,5.367 4.023,0 8.265,-5.097 8.265,-10.035 0,-3.117 -1.824,-5.476 -4.562,-5.476 -1.559,0 -3.008,1.019 -4.027,2.039 z m -3.168,12.934 c 0.164,-0.75 0.164,-0.805 0.484,-1.18 1.664,-2.199 3.223,-2.738 4.133,-2.738 1.235,0 2.149,1.019 2.149,3.222 0,2.039 -1.129,5.957 -1.774,7.246 -1.125,2.309 -2.683,3.543 -4.023,3.543 -1.184,0 -2.309,-0.914 -2.309,-3.437 0,-0.695 0,-1.34 0.535,-3.488 z"
         style="fill:#000000;fill-opacity:1;fill-rule:nonzero;stroke:none"
         id="path182" /><g
         id="g184"
         transform="rotate(90)"><path
           d="m 348.48,-390.137 c 0,94.571 -76.664,171.235 -171.234,171.235 -94.57,0 -171.234,-76.664 -171.234,-171.235 0,-94.57 76.664,-171.234 171.234,-171.234 94.57,0 171.234,76.664 171.234,171.234 z"
           style="fill:none;stroke:#b6b6b6;stroke-width:2.26772;stroke-linecap:butt;stroke-linejoin:round;stroke-miterlimit:4;stroke-dasharray:none;stroke-opacity:1"
           id="path186" /></g><g
         id="g188"><path
           d="M 277.473,48.297 V 306.012"
           style="fill:none;stroke:#b6b6b6;stroke-width:1.81417;stroke-linecap:butt;stroke-linejoin:miter;stroke-miterlimit:4;stroke-dasharray:5.44252, 5.44252;stroke-dashoffset:0;stroke-opacity:1"
           id="path190" /></g><path
         d="m 338.277,181.84 c -2.539,0 -4.593,-2.059 -4.593,-4.594 0,-2.535 2.054,-4.594 4.593,-4.594 2.535,0 4.59,2.059 4.59,4.594 0,2.535 -2.055,4.594 -4.59,4.594 z"
         style="fill:#0073c0;fill-opacity:1;fill-rule:nonzero;stroke:none"
         id="path192" /><path
         d="m 337.875,195.09 c -2.535,0 -4.59,-2.059 -4.59,-4.594 0,-2.539 2.055,-4.594 4.59,-4.594 2.539,0 4.594,2.055 4.594,4.594 0,2.535 -2.055,4.594 -4.594,4.594 z"
         style="fill:#0073c0;fill-opacity:1;fill-rule:nonzero;stroke:none"
         id="path194" /><path
         d="m 335.543,208.133 c -2.5,-0.438 -4.168,-2.821 -3.731,-5.317 0.438,-2.5 2.821,-4.171 5.317,-3.73 2.5,0.437 4.172,2.816 3.73,5.316 -0.437,2.5 -2.816,4.168 -5.316,3.731 z"
         style="fill:#0073c0;fill-opacity:1;fill-rule:nonzero;stroke:none"
         id="path196" /><path
         d="m 338.277,181.84 c -2.539,0 -4.593,-2.059 -4.593,-4.594 0,-2.535 2.054,-4.594 4.593,-4.594 2.535,0 4.59,2.059 4.59,4.594 0,2.535 -2.055,4.594 -4.59,4.594 z"
         style="fill:#0073c0;fill-opacity:1;fill-rule:nonzero;stroke:none"
         id="path198" /><path
         d="m 337.875,195.09 c -2.535,0 -4.59,-2.059 -4.59,-4.594 0,-2.539 2.055,-4.594 4.59,-4.594 2.539,0 4.594,2.055 4.594,4.594 0,2.535 -2.055,4.594 -4.594,4.594 z"
         style="fill:#0073c0;fill-opacity:1;fill-rule:nonzero;stroke:none"
         id="path200" /><path
         d="m 335.543,208.133 c -2.5,-0.438 -4.168,-2.821 -3.731,-5.317 0.438,-2.5 2.821,-4.171 5.317,-3.73 2.5,0.437 4.172,2.816 3.73,5.316 -0.437,2.5 -2.816,4.168 -5.316,3.731 z"
         style="fill:#0073c0;fill-opacity:1;fill-rule:nonzero;stroke:none"
         id="path202" /><path
         d="m 333.066,221.152 c -2.504,-0.41 -4.203,-2.769 -3.793,-5.273 0.411,-2.504 2.77,-4.203 5.274,-3.793 2.504,0.41 4.203,2.769 3.793,5.273 -0.41,2.504 -2.77,4.203 -5.274,3.793 z"
         style="fill:#0073c0;fill-opacity:1;fill-rule:nonzero;stroke:none"
         id="path204" /><path
         d="m 328.656,233.652 c -2.394,-0.836 -3.66,-3.457 -2.824,-5.851 0.836,-2.395 3.457,-3.66 5.852,-2.824 2.394,0.835 3.66,3.457 2.824,5.851 -0.836,2.395 -3.457,3.66 -5.852,2.824 z"
         style="fill:#0073c0;fill-opacity:1;fill-rule:nonzero;stroke:none"
         id="path206" /><path
         d="m 324.012,246.066 c -2.399,-0.824 -3.68,-3.433 -2.856,-5.836 0.821,-2.398 3.434,-3.679 5.832,-2.855 2.403,0.82 3.68,3.434 2.86,5.832 -0.821,2.402 -3.434,3.68 -5.836,2.859 z"
         style="fill:#0073c0;fill-opacity:1;fill-rule:nonzero;stroke:none"
         id="path208" /><path
         d="m 317.578,257.652 c -2.223,-1.226 -3.031,-4.019 -1.805,-6.242 1.223,-2.219 4.016,-3.027 6.239,-1.805 2.222,1.223 3.031,4.016 1.808,6.239 -1.226,2.222 -4.019,3.031 -6.242,1.808 z"
         style="fill:#0073c0;fill-opacity:1;fill-rule:nonzero;stroke:none"
         id="path210" /><path
         d="m 311.02,269.168 c -2.239,-1.199 -3.079,-3.984 -1.879,-6.219 1.195,-2.238 3.98,-3.078 6.214,-1.879 2.239,1.196 3.079,3.981 1.883,6.219 -1.199,2.234 -3.984,3.078 -6.218,1.879 z"
         style="fill:#0073c0;fill-opacity:1;fill-rule:nonzero;stroke:none"
         id="path212" /><path
         d="m 302.801,279.562 c -1.996,-1.566 -2.344,-4.453 -0.778,-6.449 1.567,-1.996 4.454,-2.343 6.45,-0.777 1.996,1.566 2.343,4.457 0.777,6.449 -1.566,1.996 -4.457,2.344 -6.449,0.777 z"
         style="fill:#0073c0;fill-opacity:1;fill-rule:nonzero;stroke:none"
         id="path214" /><path
         d="m 302.898,279.637 c -2.039,-1.512 -2.464,-4.387 -0.949,-6.426 1.512,-2.035 4.387,-2.461 6.426,-0.949 2.035,1.511 2.461,4.39 0.949,6.426 -1.512,2.039 -4.39,2.464 -6.426,0.949 z"
         style="fill:#0073c0;fill-opacity:1;fill-rule:nonzero;stroke:none"
         id="path216" /><path
         d="m 294.68,290.039 c -2.035,-1.512 -2.461,-4.391 -0.95,-6.426 1.512,-2.039 4.391,-2.465 6.426,-0.953 2.035,1.516 2.461,4.391 0.949,6.43 -1.511,2.035 -4.39,2.461 -6.425,0.949 z"
         style="fill:#0073c0;fill-opacity:1;fill-rule:nonzero;stroke:none"
         id="path218" /><path
         d="m 285.027,299.121 c -1.742,-1.844 -1.664,-4.75 0.176,-6.496 1.844,-1.742 4.75,-1.664 6.496,0.176 1.742,1.844 1.664,4.75 -0.176,6.496 -1.843,1.742 -4.75,1.664 -6.496,-0.176 z"
         style="fill:#0073c0;fill-opacity:1;fill-rule:nonzero;stroke:none"
         id="path220" /><path
         d="m 275.277,308.098 c -1.765,-1.825 -1.722,-4.731 0.102,-6.496 1.82,-1.766 4.726,-1.723 6.492,0.097 1.766,1.821 1.723,4.731 -0.098,6.496 -1.82,1.766 -4.73,1.723 -6.496,-0.097 z"
         style="fill:#0073c0;fill-opacity:1;fill-rule:nonzero;stroke:none"
         id="path222" /><path
         d="m 337.875,159.402 c -2.535,0 -4.59,2.059 -4.59,4.594 0,2.539 2.055,4.594 4.59,4.594 2.539,0 4.594,-2.055 4.594,-4.594 0,-2.535 -2.055,-4.594 -4.594,-4.594 z"
         style="fill:#0073c0;fill-opacity:1;fill-rule:nonzero;stroke:none"
         id="path224" /><path
         d="m 335.543,146.359 c -2.5,0.438 -4.168,2.821 -3.731,5.317 0.438,2.5 2.821,4.172 5.317,3.73 2.5,-0.437 4.172,-2.82 3.73,-5.316 -0.437,-2.5 -2.816,-4.168 -5.316,-3.731 z"
         style="fill:#0073c0;fill-opacity:1;fill-rule:nonzero;stroke:none"
         id="path226" /><path
         d="m 333.066,133.34 c -2.504,0.41 -4.203,2.769 -3.793,5.273 0.411,2.504 2.77,4.203 5.274,3.793 2.504,-0.41 4.203,-2.769 3.793,-5.273 -0.41,-2.504 -2.77,-4.203 -5.274,-3.793 z"
         style="fill:#0073c0;fill-opacity:1;fill-rule:nonzero;stroke:none"
         id="path228" /><path
         d="m 328.656,120.84 c -2.394,0.836 -3.66,3.457 -2.824,5.851 0.836,2.395 3.457,3.661 5.852,2.825 2.394,-0.836 3.66,-3.457 2.824,-5.852 -0.836,-2.394 -3.457,-3.66 -5.852,-2.824 z"
         style="fill:#0073c0;fill-opacity:1;fill-rule:nonzero;stroke:none"
         id="path230" /><path
         d="m 324.012,108.426 c -2.399,0.824 -3.68,3.433 -2.856,5.836 0.821,2.398 3.434,3.679 5.832,2.855 2.403,-0.82 3.68,-3.433 2.86,-5.832 -0.821,-2.402 -3.434,-3.68 -5.836,-2.859 z"
         style="fill:#0073c0;fill-opacity:1;fill-rule:nonzero;stroke:none"
         id="path232" /><path
         d="m 317.578,96.84 c -2.223,1.226 -3.031,4.019 -1.805,6.242 1.223,2.219 4.016,3.027 6.239,1.805 2.222,-1.223 3.031,-4.016 1.808,-6.239 -1.226,-2.222 -4.019,-3.031 -6.242,-1.808 z"
         style="fill:#0073c0;fill-opacity:1;fill-rule:nonzero;stroke:none"
         id="path234" /><path
         d="m 311.02,85.324 c -2.239,1.199 -3.079,3.985 -1.879,6.219 1.195,2.238 3.98,3.078 6.214,1.879 2.239,-1.195 3.079,-3.981 1.883,-6.219 -1.199,-2.234 -3.984,-3.074 -6.218,-1.879 z"
         style="fill:#0073c0;fill-opacity:1;fill-rule:nonzero;stroke:none"
         id="path236" /><path
         d="m 302.898,74.855 c -2.039,1.512 -2.46,4.387 -0.949,6.426 1.512,2.035 4.387,2.461 6.426,0.949 2.035,-1.511 2.461,-4.39 0.949,-6.425 -1.512,-2.039 -4.39,-2.465 -6.426,-0.95 z"
         style="fill:#0073c0;fill-opacity:1;fill-rule:nonzero;stroke:none"
         id="path238" /><path
         d="m 294.68,64.453 c -2.035,1.516 -2.461,4.391 -0.95,6.43 1.512,2.035 4.391,2.461 6.426,0.949 2.035,-1.516 2.461,-4.391 0.949,-6.43 -1.511,-2.035 -4.39,-2.461 -6.425,-0.949 z"
         style="fill:#0073c0;fill-opacity:1;fill-rule:nonzero;stroke:none"
         id="path240" /><path
         d="m 285.027,55.371 c -1.742,1.844 -1.664,4.75 0.176,6.496 1.844,1.742 4.75,1.664 6.496,-0.176 1.742,-1.843 1.664,-4.75 -0.176,-6.496 -1.843,-1.742 -4.75,-1.664 -6.496,0.176 z"
         style="fill:#0073c0;fill-opacity:1;fill-rule:nonzero;stroke:none"
         id="path242" /><path
         d="m 275.277,46.395 c -1.765,1.824 -1.722,4.73 0.102,6.496 1.82,1.765 4.726,1.722 6.492,-0.098 1.766,-1.82 1.723,-4.731 -0.098,-6.496 -1.82,-1.766 -4.73,-1.723 -6.496,0.098 z"
         style="fill:#0073c0;fill-opacity:1;fill-rule:nonzero;stroke:none"
         id="path244" /><path
         d="m 338.277,181.84 c -2.539,0 -4.593,-2.059 -4.593,-4.594 0,-2.535 2.054,-4.594 4.593,-4.594 2.535,0 4.59,2.059 4.59,4.594 0,2.535 -2.055,4.594 -4.59,4.594 z"
         style="fill:#0073c0;fill-opacity:1;fill-rule:nonzero;stroke:none"
         id="path246" /><path
         d="m 337.875,195.09 c -2.535,0 -4.59,-2.059 -4.59,-4.594 0,-2.539 2.055,-4.594 4.59,-4.594 2.539,0 4.594,2.055 4.594,4.594 0,2.535 -2.055,4.594 -4.594,4.594 z"
         style="fill:#0073c0;fill-opacity:1;fill-rule:nonzero;stroke:none"
         id="path248" /><path
         d="m 335.543,208.133 c -2.5,-0.438 -4.168,-2.821 -3.731,-5.317 0.438,-2.5 2.821,-4.171 5.317,-3.73 2.5,0.437 4.172,2.816 3.73,5.316 -0.437,2.5 -2.816,4.168 -5.316,3.731 z"
         style="fill:#0073c0;fill-opacity:1;fill-rule:nonzero;stroke:none"
         id="path250" /><path
         d="m 302.801,279.562 c -1.996,-1.566 -2.344,-4.453 -0.778,-6.449 1.567,-1.996 4.454,-2.343 6.45,-0.777 1.996,1.566 2.343,4.457 0.777,6.449 -1.566,1.996 -4.457,2.344 -6.449,0.777 z"
         style="fill:#0073c0;fill-opacity:1;fill-rule:nonzero;stroke:none"
         id="path252" /><path
         d="m 196.531,153.465 c 1.551,-4.527 5.891,-4.59 6.324,-4.59 5.957,0 6.391,6.949 6.391,10.047 0,2.422 -0.187,3.101 -0.496,3.91 -0.867,2.852 -2.047,7.441 -2.047,8.496 0,0.434 0.184,0.684 0.496,0.684 0.559,0 0.867,-0.871 1.301,-2.36 0.93,-3.347 1.305,-5.582 1.426,-6.82 0.125,-0.496 0.187,-0.992 0.375,-1.551 1.238,-3.91 3.781,-9.801 5.332,-12.902 0.312,-0.496 0.746,-1.363 0.746,-1.551 0,-0.371 -0.371,-0.371 -0.434,-0.371 -0.125,0 -0.375,0 -0.496,0.246 -2.047,3.785 -3.66,7.754 -5.211,11.723 -0.062,-1.176 -0.062,-4.215 -1.613,-8.063 -0.992,-2.418 -2.543,-4.34 -5.273,-4.34 -4.961,0 -7.75,6.016 -7.75,7.258 0,0.371 0.371,0.371 0.804,0.371 z"
         style="fill:#000000;fill-opacity:1;fill-rule:nonzero;stroke:none"
         id="path254" /><path
         d="m 227.055,158.898 c -0.559,-0.929 -1.489,-1.671 -2.856,-1.671 -3.535,0 -7.133,3.906 -7.133,7.875 0,2.73 1.801,4.589 4.219,4.589 1.488,0 2.789,-0.804 3.906,-1.921 0.497,1.675 2.11,1.921 2.856,1.921 0.992,0 1.672,-0.558 2.168,-1.425 0.621,-1.118 0.992,-2.668 0.992,-2.793 0,-0.371 -0.371,-0.371 -0.434,-0.371 -0.433,0 -0.433,0.125 -0.617,0.867 -0.375,1.367 -0.871,2.98 -2.047,2.98 -0.683,0 -0.933,-0.621 -0.933,-1.367 0,-0.434 0.25,-1.488 0.437,-2.168 0.184,-0.746 0.496,-1.863 0.617,-2.484 l 0.559,-2.106 c 0.188,-0.746 0.496,-2.047 0.496,-2.172 0,-0.621 -0.496,-0.867 -0.93,-0.867 -0.496,0 -1.117,0.309 -1.3,1.113 z m -1.739,7.071 c -0.187,0.808 -0.804,1.367 -1.425,1.863 -0.25,0.246 -1.364,1.117 -2.543,1.117 -1.055,0 -2.047,-0.746 -2.047,-2.668 0,-1.488 0.804,-4.527 1.488,-5.644 1.242,-2.235 2.668,-2.606 3.41,-2.606 1.922,0 2.481,2.11 2.481,2.418 0,0.063 -0.063,0.313 -0.063,0.375 z"
         style="fill:#000000;fill-opacity:1;fill-rule:nonzero;stroke:none"
         id="path256" /><path
         d="m 228.121,186.91 c 0,-1.726 -0.453,-5.383 -3.121,-5.383 -3.656,0 -7.68,7.395 -7.68,13.391 0,2.465 0.739,5.379 3.121,5.379 3.696,0 7.68,-7.516 7.68,-13.387 z m -8.051,3.57 c 0.453,-1.64 0.985,-3.734 2.055,-5.625 0.695,-1.273 1.641,-2.75 2.832,-2.75 1.273,0 1.438,1.684 1.438,3.161 0,1.316 -0.207,2.629 -0.821,5.214 z m 5.258,0.864 c -0.289,1.191 -0.824,3.41 -1.848,5.297 -0.906,1.808 -1.89,3.082 -3.039,3.082 -0.863,0 -1.398,-0.782 -1.398,-3.203 0,-1.11 0.164,-2.629 0.82,-5.176 z"
         style="fill:#000000;fill-opacity:1;fill-rule:nonzero;stroke:none"
         id="path258" /><path
         d="m 236.223,196.953 c -0.368,-0.613 -0.985,-1.105 -1.887,-1.105 -2.344,0 -4.723,2.586 -4.723,5.214 0,1.805 1.188,3.04 2.789,3.04 0.989,0 1.852,-0.536 2.59,-1.274 0.328,1.11 1.395,1.274 1.887,1.274 0.66,0 1.109,-0.372 1.437,-0.946 0.411,-0.738 0.661,-1.765 0.661,-1.847 0,-0.247 -0.25,-0.247 -0.289,-0.247 -0.29,0 -0.29,0.083 -0.411,0.575 -0.246,0.902 -0.574,1.972 -1.355,1.972 -0.453,0 -0.617,-0.414 -0.617,-0.906 0,-0.285 0.164,-0.984 0.289,-1.437 0.121,-0.493 0.328,-1.231 0.41,-1.641 l 0.367,-1.398 c 0.125,-0.493 0.332,-1.356 0.332,-1.438 0,-0.41 -0.332,-0.574 -0.617,-0.574 -0.328,0 -0.738,0.207 -0.863,0.738 z m -1.149,4.684 c -0.125,0.535 -0.535,0.902 -0.945,1.23 -0.164,0.164 -0.902,0.742 -1.684,0.742 -0.699,0 -1.355,-0.496 -1.355,-1.769 0,-0.985 0.535,-2.996 0.984,-3.735 0.824,-1.48 1.766,-1.726 2.262,-1.726 1.269,0 1.641,1.398 1.641,1.601 0,0.043 -0.039,0.208 -0.039,0.247 z"
         style="fill:#000000;fill-opacity:1;fill-rule:nonzero;stroke:none"
         id="path260" /><path
         d="m 243.723,203.648 c 0,0.985 -0.164,2.176 -1.438,3.329 -0.043,0.082 -0.125,0.164 -0.125,0.246 0,0.121 0.164,0.246 0.246,0.246 0.289,0 1.848,-1.481 1.848,-3.657 0,-1.109 -0.449,-1.972 -1.313,-1.972 -0.574,0 -1.027,0.453 -1.027,1.027 0,0.574 0.41,1.071 1.066,1.071 0.454,0 0.743,-0.29 0.743,-0.29 z"
         style="fill:#000000;fill-opacity:1;fill-rule:nonzero;stroke:none"
         id="path262" /><path
         d="m 252.035,192.477 c 0,-0.286 -0.246,-0.696 -0.738,-0.696 -0.492,0 -1.027,0.492 -1.027,1.028 0,0.285 0.203,0.695 0.738,0.695 0.492,0 1.027,-0.531 1.027,-1.027 z m -3.738,9.324 c -0.082,0.246 -0.164,0.453 -0.164,0.781 0,0.859 0.699,1.52 1.726,1.52 1.805,0 2.629,-2.508 2.629,-2.793 0,-0.247 -0.246,-0.247 -0.289,-0.247 -0.246,0 -0.289,0.122 -0.371,0.329 -0.41,1.476 -1.191,2.218 -1.93,2.218 -0.367,0 -0.449,-0.25 -0.449,-0.66 0,-0.41 0.121,-0.738 0.285,-1.148 0.207,-0.492 0.411,-0.985 0.575,-1.481 0.164,-0.449 0.863,-2.093 0.906,-2.34 0.082,-0.164 0.121,-0.367 0.121,-0.574 0,-0.863 -0.738,-1.558 -1.723,-1.558 -1.847,0 -2.672,2.504 -2.672,2.832 0,0.207 0.247,0.207 0.329,0.207 0.246,0 0.246,-0.086 0.332,-0.289 0.449,-1.563 1.269,-2.219 1.929,-2.219 0.285,0 0.449,0.125 0.449,0.617 0,0.453 -0.082,0.699 -0.531,1.848 z"
         style="fill:#000000;fill-opacity:1;fill-rule:nonzero;stroke:none"
         id="path264" /></g></g></svg>
