<?xml version="1.0" encoding="UTF-8" standalone="no"?>
<!-- Created with Inkscape (http://www.inkscape.org/) -->

<svg
   version="1.1"
   id="svg2"
   xml:space="preserve"
   width="755.97455"
   height="516.64948"
   viewBox="0 0 755.97455 516.64948"
   sodipodi:docname="sh_contact1.pdf"
   xmlns:inkscape="http://www.inkscape.org/namespaces/inkscape"
   xmlns:sodipodi="http://sodipodi.sourceforge.net/DTD/sodipodi-0.dtd"
   xmlns="http://www.w3.org/2000/svg"
   xmlns:svg="http://www.w3.org/2000/svg"><defs
     id="defs6"><clipPath
       clipPathUnits="userSpaceOnUse"
       id="clipPath58"><path
         d="M 0,0 H 567 V 388 H 0 Z"
         id="path56" /></clipPath><clipPath
       clipPathUnits="userSpaceOnUse"
       id="clipPath90"><path
         d="M 0,0 H 567 V 388 H 0 Z"
         id="path88" /></clipPath><clipPath
       clipPathUnits="userSpaceOnUse"
       id="clipPath124"><path
         d="M 0,0 H 567 V 388 H 0 Z"
         id="path122" /></clipPath><clipPath
       clipPathUnits="userSpaceOnUse"
       id="clipPath158"><path
         d="M 0,0 H 567 V 388 H 0 Z"
         id="path156" /></clipPath></defs><sodipodi:namedview
     id="namedview4"
     pagecolor="#ffffff"
     bordercolor="#666666"
     borderopacity="1.0"
     inkscape:pageshadow="2"
     inkscape:pageopacity="0.0"
     inkscape:pagecheckerboard="0" /><g
     id="g8"
     inkscape:groupmode="layer"
     inkscape:label="sh_contact1"
     transform="matrix(1.3333333,0,0,1.3333333,0,8.2495698e-6)"><g
       id="g10"><g
         id="g12"><path
           d="m 184.188,299.926 c -28.024,4.445 -58.696,-9.68 -79.668,-28.364 -16.18,-14.41 -27.422,-36.64 -28.614,-58.351 -1.07,-19.555 19.676,-36.031 19.84,-55.629 0.305,-36.484 -59.152,-75.301 -35.203,-103.219 21.547,-25.121 65.164,9.399 97.262,16.418 25.164,5.504 55.355,3.153 74.562,20.114 17.18,15.167 13.051,44.738 25.86,63.726 18.804,27.871 79.519,37.035 72.496,70.18 -7.227,34.097 -67.375,20.918 -97.95,38.07 -17.761,9.961 -28.527,33.871 -48.585,37.055 z"
           style="fill:none;stroke:#000000;stroke-width:2.26772;stroke-linecap:butt;stroke-linejoin:round;stroke-miterlimit:4;stroke-dasharray:none;stroke-opacity:1"
           id="path14" /></g><g
         id="g16"
         transform="rotate(90)"><path
           d="m 343.773,-171.828 c 0,91.969 -74.558,166.527 -166.527,166.527 -91.969,0 -166.527,-74.558 -166.527,-166.527 0,-91.969 74.558,-166.524 166.527,-166.524 91.969,0 166.527,74.555 166.527,166.524 z"
           style="fill:none;stroke:#b6b6b6;stroke-width:2.26772;stroke-linecap:butt;stroke-linejoin:round;stroke-miterlimit:4;stroke-dasharray:none;stroke-opacity:1"
           id="path18" /></g><g
         id="g20"><path
           d="M 171.039,176.5 64.625,50.5"
           style="fill:none;stroke:#0073c0;stroke-width:1.81417;stroke-linecap:butt;stroke-linejoin:miter;stroke-miterlimit:4;stroke-dasharray:none;stroke-opacity:1"
           id="path22" /></g><g
         id="g24"
         transform="matrix(-0.844566,-1,1,-0.844566,0,0)"><path
           d="m -62.717,11.441 -0.002,2.772 h 2.774 l -0.003,-2.772 z"
           style="fill:#0073c0;fill-opacity:1;fill-rule:evenodd;stroke:#0073c0;stroke-width:0.3696;stroke-linecap:butt;stroke-linejoin:miter;stroke-miterlimit:4;stroke-dasharray:none;stroke-opacity:1"
           id="path26" /></g><path
         d="m 171.828,181.84 c -2.539,0 -4.594,-2.059 -4.594,-4.594 0,-2.535 2.055,-4.594 4.594,-4.594 2.535,0 4.594,2.059 4.594,4.594 0,2.535 -2.059,4.594 -4.594,4.594 z"
         style="fill:#000000;fill-opacity:1;fill-rule:nonzero;stroke:none"
         id="path28" /><g
         id="g30"><path
           d="m 291.777,293.5 c -27.91,-15.402 -34.187,-57.59 -33.793,-89.465 0.383,-30.617 24.102,-56.328 34.59,-85.097 10.168,-27.899 4.364,-66.051 27.422,-84.758 26.797,-21.742 73.875,-29.473 102.949,-10.891 25.446,16.262 12.867,60.356 29.2,85.758 15.183,23.613 47.398,33.383 61.281,57.789 14.472,25.449 26.644,57.437 19.117,85.73 -8.191,30.786 -32.609,68.598 -64.402,70.61 -27.18,1.722 -35.856,-46.145 -62.227,-52.934 -37.602,-9.68 -80.144,42.02 -114.137,23.258 z"
           style="fill:none;stroke:#000000;stroke-width:2.26772;stroke-linecap:butt;stroke-linejoin:round;stroke-miterlimit:4;stroke-dasharray:none;stroke-opacity:1"
           id="path32" /></g><g
         id="g34"
         transform="rotate(90)"><path
           d="m 348.48,-390.086 c 0,94.57 -76.664,171.234 -171.234,171.234 -94.57,0 -171.234,-76.664 -171.234,-171.234 0,-94.57 76.664,-171.234 171.234,-171.234 94.57,0 171.234,76.664 171.234,171.234 z"
           style="fill:none;stroke:#b6b6b6;stroke-width:2.26772;stroke-linecap:butt;stroke-linejoin:round;stroke-miterlimit:4;stroke-dasharray:none;stroke-opacity:1"
           id="path36" /></g><path
         d="m 164.266,188.125 c -1.313,0.398 -1.942,1.598 -1.942,2.512 0,0.801 0.571,1.711 1.77,1.711 1.312,0 2.625,-1.082 2.625,-2.852 0,-1.941 -1.883,-3.199 -4.11,-3.199 -2.113,0 -3.425,1.543 -3.937,2.226 -0.914,-1.539 -2.914,-2.226 -5.024,-2.226 -4.57,0 -7.023,4.453 -7.023,5.652 0,0.516 0.516,0.516 0.855,0.516 0.458,0 0.688,0 0.856,-0.457 1.031,-3.313 3.656,-4.399 5.141,-4.399 1.371,0 2.054,0.629 2.054,1.77 0,0.742 -0.515,2.742 -0.855,4.055 l -1.258,4.968 c -0.512,2.227 -1.828,3.309 -3.082,3.309 -0.172,0 -1.027,0 -1.711,-0.512 1.313,-0.402 1.937,-1.656 1.937,-2.511 0,-0.801 -0.624,-1.715 -1.824,-1.715 -1.258,0 -2.629,1.086 -2.629,2.855 0,1.942 1.942,3.195 4.168,3.195 2.055,0 3.426,-1.539 3.883,-2.226 0.914,1.543 2.969,2.226 5.024,2.226 4.625,0 7.078,-4.453 7.078,-5.652 0,-0.512 -0.571,-0.512 -0.856,-0.512 -0.457,0 -0.683,0 -0.855,0.457 -1.028,3.313 -3.653,4.395 -5.196,4.395 -1.371,0 -1.996,-0.629 -1.996,-1.824 0,-0.742 0.453,-2.684 0.797,-4.055 0.231,-0.914 1.086,-4.34 1.258,-4.91 0.57,-2.227 1.824,-3.313 3.082,-3.313 0.227,0 1.027,0 1.77,0.516 z"
         style="fill:#000000;fill-opacity:1;fill-rule:nonzero;stroke:none"
         id="path38" /><path
         d="m 179.465,198.492 c -0.516,-0.855 -1.371,-1.539 -2.629,-1.539 -3.254,0 -6.563,3.594 -6.563,7.25 0,2.512 1.657,4.223 3.883,4.223 1.367,0 2.567,-0.742 3.594,-1.77 0.457,1.543 1.941,1.77 2.629,1.77 0.91,0 1.539,-0.512 1.996,-1.313 0.57,-1.027 0.914,-2.453 0.914,-2.57 0,-0.34 -0.344,-0.34 -0.398,-0.34 -0.403,0 -0.403,0.113 -0.575,0.797 -0.339,1.258 -0.796,2.742 -1.882,2.742 -0.629,0 -0.856,-0.57 -0.856,-1.258 0,-0.398 0.227,-1.371 0.399,-1.996 0.171,-0.687 0.457,-1.715 0.57,-2.285 l 0.515,-1.941 c 0.172,-0.684 0.458,-1.883 0.458,-1.996 0,-0.571 -0.458,-0.801 -0.856,-0.801 -0.457,0 -1.027,0.285 -1.199,1.027 z M 177.863,205 c -0.168,0.742 -0.742,1.258 -1.312,1.715 -0.227,0.226 -1.254,1.027 -2.34,1.027 -0.969,0 -1.883,-0.687 -1.883,-2.457 0,-1.367 0.742,-4.168 1.371,-5.195 1.141,-2.055 2.453,-2.395 3.137,-2.395 1.769,0 2.285,1.938 2.285,2.227 0,0.055 -0.059,0.285 -0.059,0.34 z"
         style="fill:#000000;fill-opacity:1;fill-rule:nonzero;stroke:none"
         id="path40" /><g
         id="g42"><path
           d="M 390.207,177.113 495.461,312.238"
           style="fill:none;stroke:#0073c0;stroke-width:1.81417;stroke-linecap:butt;stroke-linejoin:miter;stroke-miterlimit:4;stroke-dasharray:none;stroke-opacity:1"
           id="path44" /></g><g
         id="g46"
         transform="matrix(0.77893,1,-1,0.77893,0,0)"><path
           d="m 433.097,-158.425 -0.002,2.862 h 2.863 l -0.002,-2.861 z"
           style="fill:#0073c0;fill-opacity:1;fill-rule:evenodd;stroke:#0073c0;stroke-width:0.381659;stroke-linecap:butt;stroke-linejoin:miter;stroke-miterlimit:4;stroke-dasharray:none;stroke-opacity:1"
           id="path48" /></g><path
         d="m 390.176,181.703 c -2.539,0 -4.594,-2.055 -4.594,-4.59 0,-2.539 2.055,-4.593 4.594,-4.593 2.535,0 4.594,2.054 4.594,4.593 0,2.535 -2.059,4.59 -4.594,4.59 z"
         style="fill:#000000;fill-opacity:1;fill-rule:nonzero;stroke:none"
         id="path50" /><g
         id="g52"><g
           id="g54" /><g
           id="g66"><g
             clip-path="url(#clipPath58)"
             opacity="0.8"
             id="g64"><g
               id="g62"><path
                 d="m 7.336,14.844 h 95.426 v 28.43 H 7.336 Z"
                 style="fill:#ffffff;fill-opacity:1;fill-rule:nonzero;stroke:none"
                 id="path60" /></g></g></g></g><path
         d="m 13.406,29.711 c -0.105,0.539 -0.32,1.344 -0.32,1.504 0,0.59 0.48,0.914 1.019,0.914 0.43,0 1.02,-0.27 1.286,-0.969 0.054,-0.105 1.183,-4.773 1.343,-5.418 0.27,-1.129 0.914,-3.488 1.075,-4.457 0.16,-0.43 1.125,-2.039 1.929,-2.789 0.27,-0.215 1.289,-1.129 2.739,-1.129 0.914,0 1.394,0.43 1.449,0.43 -1.02,0.16 -1.77,0.969 -1.77,1.879 0,0.539 0.375,1.179 1.285,1.179 0.914,0 1.879,-0.804 1.879,-2.039 0,-1.179 -1.07,-2.199 -2.843,-2.199 -2.2,0 -3.704,1.664 -4.348,2.629 -0.32,-1.555 -1.555,-2.629 -3.164,-2.629 -1.559,0 -2.203,1.34 -2.524,1.934 -0.589,1.179 -1.019,3.219 -1.019,3.324 0,0.379 0.32,0.379 0.375,0.379 0.375,0 0.375,-0.055 0.59,-0.805 0.59,-2.418 1.289,-4.082 2.523,-4.082 0.535,0 1.02,0.27 1.02,1.559 0,0.75 -0.11,1.125 -0.539,2.898 z"
         style="fill:#000000;fill-opacity:1;fill-rule:nonzero;stroke:none"
         id="path68" /><path
         d="m 35.93,27.762 c -0.481,-0.809 -1.285,-1.45 -2.469,-1.45 -3.059,0 -6.172,3.379 -6.172,6.817 0,2.359 1.559,3.969 3.652,3.969 1.286,0 2.414,-0.696 3.379,-1.664 0.43,1.449 1.825,1.664 2.469,1.664 0.859,0 1.449,-0.481 1.879,-1.235 0.539,-0.965 0.859,-2.308 0.859,-2.414 0,-0.32 -0.32,-0.32 -0.375,-0.32 -0.375,0 -0.375,0.105 -0.539,0.75 -0.32,1.18 -0.75,2.574 -1.769,2.574 -0.59,0 -0.805,-0.535 -0.805,-1.18 0,-0.375 0.215,-1.289 0.375,-1.878 0.16,-0.645 0.43,-1.61 0.535,-2.145 l 0.485,-1.828 c 0.16,-0.641 0.429,-1.77 0.429,-1.875 0,-0.539 -0.429,-0.754 -0.804,-0.754 -0.43,0 -0.965,0.269 -1.129,0.969 z m -1.5,6.117 c -0.164,0.699 -0.7,1.18 -1.235,1.609 -0.215,0.215 -1.183,0.965 -2.203,0.965 -0.91,0 -1.769,-0.641 -1.769,-2.305 0,-1.289 0.699,-3.918 1.289,-4.886 1.07,-1.93 2.308,-2.254 2.949,-2.254 1.664,0 2.148,1.824 2.148,2.094 0,0.054 -0.054,0.269 -0.054,0.32 z"
         style="fill:#000000;fill-opacity:1;fill-rule:nonzero;stroke:none"
         id="path70" /><path
         d="m 45.73,36.508 c 0,1.289 -0.214,2.844 -1.878,4.347 -0.055,0.11 -0.161,0.215 -0.161,0.325 0,0.16 0.215,0.32 0.321,0.32 0.379,0 2.418,-1.934 2.418,-4.777 0,-1.45 -0.59,-2.575 -1.719,-2.575 -0.75,0 -1.34,0.59 -1.34,1.34 0,0.75 0.535,1.395 1.395,1.395 0.589,0 0.964,-0.375 0.964,-0.375 z"
         style="fill:#000000;fill-opacity:1;fill-rule:nonzero;stroke:none"
         id="path72" /><path
         d="m 68.512,29.637 c 0,-2.09 -1.074,-3.325 -3.598,-3.325 -1.93,0 -3.219,1.02 -3.863,2.254 -0.485,-1.718 -1.77,-2.254 -3.489,-2.254 -1.984,0 -3.218,1.071 -3.917,2.36 v -2.36 l -3.543,0.266 v 0.86 c 1.609,0 1.824,0.16 1.824,1.343 v 6.223 c 0,1.019 -0.266,1.019 -1.824,1.019 v 0.86 c 0.054,0 1.718,-0.106 2.738,-0.106 0.859,0 2.523,0.106 2.738,0.106 v -0.86 c -1.558,0 -1.773,0 -1.773,-1.019 V 30.66 c 0,-2.472 1.988,-3.652 3.543,-3.652 1.664,0 1.879,1.289 1.879,2.523 v 5.473 c 0,1.019 -0.215,1.019 -1.77,1.019 v 0.86 c 0.051,0 1.715,-0.106 2.734,-0.106 0.86,0 2.524,0.106 2.739,0.106 v -0.86 c -1.555,0 -1.77,0 -1.77,-1.019 V 30.66 c 0,-2.472 1.985,-3.652 3.539,-3.652 1.664,0 1.879,1.289 1.879,2.523 v 5.473 c 0,1.019 -0.215,1.019 -1.769,1.019 v 0.86 c 0.054,0 1.718,-0.106 2.738,-0.106 0.855,0 2.519,0.106 2.734,0.106 v -0.86 c -1.554,0 -1.769,0 -1.769,-1.019 z"
         style="fill:#000000;fill-opacity:1;fill-rule:nonzero;stroke:none"
         id="path74" /><path
         d="m 81.977,30.445 c 0,-1.234 0,-2.148 -1.129,-3.062 -0.965,-0.805 -2.09,-1.18 -3.539,-1.18 -2.258,0 -3.868,0.859 -3.868,2.309 0,0.804 0.539,1.179 1.184,1.179 0.641,0 1.125,-0.48 1.125,-1.125 0,-0.378 -0.215,-0.914 -0.859,-1.074 0.859,-0.59 2.254,-0.59 2.363,-0.59 1.34,0 2.844,0.86 2.844,2.899 v 0.695 c -1.34,0.055 -2.899,0.164 -4.668,0.805 -2.149,0.754 -2.793,2.094 -2.793,3.168 0,2.039 2.468,2.629 4.187,2.629 1.879,0 3.004,-1.075 3.543,-1.985 0.051,0.965 0.695,1.879 1.824,1.879 0.055,0 2.36,0 2.36,-2.254 v -1.343 h -0.805 v 1.289 c 0,0.269 0,1.394 -0.91,1.394 -0.859,0 -0.859,-1.125 -0.859,-1.394 z m -1.879,3.059 c 0,2.308 -2.039,2.949 -3.114,2.949 -1.234,0 -2.359,-0.805 -2.359,-1.984 0,-1.34 1.125,-3.168 5.473,-3.328 z"
         style="fill:#000000;fill-opacity:1;fill-rule:nonzero;stroke:none"
         id="path76" /><path
         d="m 93.043,31.516 c 0,0 -0.16,-0.215 -0.16,-0.215 0,-0.106 1.555,-1.77 1.769,-1.985 0.86,-0.964 1.664,-1.878 3.598,-1.878 v -0.86 c -0.699,0.055 -1.398,0.11 -2.043,0.11 -0.695,0 -1.66,-0.055 -2.359,-0.11 v 0.86 c 0.375,0.054 0.484,0.324 0.484,0.539 0,0.05 0,0.425 -0.379,0.804 l -1.664,1.879 -1.984,-2.258 c -0.27,-0.265 -0.27,-0.375 -0.27,-0.48 0,-0.324 0.324,-0.484 0.645,-0.484 v -0.86 c -0.86,0.055 -1.77,0.11 -2.684,0.11 -0.695,0 -1.609,-0.055 -2.308,-0.11 v 0.86 c 1.074,0 1.718,0 2.363,0.699 l 2.953,3.433 c 0.051,0.055 0.215,0.215 0.215,0.27 0,0.055 -1.824,2.039 -2.039,2.308 -0.914,0.965 -1.719,1.825 -3.598,1.875 v 0.86 c 0.699,-0.051 1.234,-0.106 1.984,-0.106 0.7,0 1.664,0.055 2.364,0.106 v -0.86 c -0.27,-0.05 -0.485,-0.211 -0.485,-0.535 0,-0.484 0.27,-0.804 0.645,-1.179 l 1.719,-1.879 2.039,2.414 c 0.484,0.484 0.484,0.539 0.484,0.699 0,0.43 -0.539,0.48 -0.644,0.48 v 0.86 c 0.214,0 1.929,-0.106 2.683,-0.106 0.75,0 1.555,0.055 2.305,0.106 v -0.86 c -1.61,0 -1.77,-0.16 -2.36,-0.75 z"
         style="fill:#000000;fill-opacity:1;fill-rule:nonzero;stroke:none"
         id="path78" /><path
         d="m 420.77,158.457 c -1.313,0.402 -1.942,1.602 -1.942,2.512 0,0.801 0.57,1.715 1.77,1.715 1.312,0 2.625,-1.086 2.625,-2.856 0,-1.941 -1.883,-3.195 -4.11,-3.195 -2.113,0 -3.425,1.539 -3.937,2.226 -0.914,-1.543 -2.914,-2.226 -5.024,-2.226 -4.57,0 -7.023,4.453 -7.023,5.652 0,0.512 0.516,0.512 0.855,0.512 0.457,0 0.688,0 0.856,-0.457 1.031,-3.309 3.656,-4.395 5.14,-4.395 1.372,0 2.055,0.629 2.055,1.77 0,0.742 -0.515,2.738 -0.855,4.055 l -1.258,4.964 c -0.512,2.227 -1.824,3.313 -3.082,3.313 -0.172,0 -1.028,0 -1.711,-0.516 1.312,-0.398 1.937,-1.656 1.937,-2.511 0,-0.801 -0.625,-1.711 -1.824,-1.711 -1.258,0 -2.625,1.082 -2.625,2.851 0,1.942 1.938,3.199 4.164,3.199 2.059,0 3.426,-1.543 3.883,-2.226 0.914,1.539 2.969,2.226 5.024,2.226 4.624,0 7.078,-4.453 7.078,-5.652 0,-0.516 -0.571,-0.516 -0.856,-0.516 -0.457,0 -0.683,0 -0.855,0.457 -1.028,3.313 -3.653,4.399 -5.196,4.399 -1.371,0 -1.996,-0.629 -1.996,-1.828 0,-0.742 0.457,-2.684 0.797,-4.055 0.231,-0.91 1.086,-4.336 1.258,-4.91 0.57,-2.223 1.824,-3.309 3.082,-3.309 0.227,0 1.027,0 1.77,0.512 z"
         style="fill:#000000;fill-opacity:1;fill-rule:nonzero;stroke:none"
         id="path80" /><path
         d="m 431.973,161.633 c 0,-0.055 0.113,-0.399 0.113,-0.399 0,-0.172 -0.113,-0.398 -0.457,-0.398 -0.516,0 -2.625,0.226 -3.254,0.285 -0.172,0 -0.57,0.055 -0.57,0.57 0,0.34 0.398,0.34 0.683,0.34 1.2,0 1.2,0.231 1.2,0.403 0,0.171 -0.227,1.199 -0.399,1.769 l -0.57,2.34 c -0.231,0.914 -1.602,6.449 -1.657,6.793 -0.171,0.629 -0.171,0.973 -0.171,1.258 0,2.566 1.656,4.168 3.769,4.168 3.195,0 6.563,-3.426 6.563,-7.196 0,-2.968 -2.055,-4.281 -3.825,-4.281 -1.312,0 -2.453,0.742 -3.195,1.426 z m -1.313,16.441 c -1.199,0 -1.941,-1.082 -1.941,-2.625 0,-0.914 0.226,-1.769 0.969,-4.679 0.113,-0.458 0.113,-0.516 0.628,-1.086 0.969,-1.086 2.114,-1.657 3.024,-1.657 0.972,0 1.828,0.743 1.828,2.453 0,1.032 -0.512,3.657 -1.313,5.141 -0.628,1.254 -1.882,2.453 -3.195,2.453 z"
         style="fill:#000000;fill-opacity:1;fill-rule:nonzero;stroke:none"
         id="path82" /><g
         id="g84"><g
           id="g86" /><g
           id="g98"><g
             clip-path="url(#clipPath90)"
             opacity="0.8"
             id="g96"><g
               id="g94"><path
                 d="m 96.465,351.977 h 146.73 v 28.445 H 96.465 Z"
                 style="fill:#ffffff;fill-opacity:1;fill-rule:nonzero;stroke:none"
                 id="path92" /></g></g></g></g><path
         d="m 104.977,367.059 h 5.796 c 4.082,0 7.786,-2.739 7.786,-6.172 0,-3.383 -3.383,-6.387 -8.051,-6.387 H 98.375 v 1.07 h 0.859 c 2.629,0 2.684,0.379 2.684,1.614 v 18.035 c 0,1.234 -0.055,1.609 -2.684,1.609 h -0.859 v 1.074 c 1.234,-0.105 3.758,-0.105 5.047,-0.105 1.289,0 3.863,0 5.098,0.105 v -1.074 h -0.86 c -2.629,0 -2.683,-0.375 -2.683,-1.609 z m -0.106,-0.86 v -9.23 c 0,-1.184 0.055,-1.399 1.664,-1.399 h 3.059 c 5.422,0 5.422,3.653 5.422,5.317 0,1.609 0,5.312 -5.422,5.312 z"
         style="fill:#000000;fill-opacity:1;fill-rule:nonzero;stroke:none"
         id="path100" /><path
         d="m 130.91,375.324 c 0.16,1.344 1.074,2.793 2.684,2.793 0.754,0 2.844,-0.484 2.844,-3.273 v -1.934 h -0.856 v 1.934 c 0,1.984 -0.859,2.199 -1.234,2.199 -1.129,0 -1.289,-1.555 -1.289,-1.719 v -6.816 c 0,-1.449 0,-2.789 -1.235,-4.078 -1.344,-1.344 -3.062,-1.879 -4.672,-1.879 -2.843,0 -5.207,1.609 -5.207,3.863 0,1.02 0.7,1.613 1.61,1.613 0.968,0 1.558,-0.699 1.558,-1.558 0,-0.43 -0.16,-1.555 -1.773,-1.555 0.969,-1.238 2.633,-1.613 3.707,-1.613 1.715,0 3.648,1.344 3.648,4.402 v 1.235 c -1.769,0.109 -4.133,0.214 -6.281,1.234 -2.574,1.183 -3.434,2.953 -3.434,4.457 0,2.789 3.329,3.648 5.473,3.648 2.258,0 3.813,-1.394 4.457,-2.953 z m -0.215,-5.633 v 3.434 c 0,3.223 -2.468,4.402 -4.027,4.402 -1.664,0 -3.059,-1.179 -3.059,-2.898 0,-1.879 1.45,-4.723 7.086,-4.938 z"
         style="fill:#000000;fill-opacity:1;fill-rule:nonzero;stroke:none"
         id="path102" /><path
         d="m 142.387,366.523 v -3.757 l -4.778,0.375 v 1.074 c 2.414,0 2.684,0.215 2.684,1.933 v 9.176 c 0,1.504 -0.375,1.504 -2.684,1.504 v 1.074 c 1.344,-0.054 2.953,-0.105 3.918,-0.105 1.344,0 2.953,0 4.348,0.105 v -1.074 h -0.75 c -2.523,0 -2.578,-0.375 -2.578,-1.609 v -5.262 c 0,-3.379 1.449,-6.441 4.027,-6.441 0.215,0 0.321,0 0.375,0.054 -0.105,0 -0.804,0.43 -0.804,1.344 0,0.91 0.75,1.449 1.503,1.449 0.59,0 1.45,-0.429 1.45,-1.504 0,-1.074 -1.075,-2.093 -2.524,-2.093 -2.523,0 -3.758,2.308 -4.187,3.757 z"
         style="fill:#000000;fill-opacity:1;fill-rule:nonzero;stroke:none"
         id="path104" /><path
         d="m 155.953,364.215 h 4.942 v -1.074 h -4.942 v -6.282 h -0.855 c 0,2.793 -1.024,6.442 -4.403,6.602 v 0.754 h 2.899 v 9.445 c 0,4.188 3.218,4.617 4.453,4.617 2.418,0 3.383,-2.414 3.383,-4.617 v -1.93 h -0.86 v 1.879 c 0,2.524 -1.019,3.809 -2.308,3.809 -2.309,0 -2.309,-3.113 -2.309,-3.703 z"
         style="fill:#000000;fill-opacity:1;fill-rule:nonzero;stroke:none"
         id="path106" /><path
         d="m 169.426,362.766 -4.778,0.375 v 1.074 c 2.204,0 2.524,0.215 2.524,1.879 v 9.23 c 0,1.504 -0.375,1.504 -2.684,1.504 v 1.074 c 1.074,-0.054 2.953,-0.105 3.758,-0.105 1.234,0 2.414,0.051 3.598,0.105 v -1.074 c -2.309,0 -2.418,-0.16 -2.418,-1.504 z m 0.109,-5.961 c 0,-1.071 -0.805,-1.825 -1.773,-1.825 -1.074,0 -1.824,0.915 -1.824,1.825 0,0.914 0.75,1.828 1.824,1.828 0.968,0 1.773,-0.754 1.773,-1.828 z"
         style="fill:#000000;fill-opacity:1;fill-rule:nonzero;stroke:none"
         id="path108" /><path
         d="m 176.895,370.441 c 0,-5.582 2.793,-7.031 4.617,-7.031 0.32,0 2.468,0.051 3.648,1.289 -1.394,0.106 -1.609,1.125 -1.609,1.555 0,0.914 0.644,1.558 1.558,1.558 0.911,0 1.61,-0.539 1.61,-1.613 0,-2.308 -2.633,-3.648 -5.262,-3.648 -4.293,0 -7.406,3.703 -7.406,7.945 0,4.402 3.379,7.781 7.351,7.781 4.563,0 5.692,-4.132 5.692,-4.453 0,-0.324 -0.375,-0.324 -0.485,-0.324 -0.265,0 -0.375,0.109 -0.429,0.324 -0.965,3.164 -3.219,3.594 -4.453,3.594 -1.825,0 -4.832,-1.449 -4.832,-6.977 z"
         style="fill:#000000;fill-opacity:1;fill-rule:nonzero;stroke:none"
         id="path110" /><path
         d="m 194.145,354.121 -4.938,0.379 v 1.07 c 2.414,0 2.684,0.215 2.684,1.934 v 17.82 c 0,1.504 -0.375,1.504 -2.684,1.504 v 1.074 c 1.125,-0.054 2.953,-0.105 3.809,-0.105 0.859,0 2.523,0.051 3.812,0.105 v -1.074 c -2.308,0 -2.683,0 -2.683,-1.504 z"
         style="fill:#000000;fill-opacity:1;fill-rule:nonzero;stroke:none"
         id="path112" /><path
         d="m 201.398,369.262 c 0.215,-5.102 3.114,-5.961 4.293,-5.961 3.493,0 3.868,4.617 3.868,5.961 z m 0,0.75 h 9.555 c 0.75,0 0.859,0 0.859,-0.75 0,-3.383 -1.878,-6.711 -6.121,-6.711 -3.972,0 -7.136,3.543 -7.136,7.836 0,4.562 3.593,7.89 7.511,7.89 4.188,0 5.746,-3.808 5.746,-4.453 0,-0.324 -0.269,-0.429 -0.484,-0.429 -0.269,0 -0.375,0.214 -0.43,0.48 -1.179,3.543 -4.293,3.543 -4.617,3.543 -1.715,0 -3.058,-1.02 -3.863,-2.309 -1.02,-1.609 -1.02,-3.863 -1.02,-5.097 z"
         style="fill:#000000;fill-opacity:1;fill-rule:nonzero;stroke:none"
         id="path114" /><path
         d="m 236.988,364.965 c -0.64,-1.289 -1.609,-2.199 -3.164,-2.199 -3.972,0 -8.215,5.046 -8.215,10.039 0,3.218 1.879,5.472 4.508,5.472 0.699,0 2.418,-0.16 4.457,-2.574 0.27,1.449 1.504,2.574 3.114,2.574 1.234,0 1.988,-0.804 2.578,-1.879 0.535,-1.234 1.019,-3.328 1.019,-3.378 0,-0.379 -0.324,-0.379 -0.43,-0.379 -0.324,0 -0.375,0.164 -0.484,0.644 -0.59,2.203 -1.18,4.242 -2.574,4.242 -0.969,0 -1.024,-0.914 -1.024,-1.558 0,-0.75 0.055,-1.071 0.43,-2.574 0.379,-1.399 0.43,-1.774 0.754,-3.063 l 1.234,-4.777 c 0.215,-0.965 0.215,-1.02 0.215,-1.18 0,-0.59 -0.375,-0.914 -0.968,-0.914 -0.856,0 -1.34,0.754 -1.45,1.504 z m -2.199,8.859 c -0.215,0.645 -0.215,0.696 -0.699,1.285 -1.5,1.879 -2.899,2.418 -3.863,2.418 -1.719,0 -2.2,-1.879 -2.2,-3.222 0,-1.715 1.071,-5.903 1.879,-7.516 1.071,-1.984 2.574,-3.273 3.969,-3.273 2.203,0 2.687,2.793 2.687,3.007 0,0.215 -0.054,0.43 -0.109,0.59 z"
         style="fill:#000000;fill-opacity:1;fill-rule:nonzero;stroke:none"
         id="path116" /><g
         id="g118"><g
           id="g120" /><g
           id="g132"><g
             clip-path="url(#clipPath124)"
             opacity="0.8"
             id="g130"><g
               id="g128"><path
                 d="m 319.617,351.977 h 146.73 v 28.445 h -146.73 z"
                 style="fill:#ffffff;fill-opacity:1;fill-rule:nonzero;stroke:none"
                 id="path126" /></g></g></g></g><path
         d="m 329.555,367.059 h 5.797 c 4.078,0 7.781,-2.739 7.781,-6.172 0,-3.383 -3.379,-6.387 -8.051,-6.387 h -12.133 v 1.07 h 0.86 c 2.632,0 2.683,0.379 2.683,1.614 v 18.035 c 0,1.234 -0.051,1.609 -2.683,1.609 h -0.86 v 1.074 c 1.235,-0.105 3.758,-0.105 5.047,-0.105 1.289,0 3.867,0 5.102,0.105 v -1.074 h -0.86 c -2.633,0 -2.683,-0.375 -2.683,-1.609 z m -0.11,-0.86 v -9.23 c 0,-1.184 0.055,-1.399 1.664,-1.399 h 3.059 c 5.422,0 5.422,3.653 5.422,5.317 0,1.609 0,5.312 -5.422,5.312 z"
         style="fill:#000000;fill-opacity:1;fill-rule:nonzero;stroke:none"
         id="path134" /><path
         d="m 355.484,375.324 c 0.164,1.344 1.075,2.793 2.684,2.793 0.754,0 2.848,-0.484 2.848,-3.273 v -1.934 h -0.86 v 1.934 c 0,1.984 -0.859,2.199 -1.234,2.199 -1.129,0 -1.289,-1.555 -1.289,-1.719 v -6.816 c 0,-1.449 0,-2.789 -1.235,-4.078 -1.343,-1.344 -3.058,-1.879 -4.671,-1.879 -2.844,0 -5.207,1.609 -5.207,3.863 0,1.02 0.699,1.613 1.613,1.613 0.965,0 1.555,-0.699 1.555,-1.558 0,-0.43 -0.161,-1.555 -1.77,-1.555 0.965,-1.238 2.629,-1.613 3.703,-1.613 1.719,0 3.649,1.344 3.649,4.402 v 1.235 c -1.77,0.109 -4.133,0.214 -6.278,1.234 -2.578,1.183 -3.437,2.953 -3.437,4.457 0,2.789 3.328,3.648 5.476,3.648 2.254,0 3.809,-1.394 4.453,-2.953 z m -0.214,-5.633 v 3.434 c 0,3.223 -2.469,4.402 -4.024,4.402 -1.664,0 -3.062,-1.179 -3.062,-2.898 0,-1.879 1.449,-4.723 7.086,-4.938 z"
         style="fill:#000000;fill-opacity:1;fill-rule:nonzero;stroke:none"
         id="path136" /><path
         d="m 366.961,366.523 v -3.757 l -4.777,0.375 v 1.074 c 2.418,0 2.683,0.215 2.683,1.933 v 9.176 c 0,1.504 -0.375,1.504 -2.683,1.504 v 1.074 c 1.343,-0.054 2.953,-0.105 3.921,-0.105 1.34,0 2.95,0 4.348,0.105 v -1.074 h -0.754 c -2.523,0 -2.574,-0.375 -2.574,-1.609 v -5.262 c 0,-3.379 1.449,-6.441 4.023,-6.441 0.215,0 0.325,0 0.375,0.054 -0.105,0 -0.804,0.43 -0.804,1.344 0,0.91 0.754,1.449 1.504,1.449 0.589,0 1.449,-0.429 1.449,-1.504 0,-1.074 -1.074,-2.093 -2.524,-2.093 -2.523,0 -3.757,2.308 -4.187,3.757 z"
         style="fill:#000000;fill-opacity:1;fill-rule:nonzero;stroke:none"
         id="path138" /><path
         d="m 380.531,364.215 h 4.938 v -1.074 h -4.938 v -6.282 h -0.859 c 0,2.793 -1.02,6.442 -4.402,6.602 v 0.754 h 2.898 v 9.445 c 0,4.188 3.223,4.617 4.457,4.617 2.414,0 3.379,-2.414 3.379,-4.617 v -1.93 h -0.859 v 1.879 c 0,2.524 -1.02,3.809 -2.305,3.809 -2.309,0 -2.309,-3.113 -2.309,-3.703 z"
         style="fill:#000000;fill-opacity:1;fill-rule:nonzero;stroke:none"
         id="path140" /><path
         d="m 394,362.766 -4.777,0.375 v 1.074 c 2.203,0 2.523,0.215 2.523,1.879 v 9.23 c 0,1.504 -0.375,1.504 -2.684,1.504 v 1.074 c 1.075,-0.054 2.954,-0.105 3.758,-0.105 1.235,0 2.418,0.051 3.598,0.105 v -1.074 c -2.309,0 -2.418,-0.16 -2.418,-1.504 z m 0.109,-5.961 c 0,-1.071 -0.804,-1.825 -1.773,-1.825 -1.07,0 -1.824,0.915 -1.824,1.825 0,0.914 0.754,1.828 1.824,1.828 0.969,0 1.773,-0.754 1.773,-1.828 z"
         style="fill:#000000;fill-opacity:1;fill-rule:nonzero;stroke:none"
         id="path142" /><path
         d="m 401.469,370.441 c 0,-5.582 2.793,-7.031 4.617,-7.031 0.324,0 2.469,0.051 3.652,1.289 -1.398,0.106 -1.613,1.125 -1.613,1.555 0,0.914 0.645,1.558 1.559,1.558 0.91,0 1.609,-0.539 1.609,-1.613 0,-2.308 -2.629,-3.648 -5.262,-3.648 -4.293,0 -7.406,3.703 -7.406,7.945 0,4.402 3.383,7.781 7.355,7.781 4.563,0 5.688,-4.132 5.688,-4.453 0,-0.324 -0.375,-0.324 -0.48,-0.324 -0.27,0 -0.379,0.109 -0.43,0.324 -0.969,3.164 -3.223,3.594 -4.457,3.594 -1.824,0 -4.832,-1.449 -4.832,-6.977 z"
         style="fill:#000000;fill-opacity:1;fill-rule:nonzero;stroke:none"
         id="path144" /><path
         d="m 418.719,354.121 -4.938,0.379 v 1.07 c 2.414,0 2.684,0.215 2.684,1.934 v 17.82 c 0,1.504 -0.375,1.504 -2.684,1.504 v 1.074 c 1.129,-0.054 2.953,-0.105 3.813,-0.105 0.859,0 2.523,0.051 3.808,0.105 v -1.074 c -2.308,0 -2.683,0 -2.683,-1.504 z"
         style="fill:#000000;fill-opacity:1;fill-rule:nonzero;stroke:none"
         id="path146" /><path
         d="m 425.973,369.262 c 0.215,-5.102 3.113,-5.961 4.297,-5.961 3.488,0 3.863,4.617 3.863,5.961 z m 0,0.75 h 9.554 c 0.754,0 0.86,0 0.86,-0.75 0,-3.383 -1.879,-6.711 -6.117,-6.711 -3.973,0 -7.141,3.543 -7.141,7.836 0,4.562 3.598,7.89 7.516,7.89 4.187,0 5.742,-3.808 5.742,-4.453 0,-0.324 -0.27,-0.429 -0.485,-0.429 -0.265,0 -0.375,0.214 -0.425,0.48 -1.184,3.543 -4.297,3.543 -4.618,3.543 -1.718,0 -3.062,-1.02 -3.867,-2.309 -1.019,-1.609 -1.019,-3.863 -1.019,-5.097 z"
         style="fill:#000000;fill-opacity:1;fill-rule:nonzero;stroke:none"
         id="path148" /><path
         d="m 456.949,354.5 c 0,0 0,-0.379 -0.429,-0.379 -0.75,0 -3.274,0.27 -4.188,0.379 -0.27,0 -0.644,0.051 -0.644,0.641 0,0.429 0.324,0.429 0.859,0.429 1.609,0 1.664,0.215 1.664,0.594 0,0.215 -0.27,1.395 -0.43,2.094 l -2.843,11.164 c -0.376,1.719 -0.54,2.308 -0.54,3.488 0,3.223 1.829,5.367 4.348,5.367 4.027,0 8.27,-5.097 8.27,-10.035 0,-3.117 -1.825,-5.476 -4.563,-5.476 -1.558,0 -3.008,1.019 -4.027,2.039 z m -3.168,12.934 c 0.16,-0.75 0.16,-0.805 0.485,-1.18 1.664,-2.199 3.218,-2.738 4.132,-2.738 1.235,0 2.149,1.019 2.149,3.222 0,2.039 -1.129,5.957 -1.774,7.246 -1.125,2.309 -2.683,3.543 -4.027,3.543 -1.18,0 -2.305,-0.914 -2.305,-3.437 0,-0.695 0,-1.34 0.536,-3.488 z"
         style="fill:#000000;fill-opacity:1;fill-rule:nonzero;stroke:none"
         id="path150" /><g
         id="g152"><g
           id="g154" /><g
           id="g166"><g
             clip-path="url(#clipPath158)"
             opacity="0.8"
             id="g164"><g
               id="g162"><path
                 d="M 455.184,252.129 H 559.321 V 283.16 H 455.184 Z"
                 style="fill:#ffffff;fill-opacity:1;fill-rule:nonzero;stroke:none"
                 id="path160" /></g></g></g></g><path
         d="m 462.258,269.688 c -0.121,0.613 -0.367,1.531 -0.367,1.714 0,0.676 0.554,1.043 1.168,1.043 0.488,0 1.164,-0.304 1.468,-1.105 0.063,-0.121 1.352,-5.457 1.535,-6.192 0.305,-1.289 1.043,-3.988 1.227,-5.089 0.184,-0.493 1.289,-2.332 2.207,-3.192 0.309,-0.242 1.473,-1.285 3.129,-1.285 1.043,0 1.594,0.488 1.656,0.488 -1.168,0.184 -2.023,1.106 -2.023,2.149 0,0.613 0.426,1.347 1.469,1.347 1.043,0 2.148,-0.918 2.148,-2.332 0,-1.347 -1.227,-2.511 -3.25,-2.511 -2.516,0 -4.234,1.902 -4.969,3.004 -0.367,-1.778 -1.777,-3.004 -3.617,-3.004 -1.781,0 -2.516,1.531 -2.883,2.207 -0.676,1.347 -1.164,3.679 -1.164,3.8 0,0.43 0.367,0.43 0.426,0.43 0.43,0 0.43,-0.058 0.676,-0.918 0.676,-2.762 1.472,-4.66 2.883,-4.66 0.613,0 1.164,0.305 1.164,1.777 0,0.86 -0.121,1.289 -0.614,3.313 z"
         style="fill:#000000;fill-opacity:1;fill-rule:nonzero;stroke:none"
         id="path168" /><path
         d="m 483.703,259.727 c 0,-0.063 0.125,-0.43 0.125,-0.43 0,-0.184 -0.125,-0.43 -0.492,-0.43 -0.551,0 -2.82,0.246 -3.496,0.309 -0.184,0 -0.613,0.062 -0.613,0.613 0,0.367 0.429,0.367 0.738,0.367 1.285,0 1.285,0.246 1.285,0.43 0,0.184 -0.242,1.289 -0.426,1.902 L 480.211,265 c -0.246,0.984 -1.719,6.93 -1.781,7.301 -0.184,0.672 -0.184,1.043 -0.184,1.347 0,2.762 1.777,4.477 4.047,4.477 3.437,0 7.055,-3.68 7.055,-7.727 0,-3.187 -2.207,-4.601 -4.11,-4.601 -1.41,0 -2.636,0.801 -3.433,1.535 z m -1.41,17.664 c -1.285,0 -2.082,-1.168 -2.082,-2.821 0,-0.984 0.242,-1.902 1.039,-5.031 0.125,-0.488 0.125,-0.551 0.676,-1.164 1.043,-1.164 2.269,-1.777 3.25,-1.777 1.043,0 1.965,0.797 1.965,2.636 0,1.102 -0.555,3.922 -1.411,5.52 -0.675,1.348 -2.027,2.637 -3.437,2.637 z"
         style="fill:#000000;fill-opacity:1;fill-rule:nonzero;stroke:none"
         id="path170" /><path
         d="m 495.984,277.449 c 0,1.473 -0.246,3.254 -2.144,4.969 -0.063,0.125 -0.188,0.246 -0.188,0.367 0,0.184 0.246,0.371 0.371,0.371 0.43,0 2.758,-2.211 2.758,-5.461 0,-1.656 -0.676,-2.941 -1.961,-2.941 -0.859,0 -1.535,0.672 -1.535,1.531 0,0.86 0.613,1.594 1.594,1.594 0.676,0 1.105,-0.43 1.105,-0.43 z"
         style="fill:#000000;fill-opacity:1;fill-rule:nonzero;stroke:none"
         id="path172" /><path
         d="m 522.016,269.602 c 0,-2.391 -1.227,-3.805 -4.11,-3.805 -2.207,0 -3.679,1.168 -4.414,2.578 -0.554,-1.965 -2.027,-2.578 -3.988,-2.578 -2.27,0 -3.68,1.226 -4.477,2.699 v -2.699 l -4.047,0.308 v 0.981 c 1.84,0 2.086,0.184 2.086,1.535 v 7.113 c 0,1.164 -0.308,1.164 -2.086,1.164 v 0.981 c 0.059,0 1.961,-0.121 3.125,-0.121 0.985,0 2.883,0.121 3.129,0.121 v -0.981 c -1.777,0 -2.023,0 -2.023,-1.164 v -4.968 c 0,-2.821 2.269,-4.168 4.047,-4.168 1.902,0 2.148,1.468 2.148,2.879 v 6.257 c 0,1.164 -0.246,1.164 -2.023,1.164 v 0.981 c 0.058,0 1.961,-0.121 3.125,-0.121 0.984,0 2.883,0.121 3.129,0.121 v -0.981 c -1.778,0 -2.024,0 -2.024,-1.164 v -4.968 c 0,-2.821 2.27,-4.168 4.047,-4.168 1.902,0 2.149,1.468 2.149,2.879 v 6.257 c 0,1.164 -0.247,1.164 -2.024,1.164 v 0.981 c 0.059,0 1.961,-0.121 3.125,-0.121 0.981,0 2.883,0.121 3.129,0.121 v -0.981 c -1.777,0 -2.023,0 -2.023,-1.164 z"
         style="fill:#000000;fill-opacity:1;fill-rule:nonzero;stroke:none"
         id="path174" /><path
         d="m 537.402,270.52 c 0,-1.411 0,-2.454 -1.289,-3.497 -1.105,-0.918 -2.39,-1.347 -4.047,-1.347 -2.578,0 -4.418,0.98 -4.418,2.636 0,0.922 0.614,1.352 1.352,1.352 0.734,0 1.285,-0.555 1.285,-1.289 0,-0.43 -0.242,-1.043 -0.98,-1.227 0.98,-0.675 2.578,-0.675 2.699,-0.675 1.531,0 3.25,0.98 3.25,3.312 v 0.797 c -1.531,0.063 -3.313,0.184 -5.336,0.922 -2.453,0.855 -3.188,2.391 -3.188,3.617 0,2.328 2.821,3.004 4.782,3.004 2.148,0 3.437,-1.227 4.05,-2.27 0.059,1.106 0.797,2.149 2.083,2.149 0.062,0 2.699,0 2.699,-2.578 v -1.531 h -0.918 v 1.472 c 0,0.305 0,1.594 -1.043,1.594 -0.981,0 -0.981,-1.289 -0.981,-1.594 z m -2.148,3.496 c 0,2.636 -2.332,3.375 -3.559,3.375 -1.41,0 -2.695,-0.922 -2.695,-2.27 0,-1.535 1.285,-3.617 6.254,-3.805 z"
         style="fill:#000000;fill-opacity:1;fill-rule:nonzero;stroke:none"
         id="path176" /><path
         d="m 550.047,271.746 c 0,0 -0.184,-0.242 -0.184,-0.242 0,-0.125 1.778,-2.027 2.024,-2.27 0.98,-1.105 1.898,-2.148 4.109,-2.148 v -0.981 c -0.801,0.063 -1.598,0.122 -2.332,0.122 -0.797,0 -1.902,-0.059 -2.699,-0.122 v 0.981 c 0.43,0.062 0.551,0.367 0.551,0.613 0,0.063 0,0.492 -0.426,0.922 l -1.902,2.145 -2.27,-2.575 c -0.309,-0.308 -0.309,-0.429 -0.309,-0.554 0,-0.367 0.371,-0.551 0.739,-0.551 v -0.981 c -0.981,0.063 -2.024,0.122 -3.067,0.122 -0.797,0 -1.84,-0.059 -2.636,-0.122 v 0.981 c 1.226,0 1.96,0 2.699,0.797 l 3.371,3.926 c 0.062,0.062 0.246,0.246 0.246,0.308 0,0.059 -2.086,2.328 -2.332,2.637 -1.043,1.101 -1.961,2.082 -4.109,2.144 v 0.981 c 0.796,-0.059 1.41,-0.121 2.269,-0.121 0.797,0 1.902,0.062 2.699,0.121 v -0.981 c -0.304,-0.062 -0.55,-0.246 -0.55,-0.613 0,-0.551 0.304,-0.918 0.734,-1.347 l 1.965,-2.149 2.328,2.762 c 0.551,0.551 0.551,0.613 0.551,0.797 0,0.488 -0.614,0.55 -0.735,0.55 v 0.981 c 0.246,0 2.207,-0.121 3.067,-0.121 0.859,0 1.777,0.062 2.636,0.121 v -0.981 c -1.839,0 -2.023,-0.183 -2.699,-0.859 z"
         style="fill:#000000;fill-opacity:1;fill-rule:nonzero;stroke:none"
         id="path178" /></g></g></svg>
