<?xml version="1.0" encoding="UTF-8" standalone="no"?>
<!-- Created with Inkscape (http://www.inkscape.org/) -->

<svg
   version="1.1"
   id="svg2"
   xml:space="preserve"
   width="755.90558"
   height="472.44095"
   viewBox="0 0 755.90558 472.44095"
   sodipodi:docname="sh_expfacts.pdf"
   xmlns:inkscape="http://www.inkscape.org/namespaces/inkscape"
   xmlns:sodipodi="http://sodipodi.sourceforge.net/DTD/sodipodi-0.dtd"
   xmlns="http://www.w3.org/2000/svg"
   xmlns:svg="http://www.w3.org/2000/svg"><defs
     id="defs6"><clipPath
       clipPathUnits="userSpaceOnUse"
       id="clipPath98"><path
         d="M 0,0 H 567 V 355 H 0 Z"
         id="path96" /></clipPath><clipPath
       clipPathUnits="userSpaceOnUse"
       id="clipPath120"><path
         d="M 0,0 H 567 V 355 H 0 Z"
         id="path118" /></clipPath><clipPath
       clipPathUnits="userSpaceOnUse"
       id="clipPath146"><path
         d="M 0,0 H 567 V 355 H 0 Z"
         id="path144" /></clipPath><clipPath
       clipPathUnits="userSpaceOnUse"
       id="clipPath172"><path
         d="M 0,0 H 567 V 355 H 0 Z"
         id="path170" /></clipPath><clipPath
       clipPathUnits="userSpaceOnUse"
       id="clipPath198"><path
         d="M 0,0 H 567 V 355 H 0 Z"
         id="path196" /></clipPath><clipPath
       clipPathUnits="userSpaceOnUse"
       id="clipPath246"><path
         d="M 0,0 H 567 V 355 H 0 Z"
         id="path244" /></clipPath><clipPath
       clipPathUnits="userSpaceOnUse"
       id="clipPath266"><path
         d="M 0,0 H 567 V 355 H 0 Z"
         id="path264" /></clipPath></defs><sodipodi:namedview
     id="namedview4"
     pagecolor="#ffffff"
     bordercolor="#666666"
     borderopacity="1.0"
     inkscape:pageshadow="2"
     inkscape:pageopacity="0.0"
     inkscape:pagecheckerboard="0" /><g
     id="g8"
     inkscape:groupmode="layer"
     inkscape:label="sh_expfacts"
     transform="matrix(1.3333333,0,0,1.3333333,0,1.3144357e-5)"><g
       id="g10"><g
         id="g12"><path
           d="M 390.031,177.367 225.234,314.035"
           style="fill:none;stroke:#f0732b;stroke-width:1.26031;stroke-linecap:butt;stroke-linejoin:miter;stroke-miterlimit:4;stroke-dasharray:none;stroke-opacity:1"
           id="path14" /></g><g
         id="g16"
         transform="matrix(-1,0.829291,-0.829291,-1,0,0)"><path
           d="m 25.328,-296.742 -6.713,3.879 0.002,-7.761 z"
           style="fill:#f0732b;fill-opacity:1;fill-rule:evenodd;stroke:#f0732b;stroke-width:1.03479;stroke-linecap:butt;stroke-linejoin:miter;stroke-miterlimit:4;stroke-dasharray:none;stroke-opacity:1"
           id="path18" /></g><g
         id="g20"><path
           d="m 184.188,299.926 c -28.024,4.445 -58.696,-9.68 -79.668,-28.364 -16.18,-14.41 -27.422,-36.64 -28.614,-58.351 -1.07,-19.555 19.676,-36.031 19.84,-55.629 0.305,-36.484 -59.152,-75.301 -35.203,-103.219 21.547,-25.121 65.164,9.399 97.262,16.418 25.164,5.504 55.355,3.153 74.562,20.114 17.18,15.167 13.051,44.738 25.86,63.726 18.804,27.871 79.519,37.035 72.496,70.18 -7.227,34.097 -67.375,20.918 -97.95,38.07 -17.761,9.961 -28.527,33.871 -48.585,37.055 z"
           style="fill:none;stroke:#000000;stroke-width:1.41732;stroke-linecap:butt;stroke-linejoin:round;stroke-miterlimit:4;stroke-dasharray:none;stroke-opacity:1"
           id="path22" /></g><g
         id="g24"><path
           d="m 291.777,293.5 c -27.91,-15.402 -34.187,-57.59 -33.793,-89.465 0.383,-30.617 24.102,-56.328 34.59,-85.097 10.168,-27.899 4.364,-66.051 27.422,-84.758 26.797,-21.742 73.875,-29.473 102.949,-10.891 25.446,16.262 12.867,60.356 29.2,85.758 15.183,23.617 47.398,33.383 61.281,57.789 14.472,25.449 26.644,57.437 19.117,85.73 -8.191,30.786 -32.609,68.598 -64.402,70.61 -27.18,1.722 -35.856,-46.145 -62.227,-52.934 -37.602,-9.68 -80.144,42.02 -114.137,23.258 z"
           style="fill:none;stroke:#000000;stroke-width:1.41732;stroke-linecap:butt;stroke-linejoin:round;stroke-miterlimit:4;stroke-dasharray:none;stroke-opacity:1"
           id="path26" /></g><path
         d="m 304.879,242.48 c -3.09,0.508 -5.184,3.422 -4.68,6.512 0.504,3.09 3.418,5.184 6.508,4.68 3.094,-0.504 5.188,-3.418 4.684,-6.508 -0.508,-3.094 -3.422,-5.187 -6.512,-4.684 z"
         style="fill:#0073c0;fill-opacity:1;fill-rule:nonzero;stroke:none"
         id="path28" /><path
         d="m 171.828,180.117 c -1.586,0 -2.871,-1.285 -2.871,-2.871 0,-1.586 1.285,-2.871 2.871,-2.871 1.586,0 2.871,1.285 2.871,2.871 0,1.586 -1.285,2.871 -2.871,2.871 z"
         style="fill:#000000;fill-opacity:1;fill-rule:nonzero;stroke:none"
         id="path30" /><path
         d="m 171.828,180.117 c -1.586,0 -2.871,-1.285 -2.871,-2.871 0,-1.586 1.285,-2.871 2.871,-2.871 1.586,0 2.871,1.285 2.871,2.871 0,1.586 -1.285,2.871 -2.871,2.871 z"
         style="fill:#000000;fill-opacity:1;fill-rule:nonzero;stroke:none"
         id="path32" /><path
         d="m 157.457,187.441 c -0.82,0.25 -1.215,0.997 -1.215,1.567 0,0.5 0.36,1.074 1.11,1.074 0.82,0 1.64,-0.68 1.64,-1.785 0,-1.215 -1.18,-2 -2.57,-2 -1.32,0 -2.141,0.965 -2.461,1.394 -0.57,-0.964 -1.82,-1.394 -3.141,-1.394 -2.855,0 -4.386,2.785 -4.386,3.535 0,0.32 0.32,0.32 0.535,0.32 0.285,0 0.426,0 0.535,-0.285 0.641,-2.07 2.281,-2.75 3.211,-2.75 0.855,0 1.281,0.395 1.281,1.11 0,0.461 -0.32,1.711 -0.535,2.531 l -0.781,3.105 c -0.325,1.391 -1.145,2.067 -1.93,2.067 -0.105,0 -0.641,0 -1.07,-0.321 0.82,-0.25 1.215,-1.035 1.215,-1.57 0,-0.5 -0.395,-1.07 -1.141,-1.07 -0.785,0 -1.645,0.679 -1.645,1.785 0,1.215 1.215,1.996 2.606,1.996 1.285,0 2.14,-0.961 2.426,-1.391 0.57,0.965 1.855,1.391 3.14,1.391 2.891,0 4.426,-2.781 4.426,-3.531 0,-0.321 -0.359,-0.321 -0.535,-0.321 -0.285,0 -0.43,0 -0.535,0.286 -0.645,2.07 -2.285,2.746 -3.25,2.746 -0.856,0 -1.246,-0.391 -1.246,-1.141 0,-0.465 0.285,-1.676 0.5,-2.531 0.14,-0.57 0.675,-2.711 0.785,-3.07 0.355,-1.391 1.14,-2.071 1.926,-2.071 0.14,0 0.64,0 1.105,0.324 z"
         style="fill:#000000;fill-opacity:1;fill-rule:nonzero;stroke:none"
         id="path34" /><path
         d="m 166.953,193.918 c -0.32,-0.535 -0.855,-0.961 -1.641,-0.961 -2.031,0 -4.101,2.246 -4.101,4.531 0,1.571 1.035,2.641 2.426,2.641 0.855,0 1.605,-0.465 2.246,-1.106 0.289,0.961 1.215,1.106 1.644,1.106 0.571,0 0.961,-0.324 1.246,-0.82 0.36,-0.645 0.571,-1.536 0.571,-1.606 0,-0.215 -0.211,-0.215 -0.246,-0.215 -0.25,0 -0.25,0.071 -0.36,0.5 -0.215,0.785 -0.5,1.711 -1.176,1.711 -0.394,0 -0.535,-0.355 -0.535,-0.785 0,-0.25 0.141,-0.855 0.25,-1.25 0.106,-0.426 0.285,-1.07 0.356,-1.426 l 0.32,-1.211 c 0.109,-0.429 0.285,-1.179 0.285,-1.25 0,-0.355 -0.285,-0.5 -0.535,-0.5 -0.285,0 -0.641,0.18 -0.75,0.641 z m -0.996,4.07 c -0.109,0.461 -0.465,0.785 -0.82,1.071 -0.145,0.14 -0.785,0.64 -1.465,0.64 -0.606,0 -1.176,-0.429 -1.176,-1.535 0,-0.855 0.465,-2.602 0.856,-3.246 0.714,-1.285 1.535,-1.496 1.96,-1.496 1.106,0 1.43,1.211 1.43,1.39 0,0.036 -0.035,0.176 -0.035,0.215 z"
         style="fill:#000000;fill-opacity:1;fill-rule:nonzero;stroke:none"
         id="path36" /><path
         d="m 413.961,157.773 c -0.82,0.25 -1.215,1 -1.215,1.571 0,0.5 0.359,1.07 1.109,1.07 0.821,0 1.641,-0.68 1.641,-1.785 0,-1.211 -1.18,-1.996 -2.57,-1.996 -1.321,0 -2.141,0.961 -2.461,1.39 -0.57,-0.964 -1.82,-1.39 -3.141,-1.39 -2.855,0 -4.386,2.781 -4.386,3.531 0,0.32 0.32,0.32 0.535,0.32 0.285,0 0.425,0 0.535,-0.285 0.64,-2.07 2.281,-2.746 3.211,-2.746 0.855,0 1.285,0.391 1.285,1.106 0,0.464 -0.324,1.711 -0.535,2.535 l -0.785,3.101 c -0.325,1.391 -1.145,2.071 -1.93,2.071 -0.106,0 -0.641,0 -1.07,-0.321 0.82,-0.25 1.214,-1.035 1.214,-1.57 0,-0.5 -0.394,-1.07 -1.14,-1.07 -0.785,0 -1.645,0.675 -1.645,1.781 0,1.215 1.215,2 2.606,2 1.285,0 2.14,-0.965 2.426,-1.391 0.57,0.961 1.855,1.391 3.14,1.391 2.891,0 4.426,-2.781 4.426,-3.531 0,-0.321 -0.359,-0.321 -0.535,-0.321 -0.285,0 -0.43,0 -0.535,0.286 -0.645,2.066 -2.286,2.746 -3.25,2.746 -0.856,0 -1.246,-0.395 -1.246,-1.141 0,-0.465 0.285,-1.68 0.5,-2.535 0.14,-0.57 0.675,-2.711 0.785,-3.067 0.355,-1.394 1.14,-2.07 1.925,-2.07 0.141,0 0.641,0 1.106,0.32 z"
         style="fill:#000000;fill-opacity:1;fill-rule:nonzero;stroke:none"
         id="path38" /><path
         d="m 420.961,159.758 c 0,-0.035 0.07,-0.25 0.07,-0.25 0,-0.106 -0.07,-0.25 -0.285,-0.25 -0.32,0 -1.641,0.144 -2.031,0.18 -0.11,0 -0.36,0.035 -0.36,0.355 0,0.215 0.25,0.215 0.43,0.215 0.75,0 0.75,0.144 0.75,0.25 0,0.105 -0.144,0.75 -0.25,1.105 l -0.355,1.465 c -0.145,0.57 -1,4.031 -1.035,4.242 -0.11,0.395 -0.11,0.61 -0.11,0.785 0,1.606 1.035,2.606 2.356,2.606 2,0 4.101,-2.141 4.101,-4.496 0,-1.856 -1.281,-2.676 -2.387,-2.676 -0.824,0 -1.535,0.465 -2,0.895 z m -0.82,10.277 c -0.75,0 -1.211,-0.68 -1.211,-1.644 0,-0.571 0.14,-1.106 0.605,-2.926 0.07,-0.285 0.07,-0.32 0.391,-0.676 0.609,-0.68 1.32,-1.035 1.89,-1.035 0.61,0 1.145,0.465 1.145,1.535 0,0.641 -0.324,2.281 -0.82,3.211 -0.395,0.785 -1.18,1.535 -2,1.535 z"
         style="fill:#000000;fill-opacity:1;fill-rule:nonzero;stroke:none"
         id="path40" /><g
         id="g42"><path
           d="m 257.023,300.184 c -23.527,-17.825 -22.41,-56.688 -20.519,-86.141 1.738,-27.051 19.316,-50.652 28.801,-76.043 15.859,-42.445 9.332,-102.363 46.996,-127.551 44.672,-29.879 123.234,-31.871 161.101,6.262 15.864,15.977 -6.254,46.621 2.149,67.508 11.14,27.703 45.812,40.261 59.933,66.57 16.336,30.438 31.434,66.266 25.86,100.359 -6.047,37.016 -25.578,82.914 -61.293,94.352 -43.356,13.883 -82.199,-42.43 -127.09,-50.008 -38.137,-6.437 -85.106,28.043 -115.938,4.692 z"
           style="fill:none;stroke:#b6b6b6;stroke-width:1.41732;stroke-linecap:butt;stroke-linejoin:round;stroke-miterlimit:4;stroke-dasharray:none;stroke-opacity:1"
           id="path44" /></g><g
         id="g46"><path
           d="M 257.406,325.086 C 199.32,273.281 215.039,169.938 228.863,93.344 233.879,65.566 247.344,37.516 267.941,18.219 304.465,-16 355.438,-45.695 405.363,-42.25 c 38.867,2.68 75.246,30.832 99.504,61.32 9.914,12.465 8.145,31.035 15.281,45.278 10.641,21.23 31.274,36.75 40.434,58.664 16.742,40.031 31.77,85.097 24.418,127.863 -7.363,42.82 -25.777,95.617 -65.809,112.516 -47.761,20.164 -99.543,-30.883 -150.98,-37.375 -36.645,-4.625 -83.238,23.656 -110.805,-0.93 z"
           style="fill:none;stroke:#b6b6b6;stroke-width:1.41732;stroke-linecap:butt;stroke-linejoin:round;stroke-miterlimit:4;stroke-dasharray:none;stroke-opacity:1"
           id="path48" /></g><g
         id="g50"><path
           d="M 389.918,176.668 203.684,119.512"
           style="fill:none;stroke:#f0732b;stroke-width:1.28293;stroke-linecap:butt;stroke-linejoin:miter;stroke-miterlimit:4;stroke-dasharray:none;stroke-opacity:1"
           id="path52" /></g><g
         id="g54"
         transform="matrix(-1,-0.306898,0.306898,-1,0,0)"><path
           d="m -214.011,-52.094 -8.487,4.906 10e-4,-9.813 z"
           style="fill:#f0732b;fill-opacity:1;fill-rule:evenodd;stroke:#f0732b;stroke-width:1.30823;stroke-linecap:butt;stroke-linejoin:miter;stroke-miterlimit:4;stroke-dasharray:none;stroke-opacity:1"
           id="path56" /></g><g
         id="g58"><path
           d="m 243.484,338.699 c -16.535,-7.59 -35.062,-16.73 -43.648,-32.773 -11.008,-20.578 -3.852,-46.567 -3.898,-69.903 -0.055,-26.57 5.554,-53.074 4.113,-79.609 -1.535,-28.281 -17.766,-55.879 -13.547,-83.887 2.828,-18.785 12.625,-36.898 25.254,-51.089 10.304,-11.575 25.543,-17.622 39.004,-25.297 25.8,-14.711 51.906,-29.422 79.797,-39.633 24.304,-8.899 49.562,-17.094 75.406,-18.528 23.047,-1.277 47.265,0.321 68.66,8.977 24.012,9.711 47.496,25.129 62.383,46.328 10.582,15.07 9.836,35.524 15.922,52.906 9.465,27.028 24.492,52.102 31.98,79.743 6.34,23.398 9.352,47.734 10.711,71.941 1.766,31.328 -1.418,62.754 -3.332,94.074 -1.184,19.387 6.316,42.289 -5.035,58.051 -9.633,13.375 -29.254,16.199 -45.371,19.664 -28.219,6.066 -57.809,3.524 -86.586,1.262 -28.133,-2.215 -55.379,-11.223 -83.414,-14.457 -21.457,-2.477 -43.293,-0.809 -64.688,-3.762 -21.539,-2.977 -43.945,-4.937 -63.711,-14.008 z"
           style="fill:none;stroke:#b6b6b6;stroke-width:1.41732;stroke-linecap:butt;stroke-linejoin:round;stroke-miterlimit:4;stroke-dasharray:none;stroke-opacity:1"
           id="path60" /></g><path
         d="m 213.133,317.199 c -3.09,0.504 -5.184,3.418 -4.68,6.508 0.508,3.09 3.422,5.188 6.512,4.684 3.09,-0.508 5.183,-3.422 4.68,-6.512 -0.504,-3.09 -3.422,-5.184 -6.512,-4.68 z"
         style="fill:#f0732b;fill-opacity:1;fill-rule:nonzero;stroke:none"
         id="path62" /><g
         id="g64"><path
           d="M 389.883,176.707 201.504,74.375"
           style="fill:none;stroke:#f0732b;stroke-width:1.72651;stroke-linecap:butt;stroke-linejoin:miter;stroke-miterlimit:4;stroke-dasharray:none;stroke-opacity:1"
           id="path66" /></g><g
         id="g68"
         transform="matrix(-1,-0.543217,0.543217,-1,0,0)"><path
           d="m -179.784,27.091 -10.496,6.069 -0.002,-12.135 z"
           style="fill:#f0732b;fill-opacity:1;fill-rule:evenodd;stroke:#f0732b;stroke-width:1.61826;stroke-linecap:butt;stroke-linejoin:miter;stroke-miterlimit:4;stroke-dasharray:none;stroke-opacity:1"
           id="path70" /></g><path
         d="m 390.176,179.984 c -1.586,0 -2.871,-1.289 -2.871,-2.871 0,-1.586 1.285,-2.871 2.871,-2.871 1.586,0 2.871,1.285 2.871,2.871 0,1.582 -1.285,2.871 -2.871,2.871 z"
         style="fill:#000000;fill-opacity:1;fill-rule:nonzero;stroke:none"
         id="path72" /><g
         id="g74"
         transform="matrix(-0.163782,-0.999888,-1,0.163099,0,0)"><path
           d="m -306.799,-221.174 c 0,2.852 -2.303,5.162 -5.151,5.16 -2.844,0.001 -5.151,-2.309 -5.151,-5.16 0,-2.852 2.307,-5.163 5.151,-5.16 2.848,-0.002 5.151,2.309 5.151,5.16 z"
           style="fill:#1bb62b;fill-opacity:1;fill-rule:nonzero;stroke:#000005;stroke-width:0.450211;stroke-linecap:butt;stroke-linejoin:round;stroke-miterlimit:4;stroke-dasharray:none;stroke-opacity:1"
           id="path76" /></g><path
         d="m 237.008,298.117 c -3.094,0.508 -5.188,3.422 -4.684,6.512 0.508,3.09 3.422,5.183 6.512,4.68 3.09,-0.504 5.184,-3.418 4.68,-6.508 -0.504,-3.094 -3.418,-5.188 -6.508,-4.684 z"
         style="fill:#f0732b;fill-opacity:1;fill-rule:nonzero;stroke:none"
         id="path78" /><path
         d="m 249.422,288.312 c -3.09,0.504 -5.188,3.418 -4.68,6.508 0.504,3.09 3.418,5.188 6.508,4.68 3.09,-0.504 5.188,-3.418 4.68,-6.508 -0.504,-3.09 -3.418,-5.187 -6.508,-4.68 z"
         style="fill:#f0732b;fill-opacity:1;fill-rule:nonzero;stroke:none"
         id="path80" /><path
         d="m 221.664,121.031 c -3.09,0.504 -5.184,3.418 -4.68,6.508 0.508,3.094 3.422,5.188 6.512,4.684 3.09,-0.508 5.184,-3.422 4.68,-6.512 -0.504,-3.09 -3.422,-5.184 -6.512,-4.68 z"
         style="fill:#f0732b;fill-opacity:1;fill-rule:nonzero;stroke:none"
         id="path82" /><path
         d="m 190.242,110.191 c -3.09,0.508 -5.183,3.422 -4.68,6.512 0.504,3.09 3.418,5.184 6.512,4.68 3.09,-0.504 5.184,-3.418 4.68,-6.508 -0.508,-3.094 -3.422,-5.187 -6.512,-4.684 z"
         style="fill:#f0732b;fill-opacity:1;fill-rule:nonzero;stroke:none"
         id="path84" /><path
         d="m 186.523,61.156 c -3.089,0.504 -5.183,3.422 -4.679,6.512 0.504,3.09 3.418,5.184 6.508,4.68 3.093,-0.504 5.187,-3.422 4.683,-6.512 -0.508,-3.09 -3.422,-5.184 -6.512,-4.68 z"
         style="fill:#f0732b;fill-opacity:1;fill-rule:nonzero;stroke:none"
         id="path86" /><path
         d="m 249.301,128.484 c -3.09,0.508 -5.188,3.422 -4.684,6.512 0.508,3.09 3.422,5.184 6.512,4.68 3.09,-0.504 5.183,-3.418 4.68,-6.508 -0.504,-3.094 -3.418,-5.188 -6.508,-4.684 z"
         style="fill:#0073c0;fill-opacity:1;fill-rule:nonzero;stroke:none"
         id="path88" /><path
         d="m 215.641,76.688 c -3.09,0.507 -5.184,3.421 -4.68,6.511 0.508,3.09 3.422,5.184 6.512,4.68 3.089,-0.504 5.183,-3.418 4.679,-6.508 -0.504,-3.09 -3.418,-5.187 -6.511,-4.683 z"
         style="fill:#0073c0;fill-opacity:1;fill-rule:nonzero;stroke:none"
         id="path90" /><g
         id="g92"><g
           id="g94" /><g
           id="g106"><g
             clip-path="url(#clipPath98)"
             opacity="0.8"
             id="g104"><g
               id="g102"><path
                 d="m 411.863,100.277 h 60.984 v 20.805 h -60.984 z"
                 style="fill:#ffffff;fill-opacity:1;fill-rule:nonzero;stroke:none"
                 id="path100" /></g></g></g></g><path
         d="m 418.855,118.09 c -0.152,0.668 -0.214,0.789 -1.066,0.789 -0.211,0 -0.422,0 -0.422,0.367 0,0.149 0.09,0.242 0.242,0.242 0.516,0 1.094,-0.062 1.61,-0.062 0.668,0 1.304,0.062 1.941,0.062 0.094,0 0.336,0 0.336,-0.394 0,-0.215 -0.184,-0.215 -0.457,-0.215 -0.969,0 -0.969,-0.121 -0.969,-0.301 0,-0.246 0.817,-3.402 0.942,-3.89 0.242,0.578 0.789,1.246 1.789,1.246 2.25,0 4.679,-2.825 4.679,-5.68 0,-1.82 -1.125,-3.098 -2.582,-3.098 -0.972,0 -1.914,0.699 -2.55,1.457 -0.184,-1.062 -1.036,-1.457 -1.735,-1.457 -0.91,0 -1.273,0.758 -1.425,1.094 -0.364,0.668 -0.606,1.824 -0.606,1.883 0,0.211 0.18,0.211 0.211,0.211 0.211,0 0.211,-0.028 0.332,-0.453 0.336,-1.368 0.73,-2.309 1.43,-2.309 0.332,0 0.605,0.152 0.605,0.879 0,0.457 -0.058,0.668 -0.148,1.004 z m 3.399,-8.414 c 0.121,-0.516 0.668,-1.063 1.004,-1.364 0.699,-0.578 1.246,-0.73 1.578,-0.73 0.762,0 1.246,0.668 1.246,1.82 0,1.157 -0.637,3.375 -1.004,4.102 -0.668,1.367 -1.578,2.004 -2.305,2.004 -1.277,0 -1.519,-1.61 -1.519,-1.731 0,-0.031 0,-0.058 0.058,-0.304 z"
         style="fill:#000000;fill-opacity:1;fill-rule:nonzero;stroke:none"
         id="path108" /><path
         d="m 446.398,109.375 c 0.305,0 0.668,0 0.668,-0.367 0,-0.395 -0.363,-0.395 -0.636,-0.395 h -11.602 c -0.273,0 -0.64,0 -0.64,0.395 0,0.367 0.367,0.367 0.64,0.367 z m 0.032,3.766 c 0.273,0 0.636,0 0.636,-0.395 0,-0.367 -0.363,-0.367 -0.668,-0.367 h -11.57 c -0.273,0 -0.64,0 -0.64,0.367 0,0.395 0.367,0.395 0.64,0.395 z"
         style="fill:#000000;fill-opacity:1;fill-rule:nonzero;stroke:none"
         id="path110" /><path
         d="m 468.176,104.516 c 0.211,-0.762 0.547,-1.368 2.094,-1.43 0.093,0 0.335,-0.031 0.335,-0.395 0,0 0,-0.211 -0.242,-0.211 -0.64,0 -1.34,0.059 -1.976,0.059 -0.637,0 -1.336,-0.059 -1.973,-0.059 -0.121,0 -0.336,0 -0.336,0.395 0,0.211 0.184,0.211 0.336,0.211 1.121,0.031 1.336,0.426 1.336,0.852 0,0.062 -0.062,0.363 -0.062,0.394 l -2.184,8.625 -4.285,-10.113 c -0.153,-0.332 -0.153,-0.364 -0.606,-0.364 H 458 c -0.363,0 -0.547,0 -0.547,0.395 0,0.211 0.184,0.211 0.547,0.211 0.09,0 1.305,0 1.305,0.184 l -2.578,10.386 c -0.215,0.789 -0.547,1.399 -2.098,1.457 -0.121,0 -0.332,0.032 -0.332,0.395 0,0.121 0.09,0.215 0.242,0.215 0.637,0 1.305,-0.063 1.941,-0.063 0.668,0 1.368,0.063 2.004,0.063 0.094,0 0.336,0 0.336,-0.395 0,-0.183 -0.183,-0.215 -0.394,-0.215 -1.125,-0.031 -1.278,-0.453 -1.278,-0.851 0,-0.121 0.032,-0.242 0.094,-0.453 l 2.551,-10.207 c 0.09,0.093 0.09,0.152 0.18,0.336 l 4.832,11.417 c 0.121,0.336 0.179,0.368 0.363,0.368 0.211,0 0.211,-0.063 0.305,-0.395 z"
         style="fill:#000000;fill-opacity:1;fill-rule:nonzero;stroke:none"
         id="path112" /><g
         id="g114"><g
           id="g116" /><g
           id="g128"><g
             clip-path="url(#clipPath120)"
             opacity="0.8"
             id="g126"><g
               id="g124"><path
                 d="m 421.473,67.242 h 89.352 v 20.805 h -89.352 z"
                 style="fill:#ffffff;fill-opacity:1;fill-rule:nonzero;stroke:none"
                 id="path122" /></g></g></g></g><path
         d="m 425.43,84.754 c -0.153,0.668 -0.211,0.789 -1.063,0.789 -0.211,0 -0.426,0 -0.426,0.363 0,0.153 0.09,0.242 0.243,0.242 0.519,0 1.093,-0.058 1.609,-0.058 0.668,0 1.309,0.058 1.945,0.058 0.09,0 0.336,0 0.336,-0.394 0,-0.211 -0.183,-0.211 -0.457,-0.211 -0.972,0 -0.972,-0.121 -0.972,-0.305 0,-0.242 0.82,-3.402 0.941,-3.886 0.242,0.574 0.789,1.246 1.793,1.246 2.246,0 4.676,-2.828 4.676,-5.68 0,-1.824 -1.121,-3.098 -2.582,-3.098 -0.969,0 -1.911,0.696 -2.551,1.457 -0.18,-1.062 -1.031,-1.457 -1.731,-1.457 -0.91,0 -1.273,0.758 -1.425,1.09 -0.368,0.668 -0.61,1.824 -0.61,1.883 0,0.215 0.184,0.215 0.215,0.215 0.211,0 0.211,-0.031 0.332,-0.457 0.336,-1.367 0.731,-2.309 1.43,-2.309 0.332,0 0.605,0.153 0.605,0.883 0,0.453 -0.062,0.668 -0.152,1 z m 3.402,-8.414 c 0.121,-0.516 0.668,-1.063 1,-1.367 0.699,-0.578 1.246,-0.731 1.582,-0.731 0.758,0 1.246,0.668 1.246,1.824 0,1.153 -0.64,3.372 -1.004,4.102 -0.668,1.363 -1.578,2.004 -2.308,2.004 -1.274,0 -1.52,-1.61 -1.52,-1.731 0,-0.031 0,-0.062 0.063,-0.304 z"
         style="fill:#000000;fill-opacity:1;fill-rule:nonzero;stroke:none"
         id="path130" /><path
         d="m 452.973,76.035 c 0.304,0 0.668,0 0.668,-0.363 0,-0.395 -0.364,-0.395 -0.637,-0.395 h -11.602 c -0.273,0 -0.636,0 -0.636,0.395 0,0.363 0.363,0.363 0.636,0.363 z m 0.031,3.766 c 0.273,0 0.637,0 0.637,-0.395 0,-0.363 -0.364,-0.363 -0.668,-0.363 h -11.571 c -0.273,0 -0.636,0 -0.636,0.363 0,0.395 0.363,0.395 0.636,0.395 z"
         style="fill:#000000;fill-opacity:1;fill-rule:nonzero;stroke:none"
         id="path132" /><path
         d="m 474.75,71.176 c 0.215,-0.758 0.547,-1.367 2.098,-1.426 0.09,0 0.332,-0.031 0.332,-0.395 0,0 0,-0.214 -0.242,-0.214 -0.637,0 -1.336,0.062 -1.973,0.062 -0.641,0 -1.336,-0.062 -1.977,-0.062 -0.121,0 -0.332,0 -0.332,0.394 0,0.215 0.18,0.215 0.332,0.215 1.125,0.027 1.336,0.426 1.336,0.848 0,0.062 -0.058,0.367 -0.058,0.394 l -2.188,8.629 -4.281,-10.117 c -0.152,-0.332 -0.152,-0.363 -0.609,-0.363 h -2.61 c -0.367,0 -0.547,0 -0.547,0.394 0,0.215 0.18,0.215 0.547,0.215 0.09,0 1.305,0 1.305,0.18 l -2.582,10.386 c -0.211,0.793 -0.547,1.399 -2.094,1.461 -0.121,0 -0.336,0.028 -0.336,0.395 0,0.121 0.09,0.211 0.242,0.211 0.641,0 1.309,-0.059 1.946,-0.059 0.668,0 1.367,0.059 2.003,0.059 0.09,0 0.336,0 0.336,-0.395 0,-0.183 -0.183,-0.211 -0.394,-0.211 -1.125,-0.031 -1.277,-0.457 -1.277,-0.851 0,-0.121 0.031,-0.242 0.089,-0.457 l 2.551,-10.203 c 0.094,0.089 0.094,0.152 0.184,0.332 l 4.828,11.422 c 0.121,0.332 0.183,0.363 0.367,0.363 0.211,0 0.211,-0.059 0.301,-0.395 z"
         style="fill:#000000;fill-opacity:1;fill-rule:nonzero;stroke:none"
         id="path134" /><path
         d="m 494.844,77.918 c 0.332,0 0.695,0 0.695,-0.395 0,-0.363 -0.363,-0.363 -0.695,-0.363 h -10.481 c -0.332,0 -0.668,0 -0.668,0.363 0,0.395 0.336,0.395 0.668,0.395 z"
         style="fill:#000000;fill-opacity:1;fill-rule:nonzero;stroke:none"
         id="path136" /><path
         d="m 507.16,69.992 c 0,-0.488 0,-0.515 -0.457,-0.515 -1.215,1.242 -2.914,1.242 -3.523,1.242 v 0.609 c 0.398,0 1.519,0 2.523,-0.516 v 10.051 c 0,0.699 -0.062,0.914 -1.793,0.914 h -0.605 v 0.606 c 0.668,-0.059 2.336,-0.059 3.125,-0.059 0.761,0 2.461,0 3.129,0.059 v -0.606 h -0.606 c -1.762,0 -1.793,-0.215 -1.793,-0.914 z"
         style="fill:#000000;fill-opacity:1;fill-rule:nonzero;stroke:none"
         id="path138" /><g
         id="g140"><g
           id="g142" /><g
           id="g154"><g
             clip-path="url(#clipPath146)"
             opacity="0.8"
             id="g152"><g
               id="g150"><path
                 d="m 453.801,37.758 h 89.633 v 20.805 h -89.633 z"
                 style="fill:#ffffff;fill-opacity:1;fill-rule:nonzero;stroke:none"
                 id="path148" /></g></g></g></g><path
         d="m 456.344,55.266 c -0.149,0.672 -0.211,0.793 -1.063,0.793 -0.211,0 -0.426,0 -0.426,0.363 0,0.152 0.094,0.242 0.247,0.242 0.515,0 1.093,-0.059 1.609,-0.059 0.668,0 1.305,0.059 1.941,0.059 0.094,0 0.336,0 0.336,-0.394 0,-0.211 -0.183,-0.211 -0.457,-0.211 -0.972,0 -0.972,-0.121 -0.972,-0.305 0,-0.242 0.82,-3.402 0.941,-3.887 0.246,0.574 0.793,1.242 1.793,1.242 2.25,0 4.68,-2.824 4.68,-5.675 0,-1.825 -1.125,-3.102 -2.582,-3.102 -0.973,0 -1.914,0.699 -2.551,1.461 -0.184,-1.063 -1.035,-1.461 -1.735,-1.461 -0.91,0 -1.273,0.762 -1.425,1.094 -0.364,0.668 -0.61,1.824 -0.61,1.883 0,0.214 0.184,0.214 0.215,0.214 0.211,0 0.211,-0.031 0.332,-0.457 0.336,-1.367 0.731,-2.308 1.43,-2.308 0.332,0 0.605,0.152 0.605,0.883 0,0.453 -0.058,0.668 -0.152,1 z m 3.402,-8.411 c 0.121,-0.515 0.668,-1.062 1.004,-1.367 0.699,-0.578 1.246,-0.73 1.578,-0.73 0.762,0 1.246,0.668 1.246,1.824 0,1.152 -0.636,3.371 -1.004,4.098 -0.668,1.367 -1.578,2.008 -2.308,2.008 -1.274,0 -1.516,-1.61 -1.516,-1.735 0,-0.027 0,-0.058 0.059,-0.301 z"
         style="fill:#000000;fill-opacity:1;fill-rule:nonzero;stroke:none"
         id="path156" /><path
         d="m 483.891,46.551 c 0.304,0 0.668,0 0.668,-0.363 0,-0.395 -0.364,-0.395 -0.637,-0.395 H 472.32 c -0.273,0 -0.64,0 -0.64,0.395 0,0.363 0.367,0.363 0.64,0.363 z m 0.031,3.765 c 0.273,0 0.637,0 0.637,-0.394 0,-0.363 -0.364,-0.363 -0.668,-0.363 H 472.32 c -0.273,0 -0.64,0 -0.64,0.363 0,0.394 0.367,0.394 0.64,0.394 z"
         style="fill:#000000;fill-opacity:1;fill-rule:nonzero;stroke:none"
         id="path158" /><path
         d="m 505.668,41.691 c 0.211,-0.757 0.547,-1.367 2.094,-1.425 0.09,0 0.336,-0.032 0.336,-0.395 0,0 0,-0.215 -0.246,-0.215 -0.637,0 -1.336,0.063 -1.973,0.063 -0.637,0 -1.336,-0.063 -1.973,-0.063 -0.121,0 -0.336,0 -0.336,0.395 0,0.215 0.184,0.215 0.336,0.215 1.121,0.027 1.336,0.422 1.336,0.847 0,0.063 -0.062,0.367 -0.062,0.395 l -2.188,8.625 -4.281,-10.113 c -0.152,-0.332 -0.152,-0.364 -0.606,-0.364 h -2.613 c -0.363,0 -0.547,0 -0.547,0.395 0,0.215 0.184,0.215 0.547,0.215 0.09,0 1.305,0 1.305,0.179 l -2.582,10.387 c -0.211,0.789 -0.543,1.398 -2.094,1.461 -0.121,0 -0.336,0.027 -0.336,0.395 0,0.121 0.094,0.21 0.246,0.21 0.637,0 1.305,-0.062 1.942,-0.062 0.668,0 1.367,0.062 2.004,0.062 0.093,0 0.335,0 0.335,-0.394 0,-0.184 -0.183,-0.211 -0.394,-0.211 -1.125,-0.031 -1.277,-0.457 -1.277,-0.852 0,-0.121 0.031,-0.242 0.093,-0.457 l 2.551,-10.203 c 0.09,0.09 0.09,0.153 0.18,0.332 l 4.832,11.422 c 0.121,0.332 0.18,0.363 0.363,0.363 0.211,0 0.211,-0.062 0.305,-0.394 z"
         style="fill:#000000;fill-opacity:1;fill-rule:nonzero;stroke:none"
         id="path160" /><path
         d="m 525.758,48.434 c 0.336,0 0.699,0 0.699,-0.395 0,-0.363 -0.363,-0.363 -0.699,-0.363 h -10.477 c -0.336,0 -0.668,0 -0.668,0.363 0,0.395 0.332,0.395 0.668,0.395 z"
         style="fill:#000000;fill-opacity:1;fill-rule:nonzero;stroke:none"
         id="path162" /><path
         d="m 534.824,51.41 2.067,-2.004 c 3.007,-2.672 4.16,-3.707 4.16,-5.648 0,-2.219 -1.731,-3.766 -4.098,-3.766 -2.187,0 -3.617,1.789 -3.617,3.524 0,1.062 0.973,1.062 1.035,1.062 0.332,0 1,-0.215 1,-1.035 0,-0.484 -0.363,-1 -1.031,-1 -0.152,0 -0.184,0 -0.242,0.027 0.425,-1.273 1.488,-1.972 2.609,-1.972 1.762,0 2.582,1.578 2.582,3.16 0,1.547 -0.941,3.066 -2.035,4.281 l -3.703,4.129 c -0.215,0.215 -0.215,0.273 -0.215,0.73 h 7.199 l 0.516,-3.371 h -0.453 c -0.121,0.578 -0.246,1.426 -0.457,1.731 -0.121,0.152 -1.399,0.152 -1.821,0.152 z"
         style="fill:#000000;fill-opacity:1;fill-rule:nonzero;stroke:none"
         id="path164" /><g
         id="g166"><g
           id="g168" /><g
           id="g180"><g
             clip-path="url(#clipPath172)"
             opacity="0.8"
             id="g178"><g
               id="g176"><path
                 d="m 470.91,6.863 h 88.109 V 27.672 H 470.91 Z"
                 style="fill:#ffffff;fill-opacity:1;fill-rule:nonzero;stroke:none"
                 id="path174" /></g></g></g></g><path
         d="m 473.418,24.375 c -0.152,0.668 -0.215,0.789 -1.063,0.789 -0.214,0 -0.425,0 -0.425,0.363 0,0.153 0.09,0.243 0.242,0.243 0.516,0 1.094,-0.059 1.609,-0.059 0.668,0 1.305,0.059 1.946,0.059 0.089,0 0.332,0 0.332,-0.395 0,-0.211 -0.184,-0.211 -0.457,-0.211 -0.969,0 -0.969,-0.121 -0.969,-0.305 0,-0.242 0.82,-3.402 0.941,-3.886 0.242,0.578 0.789,1.246 1.789,1.246 2.25,0 4.68,-2.824 4.68,-5.68 0,-1.824 -1.125,-3.098 -2.582,-3.098 -0.973,0 -1.914,0.7 -2.551,1.457 -0.183,-1.062 -1.035,-1.457 -1.73,-1.457 -0.914,0 -1.278,0.758 -1.43,1.094 -0.363,0.668 -0.605,1.82 -0.605,1.883 0,0.211 0.179,0.211 0.21,0.211 0.215,0 0.215,-0.031 0.336,-0.453 0.332,-1.367 0.727,-2.309 1.426,-2.309 0.336,0 0.61,0.153 0.61,0.879 0,0.457 -0.063,0.668 -0.153,1.004 z m 3.398,-8.414 c 0.125,-0.516 0.672,-1.063 1.004,-1.367 0.7,-0.574 1.246,-0.727 1.578,-0.727 0.762,0 1.247,0.668 1.247,1.821 0,1.156 -0.637,3.371 -1,4.101 -0.668,1.367 -1.583,2.004 -2.309,2.004 -1.277,0 -1.52,-1.609 -1.52,-1.731 0,-0.031 0,-0.062 0.059,-0.304 z"
         style="fill:#000000;fill-opacity:1;fill-rule:nonzero;stroke:none"
         id="path182" /><path
         d="m 500.961,15.656 c 0.305,0 0.668,0 0.668,-0.363 0,-0.395 -0.363,-0.395 -0.637,-0.395 h -11.601 c -0.274,0 -0.641,0 -0.641,0.395 0,0.363 0.367,0.363 0.641,0.363 z m 0.031,3.766 c 0.274,0 0.637,0 0.637,-0.395 0,-0.363 -0.363,-0.363 -0.668,-0.363 h -11.57 c -0.274,0 -0.641,0 -0.641,0.363 0,0.395 0.367,0.395 0.641,0.395 z"
         style="fill:#000000;fill-opacity:1;fill-rule:nonzero;stroke:none"
         id="path184" /><path
         d="m 522.738,10.797 c 0.211,-0.758 0.547,-1.367 2.094,-1.426 0.094,0 0.336,-0.031 0.336,-0.394 0,0 0,-0.215 -0.242,-0.215 -0.641,0 -1.336,0.062 -1.977,0.062 -0.637,0 -1.336,-0.062 -1.972,-0.062 -0.122,0 -0.336,0 -0.336,0.398 0,0.211 0.183,0.211 0.336,0.211 1.125,0.031 1.335,0.426 1.335,0.852 0,0.058 -0.062,0.363 -0.062,0.394 l -2.184,8.625 -4.285,-10.113 c -0.148,-0.336 -0.148,-0.367 -0.605,-0.367 h -2.614 c -0.363,0 -0.546,0 -0.546,0.398 0,0.211 0.183,0.211 0.546,0.211 0.094,0 1.309,0 1.309,0.184 l -2.582,10.386 c -0.215,0.789 -0.547,1.395 -2.098,1.457 -0.121,0 -0.332,0.032 -0.332,0.395 0,0.121 0.09,0.211 0.243,0.211 0.636,0 1.304,-0.059 1.945,-0.059 0.668,0 1.363,0.059 2.004,0.059 0.09,0 0.332,0 0.332,-0.395 0,-0.179 -0.18,-0.211 -0.395,-0.211 -1.125,-0.031 -1.273,-0.457 -1.273,-0.851 0,-0.121 0.027,-0.242 0.09,-0.453 l 2.55,-10.207 c 0.09,0.09 0.09,0.152 0.184,0.336 l 4.828,11.418 c 0.121,0.336 0.184,0.363 0.363,0.363 0.215,0 0.215,-0.059 0.305,-0.395 z"
         style="fill:#000000;fill-opacity:1;fill-rule:nonzero;stroke:none"
         id="path186" /><path
         d="m 542.828,17.539 c 0.336,0 0.699,0 0.699,-0.394 0,-0.364 -0.363,-0.364 -0.699,-0.364 h -10.476 c -0.336,0 -0.668,0 -0.668,0.364 0,0.394 0.332,0.394 0.668,0.394 z"
         style="fill:#000000;fill-opacity:1;fill-rule:nonzero;stroke:none"
         id="path188" /><path
         d="m 555.055,15.172 c 1.582,-0.516 2.703,-1.852 2.703,-3.402 0,-1.579 -1.699,-2.672 -3.551,-2.672 -1.945,0 -3.434,1.152 -3.434,2.64 0,0.641 0.426,1.004 1.004,1.004 0.575,0 0.969,-0.426 0.969,-1.004 0,-0.941 -0.91,-0.941 -1.184,-0.941 0.579,-0.969 1.852,-1.215 2.551,-1.215 0.821,0 1.883,0.426 1.883,2.156 0,0.246 -0.058,1.367 -0.547,2.219 -0.574,0.941 -1.242,1.004 -1.73,1.004 -0.153,0.027 -0.606,0.059 -0.758,0.059 -0.152,0.031 -0.273,0.062 -0.273,0.242 0,0.215 0.121,0.215 0.453,0.215 h 0.851 c 1.578,0 2.309,1.304 2.309,3.218 0,2.641 -1.336,3.188 -2.188,3.188 -0.851,0 -2.308,-0.332 -2.976,-1.457 0.668,0.09 1.277,-0.332 1.277,-1.063 0,-0.699 -0.516,-1.093 -1.062,-1.093 -0.489,0 -1.094,0.273 -1.094,1.125 0,1.761 1.789,3.035 3.918,3.035 2.367,0 4.129,-1.762 4.129,-3.735 0,-1.578 -1.246,-3.097 -3.25,-3.523 z"
         style="fill:#000000;fill-opacity:1;fill-rule:nonzero;stroke:none"
         id="path190" /><g
         id="g192"><g
           id="g194" /><g
           id="g206"><g
             clip-path="url(#clipPath198)"
             opacity="0.8"
             id="g204"><g
               id="g202"><path
                 d="M 38.496,54.195 H 180.574 V 75 H 38.496 Z"
                 style="fill:#ffffff;fill-opacity:1;fill-rule:nonzero;stroke:none"
                 id="path200" /></g></g></g></g><path
         d="m 52.102,57.055 c 0,-0.055 -0.051,-0.188 -0.211,-0.188 -0.082,0 -0.082,0.028 -0.293,0.266 l -0.825,0.957 c -0.425,-0.797 -1.304,-1.223 -2.421,-1.223 -2.157,0 -4.18,1.969 -4.18,4.02 0,1.355 0.879,2.156 1.758,2.394 l 1.808,0.481 c 0.637,0.16 1.571,0.426 1.571,1.808 0,1.516 -1.383,3.114 -3.063,3.114 -1.09,0 -2.98,-0.372 -2.98,-2.473 0,-0.402 0.105,-0.828 0.105,-0.906 0.027,-0.082 0.027,-0.106 0.027,-0.133 0,-0.16 -0.105,-0.188 -0.183,-0.188 -0.082,0 -0.137,0.028 -0.188,0.082 -0.054,0.051 -1.011,3.938 -1.011,3.993 0,0.078 0.078,0.156 0.187,0.156 0.078,0 0.106,-0.024 0.317,-0.266 l 0.828,-0.957 c 0.718,0.985 1.886,1.223 2.871,1.223 2.316,0 4.312,-2.262 4.312,-4.363 0,-1.172 -0.586,-1.758 -0.824,-1.997 -0.398,-0.371 -0.664,-0.453 -2.156,-0.824 -0.399,-0.105 -0.985,-0.293 -1.145,-0.32 -0.453,-0.16 -1.039,-0.641 -1.039,-1.543 0,-1.387 1.36,-2.82 2.985,-2.82 1.382,0 2.421,0.742 2.421,2.632 0,0.532 -0.054,0.852 -0.054,0.958 0,0 0,0.16 0.187,0.16 0.184,0 0.211,-0.051 0.266,-0.344 z"
         style="fill:#000000;fill-opacity:1;fill-rule:nonzero;stroke:none"
         id="path208" /><path
         d="m 61.445,64.574 c 0.106,-0.453 0.321,-0.851 1.25,-0.879 0.055,0 0.239,0 0.239,-0.238 0,-0.078 -0.051,-0.187 -0.184,-0.187 -0.375,0 -0.828,0.054 -1.227,0.054 -0.293,0 -0.957,-0.054 -1.25,-0.054 -0.054,0 -0.238,0 -0.238,0.269 0,0.156 0.16,0.156 0.266,0.156 0.558,0.028 0.746,0.215 0.746,0.508 0,0.078 0,0.16 -0.055,0.266 L 59.715,69.66 56.707,63.484 C 56.602,63.27 56.574,63.27 56.281,63.27 h -1.625 c -0.211,0 -0.371,0 -0.371,0.269 0,0.156 0.133,0.156 0.399,0.156 0.238,0 0.507,0.028 0.746,0.082 l -1.571,6.336 c -0.105,0.449 -0.32,0.825 -1.25,0.852 -0.082,0 -0.242,0 -0.242,0.238 0,0.133 0.082,0.188 0.16,0.188 0.399,0 0.852,-0.055 1.25,-0.055 0.293,0 0.961,0.055 1.254,0.055 0.133,0 0.239,-0.055 0.239,-0.243 0,-0.183 -0.133,-0.183 -0.266,-0.183 -0.746,-0.027 -0.746,-0.348 -0.746,-0.508 0,-0.051 0,-0.105 0.027,-0.293 l 1.543,-6.066 3.461,7.078 c 0.078,0.215 0.133,0.215 0.266,0.215 0.187,0 0.187,-0.028 0.238,-0.243 z"
         style="fill:#000000;fill-opacity:1;fill-rule:nonzero;stroke:none"
         id="path210" /><path
         d="m 72.406,68.699 c 0.184,0 0.477,0 0.477,-0.265 0,-0.317 -0.293,-0.317 -0.477,-0.317 h -7.082 c -0.187,0 -0.48,0 -0.48,0.289 0,0.293 0.269,0.293 0.48,0.293 z"
         style="fill:#000000;fill-opacity:1;fill-rule:nonzero;stroke:none"
         id="path212" /><path
         d="m 77.422,67.422 c 0.93,0 1.598,0.64 1.598,1.918 0,1.465 -0.879,1.918 -1.547,1.918 -0.477,0 -1.543,-0.137 -2.024,-0.852 0.563,0 0.696,-0.402 0.696,-0.668 0,-0.371 -0.293,-0.636 -0.668,-0.636 -0.317,0 -0.665,0.21 -0.665,0.691 0,1.117 1.223,1.836 2.661,1.836 1.652,0 2.797,-1.117 2.797,-2.289 0,-0.934 -0.747,-1.863 -2.051,-2.129 1.226,-0.453 1.676,-1.332 1.676,-2.078 0,-0.93 -1.063,-1.621 -2.395,-1.621 -1.305,0 -2.316,0.636 -2.316,1.597 0,0.399 0.265,0.61 0.613,0.61 0.371,0 0.613,-0.266 0.613,-0.586 0,-0.344 -0.242,-0.61 -0.613,-0.637 0.426,-0.508 1.226,-0.641 1.676,-0.641 0.535,0 1.277,0.266 1.277,1.278 0,0.508 -0.156,1.066 -0.477,1.414 -0.375,0.449 -0.718,0.476 -1.304,0.531 -0.293,0.027 -0.321,0.027 -0.375,0.027 -0.024,0 -0.133,0.024 -0.133,0.157 0,0.16 0.109,0.16 0.32,0.16 z"
         style="fill:#000000;fill-opacity:1;fill-rule:nonzero;stroke:none"
         id="path214" /><path
         d="m 83.277,67.832 c -0.05,0.266 -0.16,0.668 -0.16,0.746 0,0.293 0.242,0.453 0.508,0.453 0.211,0 0.504,-0.133 0.637,-0.48 0.027,-0.051 0.586,-2.367 0.668,-2.688 0.132,-0.558 0.453,-1.73 0.531,-2.211 0.078,-0.211 0.559,-1.011 0.957,-1.382 0.133,-0.106 0.641,-0.559 1.359,-0.559 0.453,0 0.692,0.215 0.719,0.215 -0.508,0.078 -0.879,0.476 -0.879,0.929 0,0.266 0.188,0.586 0.637,0.586 0.453,0 0.934,-0.398 0.934,-1.011 0,-0.586 -0.532,-1.09 -1.411,-1.09 -1.093,0 -1.836,0.824 -2.156,1.301 -0.16,-0.77 -0.773,-1.301 -1.57,-1.301 -0.774,0 -1.09,0.664 -1.25,0.957 -0.293,0.586 -0.508,1.598 -0.508,1.648 0,0.188 0.16,0.188 0.187,0.188 0.188,0 0.188,-0.028 0.293,-0.399 0.293,-1.199 0.637,-2.023 1.25,-2.023 0.266,0 0.508,0.133 0.508,0.773 0,0.371 -0.054,0.559 -0.269,1.438 z"
         style="fill:#000000;fill-opacity:1;fill-rule:nonzero;stroke:none"
         id="path216" /><path
         d="m 95.531,72.918 c 0,-0.055 0,-0.082 -0.293,-0.375 -2.101,-2.129 -2.66,-5.348 -2.66,-7.957 0,-2.953 0.637,-5.91 2.738,-8.012 0.215,-0.215 0.215,-0.238 0.215,-0.293 0,-0.133 -0.054,-0.187 -0.16,-0.187 -0.187,0 -1.703,1.172 -2.715,3.328 -0.851,1.863 -1.062,3.754 -1.062,5.164 0,1.332 0.183,3.379 1.117,5.324 1.035,2.074 2.473,3.192 2.66,3.192 0.106,0 0.16,-0.051 0.16,-0.184 z"
         style="fill:#000000;fill-opacity:1;fill-rule:nonzero;stroke:none"
         id="path218" /><path
         d="m 109.344,59.023 c 0.187,-0.668 0.48,-1.199 1.836,-1.25 0.082,0 0.293,-0.027 0.293,-0.347 0,0 0,-0.188 -0.211,-0.188 -0.563,0 -1.172,0.055 -1.731,0.055 -0.558,0 -1.172,-0.055 -1.73,-0.055 -0.11,0 -0.293,0 -0.293,0.348 0,0.187 0.16,0.187 0.293,0.187 0.984,0.024 1.172,0.372 1.172,0.743 0,0.054 -0.055,0.32 -0.055,0.347 L 107,66.422 103.25,57.559 c -0.137,-0.293 -0.137,-0.321 -0.535,-0.321 h -2.289 c -0.317,0 -0.477,0 -0.477,0.348 0,0.187 0.16,0.187 0.477,0.187 0.082,0 1.144,0 1.144,0.157 l -2.261,9.105 c -0.188,0.692 -0.481,1.223 -1.836,1.277 -0.106,0 -0.293,0.028 -0.293,0.344 0,0.11 0.078,0.188 0.215,0.188 0.558,0 1.144,-0.055 1.703,-0.055 0.586,0 1.195,0.055 1.754,0.055 0.082,0 0.293,0 0.293,-0.344 0,-0.16 -0.161,-0.188 -0.344,-0.188 -0.985,-0.027 -1.117,-0.398 -1.117,-0.746 0,-0.105 0.023,-0.211 0.078,-0.398 l 2.234,-8.945 c 0.082,0.082 0.082,0.132 0.16,0.293 l 4.235,10.007 c 0.105,0.293 0.156,0.321 0.316,0.321 0.188,0 0.188,-0.055 0.266,-0.344 z"
         style="fill:#000000;fill-opacity:1;fill-rule:nonzero;stroke:none"
         id="path220" /><path
         d="m 126.949,64.93 c 0.293,0 0.613,0 0.613,-0.344 0,-0.32 -0.32,-0.32 -0.613,-0.32 h -9.179 c -0.293,0 -0.586,0 -0.586,0.32 0,0.344 0.293,0.344 0.586,0.344 z"
         style="fill:#000000;fill-opacity:1;fill-rule:nonzero;stroke:none"
         id="path222" /><path
         d="m 137.668,62.855 c 1.383,-0.453 2.367,-1.625 2.367,-2.98 0,-1.383 -1.488,-2.344 -3.113,-2.344 -1.703,0 -3.008,1.012 -3.008,2.317 0,0.558 0.371,0.879 0.879,0.879 0.504,0 0.852,-0.372 0.852,-0.879 0,-0.825 -0.797,-0.825 -1.04,-0.825 0.508,-0.851 1.625,-1.066 2.239,-1.066 0.718,0 1.648,0.375 1.648,1.891 0,0.214 -0.054,1.199 -0.48,1.941 -0.504,0.828 -1.09,0.879 -1.516,0.879 -0.133,0.027 -0.531,0.055 -0.664,0.055 -0.133,0.027 -0.242,0.054 -0.242,0.211 0,0.187 0.109,0.187 0.402,0.187 h 0.742 c 1.387,0 2.024,1.145 2.024,2.82 0,2.317 -1.172,2.797 -1.914,2.797 -0.746,0 -2.024,-0.293 -2.61,-1.277 0.586,0.078 1.118,-0.293 1.118,-0.934 0,-0.609 -0.454,-0.957 -0.93,-0.957 -0.426,0 -0.961,0.239 -0.961,0.985 0,1.543 1.57,2.66 3.434,2.66 2.078,0 3.621,-1.543 3.621,-3.274 0,-1.382 -1.09,-2.714 -2.848,-3.086 z"
         style="fill:#000000;fill-opacity:1;fill-rule:nonzero;stroke:none"
         id="path224" /><path
         d="m 144.688,68.816 c 0,-1.117 -0.426,-1.781 -1.09,-1.781 -0.559,0 -0.907,0.426 -0.907,0.903 0,0.453 0.348,0.906 0.907,0.906 0.187,0 0.425,-0.078 0.586,-0.211 0.05,-0.055 0.078,-0.055 0.078,-0.055 0.027,0 0.027,0 0.027,0.238 0,1.278 -0.586,2.289 -1.144,2.848 -0.188,0.188 -0.188,0.215 -0.188,0.27 0,0.132 0.082,0.183 0.16,0.183 0.188,0 1.571,-1.305 1.571,-3.301 z"
         style="fill:#000000;fill-opacity:1;fill-rule:nonzero;stroke:none"
         id="path226" /><path
         d="m 156.496,60.355 c 0,-1.121 -0.293,-3.488 -2.023,-3.488 -2.368,0 -4.977,4.789 -4.977,8.676 0,1.598 0.477,3.488 2.024,3.488 2.394,0 4.976,-4.871 4.976,-8.676 z m -5.219,2.313 c 0.293,-1.063 0.641,-2.422 1.332,-3.645 0.453,-0.824 1.067,-1.785 1.836,-1.785 0.825,0 0.934,1.094 0.934,2.051 0,0.852 -0.133,1.703 -0.535,3.379 z m 3.411,0.559 c -0.188,0.773 -0.536,2.211 -1.2,3.433 -0.586,1.172 -1.226,1.996 -1.968,1.996 -0.559,0 -0.907,-0.504 -0.907,-2.074 0,-0.719 0.106,-1.703 0.532,-3.355 z"
         style="fill:#000000;fill-opacity:1;fill-rule:nonzero;stroke:none"
         id="path228" /><path
         d="m 160.66,68.816 c 0,-1.117 -0.426,-1.781 -1.09,-1.781 -0.558,0 -0.906,0.426 -0.906,0.903 0,0.453 0.348,0.906 0.906,0.906 0.188,0 0.426,-0.078 0.586,-0.211 0.051,-0.055 0.078,-0.055 0.078,-0.055 0.028,0 0.028,0 0.028,0.238 0,1.278 -0.586,2.289 -1.145,2.848 -0.187,0.188 -0.187,0.215 -0.187,0.27 0,0.132 0.082,0.183 0.16,0.183 0.187,0 1.57,-1.305 1.57,-3.301 z"
         style="fill:#000000;fill-opacity:1;fill-rule:nonzero;stroke:none"
         id="path230" /><path
         d="m 172.176,57.48 c 0,-0.054 0.054,-0.242 0.054,-0.242 0,-0.027 0,-0.183 -0.214,-0.183 -0.161,0 -0.188,0.05 -0.266,0.343 l -0.984,3.914 c -2.688,0.106 -5.192,2.34 -5.192,4.657 0,1.625 1.199,2.957 3.274,3.09 -0.133,0.503 -0.266,1.062 -0.399,1.593 -0.211,0.801 -0.371,1.438 -0.371,1.493 0,0.16 0.133,0.187 0.211,0.187 0.082,0 0.106,-0.027 0.16,-0.082 0.028,-0.027 0.133,-0.426 0.188,-0.664 l 0.636,-2.527 c 2.743,-0.11 5.219,-2.399 5.219,-4.661 0,-1.355 -0.906,-2.902 -3.273,-3.086 z m -3.246,11.204 c -1.012,-0.051 -2.239,-0.664 -2.239,-2.34 0,-2.051 1.465,-4.418 3.993,-4.66 z m 2.179,-7 c 1.305,0.082 2.266,0.851 2.266,2.343 0,2.024 -1.465,4.446 -3.992,4.657 z"
         style="fill:#000000;fill-opacity:1;fill-rule:nonzero;stroke:none"
         id="path232" /><path
         d="m 179.762,64.586 c 0,-1.305 -0.188,-3.356 -1.121,-5.297 -1.012,-2.078 -2.473,-3.195 -2.633,-3.195 -0.106,0 -0.188,0.082 -0.188,0.187 0,0.055 0,0.078 0.321,0.399 1.675,1.675 2.632,4.367 2.632,7.906 0,2.926 -0.609,5.91 -2.714,8.039 -0.239,0.211 -0.239,0.238 -0.239,0.293 0,0.105 0.082,0.184 0.188,0.184 0.16,0 1.703,-1.168 2.687,-3.325 0.879,-1.863 1.067,-3.754 1.067,-5.191 z"
         style="fill:#000000;fill-opacity:1;fill-rule:nonzero;stroke:none"
         id="path234" /><path
         d="m 321.121,256.449 c -0.769,0.235 -1.141,0.938 -1.141,1.473 0,0.469 0.336,1.004 1.04,1.004 0.769,0 1.539,-0.637 1.539,-1.676 0,-1.137 -1.106,-1.871 -2.411,-1.871 -1.238,0 -2.007,0.902 -2.308,1.305 -0.535,-0.907 -1.707,-1.305 -2.945,-1.305 -2.676,0 -4.118,2.609 -4.118,3.312 0,0.301 0.305,0.301 0.504,0.301 0.266,0 0.403,0 0.5,-0.269 0.606,-1.942 2.145,-2.575 3.016,-2.575 0.801,0 1.203,0.368 1.203,1.036 0,0.437 -0.301,1.605 -0.504,2.375 l -0.734,2.914 c -0.301,1.304 -1.071,1.941 -1.809,1.941 -0.098,0 -0.601,0 -1.004,-0.301 0.77,-0.234 1.141,-0.972 1.141,-1.472 0,-0.469 -0.371,-1.004 -1.074,-1.004 -0.735,0 -1.539,0.633 -1.539,1.672 0,1.136 1.14,1.875 2.445,1.875 1.203,0 2.008,-0.907 2.273,-1.305 0.535,0.902 1.743,1.305 2.946,1.305 2.711,0 4.152,-2.61 4.152,-3.313 0,-0.301 -0.336,-0.301 -0.504,-0.301 -0.266,0 -0.402,0 -0.5,0.266 -0.605,1.941 -2.144,2.578 -3.047,2.578 -0.804,0 -1.172,-0.367 -1.172,-1.07 0,-0.438 0.27,-1.574 0.469,-2.379 0.133,-0.535 0.637,-2.543 0.738,-2.875 0.332,-1.309 1.071,-1.942 1.805,-1.942 0.133,0 0.602,0 1.039,0.301 z"
         style="fill:#000000;fill-opacity:1;fill-rule:nonzero;stroke:none"
         id="path236" /><path
         d="m 327.086,264.801 c 0.402,0 1.605,-0.031 2.41,-0.301 1.102,-0.402 1.305,-1.105 1.305,-1.539 0,-0.836 -0.836,-1.34 -1.844,-1.34 -1.805,0 -4.215,1.375 -4.215,3.949 0,1.508 0.938,2.778 2.676,2.778 2.547,0 3.715,-1.473 3.715,-1.672 0,-0.102 -0.133,-0.266 -0.266,-0.266 -0.066,0 -0.101,0.031 -0.234,0.164 -1.172,1.375 -2.914,1.375 -3.18,1.375 -0.902,0 -1.508,-0.605 -1.508,-1.808 0,-0.2 0,-0.504 0.203,-1.34 z m -0.836,-0.403 c 0.633,-2.171 2.273,-2.339 2.707,-2.339 0.637,0 1.207,0.332 1.207,0.902 0,1.437 -2.543,1.437 -3.18,1.437 z"
         style="fill:#000000;fill-opacity:1;fill-rule:nonzero;stroke:none"
         id="path238" /><g
         id="g240"><g
           id="g242" /><g
           id="g254"><g
             clip-path="url(#clipPath246)"
             opacity="0.8"
             id="g252"><g
               id="g250"><path
                 d="m 221.664,62.398 h 25.008 v 15.645 h -25.008 z"
                 style="fill:#ffffff;fill-opacity:1;fill-rule:nonzero;stroke:none"
                 id="path248" /></g></g></g></g><path
         d="m 234.48,64.805 c -0.769,0.234 -1.136,0.937 -1.136,1.472 0,0.469 0.336,1.004 1.039,1.004 0.769,0 1.539,-0.633 1.539,-1.672 0,-1.136 -1.106,-1.875 -2.41,-1.875 -1.239,0 -2.008,0.907 -2.309,1.305 -0.535,-0.902 -1.707,-1.305 -2.945,-1.305 -2.68,0 -4.117,2.61 -4.117,3.313 0,0.301 0.3,0.301 0.504,0.301 0.265,0 0.398,0 0.5,-0.266 0.601,-1.941 2.14,-2.578 3.011,-2.578 0.805,0 1.207,0.367 1.207,1.039 0,0.434 -0.304,1.605 -0.504,2.375 l -0.734,2.914 c -0.305,1.305 -1.074,1.938 -1.809,1.938 -0.101,0 -0.601,0 -1.004,-0.301 0.77,-0.235 1.137,-0.969 1.137,-1.473 0,-0.469 -0.367,-1.004 -1.07,-1.004 -0.734,0 -1.539,0.637 -1.539,1.676 0,1.137 1.137,1.871 2.441,1.871 1.207,0 2.008,-0.902 2.278,-1.305 0.535,0.907 1.738,1.305 2.945,1.305 2.711,0 4.148,-2.609 4.148,-3.312 0,-0.301 -0.332,-0.301 -0.5,-0.301 -0.269,0 -0.402,0 -0.504,0.269 -0.601,1.942 -2.14,2.575 -3.043,2.575 -0.804,0 -1.171,-0.368 -1.171,-1.071 0,-0.433 0.265,-1.57 0.468,-2.375 0.133,-0.535 0.633,-2.543 0.735,-2.879 0.336,-1.304 1.07,-1.941 1.808,-1.941 0.133,0 0.602,0 1.035,0.301 z"
         style="fill:#000000;fill-opacity:1;fill-rule:nonzero;stroke:none"
         id="path256" /><path
         d="m 240.445,73.16 c 0.403,0 1.61,-0.035 2.41,-0.301 1.106,-0.402 1.305,-1.105 1.305,-1.539 0,-0.836 -0.836,-1.34 -1.84,-1.34 -1.808,0 -4.215,1.372 -4.215,3.95 0,1.508 0.938,2.777 2.676,2.777 2.543,0 3.715,-1.473 3.715,-1.672 0,-0.101 -0.133,-0.269 -0.269,-0.269 -0.067,0 -0.098,0.035 -0.231,0.168 -1.172,1.371 -2.914,1.371 -3.18,1.371 -0.906,0 -1.507,-0.602 -1.507,-1.805 0,-0.203 0,-0.504 0.199,-1.34 z m -0.836,-0.402 c 0.637,-2.176 2.278,-2.344 2.711,-2.344 0.637,0 1.207,0.336 1.207,0.906 0,1.438 -2.547,1.438 -3.179,1.438 z"
         style="fill:#000000;fill-opacity:1;fill-rule:nonzero;stroke:none"
         id="path258" /><g
         id="g260"><g
           id="g262" /><g
           id="g274"><g
             clip-path="url(#clipPath266)"
             opacity="0.8"
             id="g272"><g
               id="g270"><path
                 d="m 244.629,143.355 h 25.012 V 159 h -25.012 z"
                 style="fill:#ffffff;fill-opacity:1;fill-rule:nonzero;stroke:none"
                 id="path268" /></g></g></g></g><path
         d="m 257.449,145.762 c -0.769,0.234 -1.137,0.937 -1.137,1.472 0,0.469 0.333,1.004 1.036,1.004 0.769,0 1.539,-0.636 1.539,-1.672 0,-1.14 -1.102,-1.875 -2.41,-1.875 -1.239,0 -2.008,0.903 -2.309,1.305 -0.535,-0.902 -1.707,-1.305 -2.945,-1.305 -2.676,0 -4.114,2.61 -4.114,3.313 0,0.301 0.301,0.301 0.5,0.301 0.27,0 0.403,0 0.504,-0.266 0.602,-1.941 2.141,-2.578 3.012,-2.578 0.801,0 1.203,0.367 1.203,1.039 0,0.434 -0.301,1.605 -0.5,2.375 l -0.738,2.91 c -0.301,1.305 -1.07,1.942 -1.809,1.942 -0.097,0 -0.601,0 -1.004,-0.301 0.77,-0.235 1.141,-0.969 1.141,-1.473 0,-0.469 -0.371,-1.004 -1.07,-1.004 -0.739,0 -1.543,0.637 -1.543,1.672 0,1.141 1.14,1.875 2.445,1.875 1.203,0 2.008,-0.902 2.273,-1.305 0.539,0.903 1.743,1.305 2.946,1.305 2.711,0 4.152,-2.609 4.152,-3.312 0,-0.301 -0.336,-0.301 -0.504,-0.301 -0.265,0 -0.402,0 -0.5,0.265 -0.601,1.942 -2.144,2.579 -3.047,2.579 -0.804,0 -1.172,-0.368 -1.172,-1.071 0,-0.433 0.27,-1.574 0.469,-2.375 0.133,-0.535 0.637,-2.543 0.738,-2.879 0.333,-1.304 1.071,-1.941 1.805,-1.941 0.137,0 0.606,0 1.039,0.301 z"
         style="fill:#000000;fill-opacity:1;fill-rule:nonzero;stroke:none"
         id="path276" /><path
         d="m 263.414,154.117 c 0.402,0 1.606,-0.035 2.41,-0.301 1.102,-0.402 1.305,-1.105 1.305,-1.539 0,-0.839 -0.836,-1.339 -1.84,-1.339 -1.809,0 -4.219,1.371 -4.219,3.949 0,1.504 0.938,2.777 2.68,2.777 2.543,0 3.715,-1.473 3.715,-1.672 0,-0.101 -0.137,-0.269 -0.27,-0.269 -0.066,0 -0.101,0.035 -0.234,0.168 -1.172,1.371 -2.91,1.371 -3.18,1.371 -0.902,0 -1.504,-0.602 -1.504,-1.809 0,-0.199 0,-0.5 0.2,-1.336 z m -0.836,-0.402 c 0.633,-2.176 2.274,-2.344 2.711,-2.344 0.633,0 1.203,0.336 1.203,0.906 0,1.438 -2.543,1.438 -3.18,1.438 z"
         style="fill:#000000;fill-opacity:1;fill-rule:nonzero;stroke:none"
         id="path278" /></g></g></svg>
