<?xml version="1.0" encoding="utf-8" standalone="no"?>
<!DOCTYPE svg PUBLIC "-//W3C//DTD SVG 1.1//EN"
  "http://www.w3.org/Graphics/SVG/1.1/DTD/svg11.dtd">
<!-- Created with matplotlib (https://matplotlib.org/) -->
<svg height="345.6pt" version="1.1" viewBox="0 0 460.8 345.6" width="460.8pt" xmlns="http://www.w3.org/2000/svg" xmlns:xlink="http://www.w3.org/1999/xlink">
 <metadata>
  <rdf:RDF xmlns:cc="http://creativecommons.org/ns#" xmlns:dc="http://purl.org/dc/elements/1.1/" xmlns:rdf="http://www.w3.org/1999/02/22-rdf-syntax-ns#">
   <cc:Work>
    <dc:type rdf:resource="http://purl.org/dc/dcmitype/StillImage"/>
    <dc:date>2020-12-15T18:07:51.400173</dc:date>
    <dc:format>image/svg+xml</dc:format>
    <dc:creator>
     <cc:Agent>
      <dc:title>Matplotlib v3.3.3, https://matplotlib.org/</dc:title>
     </cc:Agent>
    </dc:creator>
   </cc:Work>
  </rdf:RDF>
 </metadata>
 <defs>
  <style type="text/css">*{stroke-linecap:butt;stroke-linejoin:round;}</style>
 </defs>
 <g id="figure_1">
  <g id="patch_1">
   <path d="M 0 345.6 
L 460.8 345.6 
L 460.8 0 
L 0 0 
z
" style="fill:#ffffff;"/>
  </g>
  <g id="axes_1">
   <g id="patch_2">
    <path d="M 52.85 303.64 
L 442.242922 303.64 
L 442.242922 12.832168 
L 52.85 12.832168 
z
" style="fill:#ffffff;"/>
   </g>
   <g id="matplotlib.axis_1">
    <g id="xtick_1">
     <g id="line2d_1">
      <defs>
       <path d="M 0 0 
L 0 3.5 
" id="md4c68050c3" style="stroke:#000000;stroke-width:0.8;"/>
      </defs>
      <g>
       <use style="stroke:#000000;stroke-width:0.8;" x="68.44414" xlink:href="#md4c68050c3" y="303.64"/>
      </g>
     </g>
     <g id="text_1">
      <!-- 0 -->
      <g transform="translate(65.26289 318.238437)scale(0.1 -0.1)">
       <defs>
        <path d="M 31.78125 66.40625 
Q 24.171875 66.40625 20.328125 58.90625 
Q 16.5 51.421875 16.5 36.375 
Q 16.5 21.390625 20.328125 13.890625 
Q 24.171875 6.390625 31.78125 6.390625 
Q 39.453125 6.390625 43.28125 13.890625 
Q 47.125 21.390625 47.125 36.375 
Q 47.125 51.421875 43.28125 58.90625 
Q 39.453125 66.40625 31.78125 66.40625 
z
M 31.78125 74.21875 
Q 44.046875 74.21875 50.515625 64.515625 
Q 56.984375 54.828125 56.984375 36.375 
Q 56.984375 17.96875 50.515625 8.265625 
Q 44.046875 -1.421875 31.78125 -1.421875 
Q 19.53125 -1.421875 13.0625 8.265625 
Q 6.59375 17.96875 6.59375 36.375 
Q 6.59375 54.828125 13.0625 64.515625 
Q 19.53125 74.21875 31.78125 74.21875 
z
" id="DejaVuSans-48"/>
       </defs>
       <use xlink:href="#DejaVuSans-48"/>
      </g>
     </g>
    </g>
    <g id="xtick_2">
     <g id="line2d_2">
      <g>
       <use style="stroke:#000000;stroke-width:0.8;" x="121.082589" xlink:href="#md4c68050c3" y="303.64"/>
      </g>
     </g>
     <g id="text_2">
      <!-- 200 -->
      <g transform="translate(111.538839 318.238437)scale(0.1 -0.1)">
       <defs>
        <path d="M 19.1875 8.296875 
L 53.609375 8.296875 
L 53.609375 0 
L 7.328125 0 
L 7.328125 8.296875 
Q 12.9375 14.109375 22.625 23.890625 
Q 32.328125 33.6875 34.8125 36.53125 
Q 39.546875 41.84375 41.421875 45.53125 
Q 43.3125 49.21875 43.3125 52.78125 
Q 43.3125 58.59375 39.234375 62.25 
Q 35.15625 65.921875 28.609375 65.921875 
Q 23.96875 65.921875 18.8125 64.3125 
Q 13.671875 62.703125 7.8125 59.421875 
L 7.8125 69.390625 
Q 13.765625 71.78125 18.9375 73 
Q 24.125 74.21875 28.421875 74.21875 
Q 39.75 74.21875 46.484375 68.546875 
Q 53.21875 62.890625 53.21875 53.421875 
Q 53.21875 48.921875 51.53125 44.890625 
Q 49.859375 40.875 45.40625 35.40625 
Q 44.1875 33.984375 37.640625 27.21875 
Q 31.109375 20.453125 19.1875 8.296875 
z
" id="DejaVuSans-50"/>
       </defs>
       <use xlink:href="#DejaVuSans-50"/>
       <use x="63.623047" xlink:href="#DejaVuSans-48"/>
       <use x="127.246094" xlink:href="#DejaVuSans-48"/>
      </g>
     </g>
    </g>
    <g id="xtick_3">
     <g id="line2d_3">
      <g>
       <use style="stroke:#000000;stroke-width:0.8;" x="173.721037" xlink:href="#md4c68050c3" y="303.64"/>
      </g>
     </g>
     <g id="text_3">
      <!-- 400 -->
      <g transform="translate(164.177287 318.238437)scale(0.1 -0.1)">
       <defs>
        <path d="M 37.796875 64.3125 
L 12.890625 25.390625 
L 37.796875 25.390625 
z
M 35.203125 72.90625 
L 47.609375 72.90625 
L 47.609375 25.390625 
L 58.015625 25.390625 
L 58.015625 17.1875 
L 47.609375 17.1875 
L 47.609375 0 
L 37.796875 0 
L 37.796875 17.1875 
L 4.890625 17.1875 
L 4.890625 26.703125 
z
" id="DejaVuSans-52"/>
       </defs>
       <use xlink:href="#DejaVuSans-52"/>
       <use x="63.623047" xlink:href="#DejaVuSans-48"/>
       <use x="127.246094" xlink:href="#DejaVuSans-48"/>
      </g>
     </g>
    </g>
    <g id="xtick_4">
     <g id="line2d_4">
      <g>
       <use style="stroke:#000000;stroke-width:0.8;" x="226.359485" xlink:href="#md4c68050c3" y="303.64"/>
      </g>
     </g>
     <g id="text_4">
      <!-- 600 -->
      <g transform="translate(216.815735 318.238437)scale(0.1 -0.1)">
       <defs>
        <path d="M 33.015625 40.375 
Q 26.375 40.375 22.484375 35.828125 
Q 18.609375 31.296875 18.609375 23.390625 
Q 18.609375 15.53125 22.484375 10.953125 
Q 26.375 6.390625 33.015625 6.390625 
Q 39.65625 6.390625 43.53125 10.953125 
Q 47.40625 15.53125 47.40625 23.390625 
Q 47.40625 31.296875 43.53125 35.828125 
Q 39.65625 40.375 33.015625 40.375 
z
M 52.59375 71.296875 
L 52.59375 62.3125 
Q 48.875 64.0625 45.09375 64.984375 
Q 41.3125 65.921875 37.59375 65.921875 
Q 27.828125 65.921875 22.671875 59.328125 
Q 17.53125 52.734375 16.796875 39.40625 
Q 19.671875 43.65625 24.015625 45.921875 
Q 28.375 48.1875 33.59375 48.1875 
Q 44.578125 48.1875 50.953125 41.515625 
Q 57.328125 34.859375 57.328125 23.390625 
Q 57.328125 12.15625 50.6875 5.359375 
Q 44.046875 -1.421875 33.015625 -1.421875 
Q 20.359375 -1.421875 13.671875 8.265625 
Q 6.984375 17.96875 6.984375 36.375 
Q 6.984375 53.65625 15.1875 63.9375 
Q 23.390625 74.21875 37.203125 74.21875 
Q 40.921875 74.21875 44.703125 73.484375 
Q 48.484375 72.75 52.59375 71.296875 
z
" id="DejaVuSans-54"/>
       </defs>
       <use xlink:href="#DejaVuSans-54"/>
       <use x="63.623047" xlink:href="#DejaVuSans-48"/>
       <use x="127.246094" xlink:href="#DejaVuSans-48"/>
      </g>
     </g>
    </g>
    <g id="xtick_5">
     <g id="line2d_5">
      <g>
       <use style="stroke:#000000;stroke-width:0.8;" x="278.997934" xlink:href="#md4c68050c3" y="303.64"/>
      </g>
     </g>
     <g id="text_5">
      <!-- 800 -->
      <g transform="translate(269.454184 318.238437)scale(0.1 -0.1)">
       <defs>
        <path d="M 31.78125 34.625 
Q 24.75 34.625 20.71875 30.859375 
Q 16.703125 27.09375 16.703125 20.515625 
Q 16.703125 13.921875 20.71875 10.15625 
Q 24.75 6.390625 31.78125 6.390625 
Q 38.8125 6.390625 42.859375 10.171875 
Q 46.921875 13.96875 46.921875 20.515625 
Q 46.921875 27.09375 42.890625 30.859375 
Q 38.875 34.625 31.78125 34.625 
z
M 21.921875 38.8125 
Q 15.578125 40.375 12.03125 44.71875 
Q 8.5 49.078125 8.5 55.328125 
Q 8.5 64.0625 14.71875 69.140625 
Q 20.953125 74.21875 31.78125 74.21875 
Q 42.671875 74.21875 48.875 69.140625 
Q 55.078125 64.0625 55.078125 55.328125 
Q 55.078125 49.078125 51.53125 44.71875 
Q 48 40.375 41.703125 38.8125 
Q 48.828125 37.15625 52.796875 32.3125 
Q 56.78125 27.484375 56.78125 20.515625 
Q 56.78125 9.90625 50.3125 4.234375 
Q 43.84375 -1.421875 31.78125 -1.421875 
Q 19.734375 -1.421875 13.25 4.234375 
Q 6.78125 9.90625 6.78125 20.515625 
Q 6.78125 27.484375 10.78125 32.3125 
Q 14.796875 37.15625 21.921875 38.8125 
z
M 18.3125 54.390625 
Q 18.3125 48.734375 21.84375 45.5625 
Q 25.390625 42.390625 31.78125 42.390625 
Q 38.140625 42.390625 41.71875 45.5625 
Q 45.3125 48.734375 45.3125 54.390625 
Q 45.3125 60.0625 41.71875 63.234375 
Q 38.140625 66.40625 31.78125 66.40625 
Q 25.390625 66.40625 21.84375 63.234375 
Q 18.3125 60.0625 18.3125 54.390625 
z
" id="DejaVuSans-56"/>
       </defs>
       <use xlink:href="#DejaVuSans-56"/>
       <use x="63.623047" xlink:href="#DejaVuSans-48"/>
       <use x="127.246094" xlink:href="#DejaVuSans-48"/>
      </g>
     </g>
    </g>
    <g id="xtick_6">
     <g id="line2d_6">
      <g>
       <use style="stroke:#000000;stroke-width:0.8;" x="331.636382" xlink:href="#md4c68050c3" y="303.64"/>
      </g>
     </g>
     <g id="text_6">
      <!-- 1000 -->
      <g transform="translate(318.911382 318.238437)scale(0.1 -0.1)">
       <defs>
        <path d="M 12.40625 8.296875 
L 28.515625 8.296875 
L 28.515625 63.921875 
L 10.984375 60.40625 
L 10.984375 69.390625 
L 28.421875 72.90625 
L 38.28125 72.90625 
L 38.28125 8.296875 
L 54.390625 8.296875 
L 54.390625 0 
L 12.40625 0 
z
" id="DejaVuSans-49"/>
       </defs>
       <use xlink:href="#DejaVuSans-49"/>
       <use x="63.623047" xlink:href="#DejaVuSans-48"/>
       <use x="127.246094" xlink:href="#DejaVuSans-48"/>
       <use x="190.869141" xlink:href="#DejaVuSans-48"/>
      </g>
     </g>
    </g>
    <g id="xtick_7">
     <g id="line2d_7">
      <g>
       <use style="stroke:#000000;stroke-width:0.8;" x="384.27483" xlink:href="#md4c68050c3" y="303.64"/>
      </g>
     </g>
     <g id="text_7">
      <!-- 1200 -->
      <g transform="translate(371.54983 318.238437)scale(0.1 -0.1)">
       <use xlink:href="#DejaVuSans-49"/>
       <use x="63.623047" xlink:href="#DejaVuSans-50"/>
       <use x="127.246094" xlink:href="#DejaVuSans-48"/>
       <use x="190.869141" xlink:href="#DejaVuSans-48"/>
      </g>
     </g>
    </g>
    <g id="xtick_8">
     <g id="line2d_8">
      <g>
       <use style="stroke:#000000;stroke-width:0.8;" x="436.913279" xlink:href="#md4c68050c3" y="303.64"/>
      </g>
     </g>
     <g id="text_8">
      <!-- 1400 -->
      <g transform="translate(424.188279 318.238437)scale(0.1 -0.1)">
       <use xlink:href="#DejaVuSans-49"/>
       <use x="63.623047" xlink:href="#DejaVuSans-52"/>
       <use x="127.246094" xlink:href="#DejaVuSans-48"/>
       <use x="190.869141" xlink:href="#DejaVuSans-48"/>
      </g>
     </g>
    </g>
    <g id="text_9">
     <!-- Time step -->
     <g transform="translate(222.90818 331.916562)scale(0.1 -0.1)">
      <defs>
       <path d="M -0.296875 72.90625 
L 61.375 72.90625 
L 61.375 64.59375 
L 35.5 64.59375 
L 35.5 0 
L 25.59375 0 
L 25.59375 64.59375 
L -0.296875 64.59375 
z
" id="DejaVuSans-84"/>
       <path d="M 9.421875 54.6875 
L 18.40625 54.6875 
L 18.40625 0 
L 9.421875 0 
z
M 9.421875 75.984375 
L 18.40625 75.984375 
L 18.40625 64.59375 
L 9.421875 64.59375 
z
" id="DejaVuSans-105"/>
       <path d="M 52 44.1875 
Q 55.375 50.25 60.0625 53.125 
Q 64.75 56 71.09375 56 
Q 79.640625 56 84.28125 50.015625 
Q 88.921875 44.046875 88.921875 33.015625 
L 88.921875 0 
L 79.890625 0 
L 79.890625 32.71875 
Q 79.890625 40.578125 77.09375 44.375 
Q 74.3125 48.1875 68.609375 48.1875 
Q 61.625 48.1875 57.5625 43.546875 
Q 53.515625 38.921875 53.515625 30.90625 
L 53.515625 0 
L 44.484375 0 
L 44.484375 32.71875 
Q 44.484375 40.625 41.703125 44.40625 
Q 38.921875 48.1875 33.109375 48.1875 
Q 26.21875 48.1875 22.15625 43.53125 
Q 18.109375 38.875 18.109375 30.90625 
L 18.109375 0 
L 9.078125 0 
L 9.078125 54.6875 
L 18.109375 54.6875 
L 18.109375 46.1875 
Q 21.1875 51.21875 25.484375 53.609375 
Q 29.78125 56 35.6875 56 
Q 41.65625 56 45.828125 52.96875 
Q 50 49.953125 52 44.1875 
z
" id="DejaVuSans-109"/>
       <path d="M 56.203125 29.59375 
L 56.203125 25.203125 
L 14.890625 25.203125 
Q 15.484375 15.921875 20.484375 11.0625 
Q 25.484375 6.203125 34.421875 6.203125 
Q 39.59375 6.203125 44.453125 7.46875 
Q 49.3125 8.734375 54.109375 11.28125 
L 54.109375 2.78125 
Q 49.265625 0.734375 44.1875 -0.34375 
Q 39.109375 -1.421875 33.890625 -1.421875 
Q 20.796875 -1.421875 13.15625 6.1875 
Q 5.515625 13.8125 5.515625 26.8125 
Q 5.515625 40.234375 12.765625 48.109375 
Q 20.015625 56 32.328125 56 
Q 43.359375 56 49.78125 48.890625 
Q 56.203125 41.796875 56.203125 29.59375 
z
M 47.21875 32.234375 
Q 47.125 39.59375 43.09375 43.984375 
Q 39.0625 48.390625 32.421875 48.390625 
Q 24.90625 48.390625 20.390625 44.140625 
Q 15.875 39.890625 15.1875 32.171875 
z
" id="DejaVuSans-101"/>
       <path id="DejaVuSans-32"/>
       <path d="M 44.28125 53.078125 
L 44.28125 44.578125 
Q 40.484375 46.53125 36.375 47.5 
Q 32.28125 48.484375 27.875 48.484375 
Q 21.1875 48.484375 17.84375 46.4375 
Q 14.5 44.390625 14.5 40.28125 
Q 14.5 37.15625 16.890625 35.375 
Q 19.28125 33.59375 26.515625 31.984375 
L 29.59375 31.296875 
Q 39.15625 29.25 43.1875 25.515625 
Q 47.21875 21.78125 47.21875 15.09375 
Q 47.21875 7.46875 41.1875 3.015625 
Q 35.15625 -1.421875 24.609375 -1.421875 
Q 20.21875 -1.421875 15.453125 -0.5625 
Q 10.6875 0.296875 5.421875 2 
L 5.421875 11.28125 
Q 10.40625 8.6875 15.234375 7.390625 
Q 20.0625 6.109375 24.8125 6.109375 
Q 31.15625 6.109375 34.5625 8.28125 
Q 37.984375 10.453125 37.984375 14.40625 
Q 37.984375 18.0625 35.515625 20.015625 
Q 33.0625 21.96875 24.703125 23.78125 
L 21.578125 24.515625 
Q 13.234375 26.265625 9.515625 29.90625 
Q 5.8125 33.546875 5.8125 39.890625 
Q 5.8125 47.609375 11.28125 51.796875 
Q 16.75 56 26.8125 56 
Q 31.78125 56 36.171875 55.265625 
Q 40.578125 54.546875 44.28125 53.078125 
z
" id="DejaVuSans-115"/>
       <path d="M 18.3125 70.21875 
L 18.3125 54.6875 
L 36.8125 54.6875 
L 36.8125 47.703125 
L 18.3125 47.703125 
L 18.3125 18.015625 
Q 18.3125 11.328125 20.140625 9.421875 
Q 21.96875 7.515625 27.59375 7.515625 
L 36.8125 7.515625 
L 36.8125 0 
L 27.59375 0 
Q 17.1875 0 13.234375 3.875 
Q 9.28125 7.765625 9.28125 18.015625 
L 9.28125 47.703125 
L 2.6875 47.703125 
L 2.6875 54.6875 
L 9.28125 54.6875 
L 9.28125 70.21875 
z
" id="DejaVuSans-116"/>
       <path d="M 18.109375 8.203125 
L 18.109375 -20.796875 
L 9.078125 -20.796875 
L 9.078125 54.6875 
L 18.109375 54.6875 
L 18.109375 46.390625 
Q 20.953125 51.265625 25.265625 53.625 
Q 29.59375 56 35.59375 56 
Q 45.5625 56 51.78125 48.09375 
Q 58.015625 40.1875 58.015625 27.296875 
Q 58.015625 14.40625 51.78125 6.484375 
Q 45.5625 -1.421875 35.59375 -1.421875 
Q 29.59375 -1.421875 25.265625 0.953125 
Q 20.953125 3.328125 18.109375 8.203125 
z
M 48.6875 27.296875 
Q 48.6875 37.203125 44.609375 42.84375 
Q 40.53125 48.484375 33.40625 48.484375 
Q 26.265625 48.484375 22.1875 42.84375 
Q 18.109375 37.203125 18.109375 27.296875 
Q 18.109375 17.390625 22.1875 11.75 
Q 26.265625 6.109375 33.40625 6.109375 
Q 40.53125 6.109375 44.609375 11.75 
Q 48.6875 17.390625 48.6875 27.296875 
z
" id="DejaVuSans-112"/>
      </defs>
      <use xlink:href="#DejaVuSans-84"/>
      <use x="57.958984" xlink:href="#DejaVuSans-105"/>
      <use x="85.742188" xlink:href="#DejaVuSans-109"/>
      <use x="183.154297" xlink:href="#DejaVuSans-101"/>
      <use x="244.677734" xlink:href="#DejaVuSans-32"/>
      <use x="276.464844" xlink:href="#DejaVuSans-115"/>
      <use x="328.564453" xlink:href="#DejaVuSans-116"/>
      <use x="367.773438" xlink:href="#DejaVuSans-101"/>
      <use x="429.296875" xlink:href="#DejaVuSans-112"/>
     </g>
    </g>
   </g>
   <g id="matplotlib.axis_2">
    <g id="ytick_1">
     <g id="line2d_9">
      <defs>
       <path d="M 0 0 
L -3.5 0 
" id="m2f3d9a0cea" style="stroke:#000000;stroke-width:0.8;"/>
      </defs>
      <g>
       <use style="stroke:#000000;stroke-width:0.8;" x="52.85" xlink:href="#m2f3d9a0cea" y="275.117604"/>
      </g>
     </g>
     <g id="text_10">
      <!-- −40 -->
      <g transform="translate(24.745313 278.916823)scale(0.1 -0.1)">
       <defs>
        <path d="M 10.59375 35.5 
L 73.1875 35.5 
L 73.1875 27.203125 
L 10.59375 27.203125 
z
" id="DejaVuSans-8722"/>
       </defs>
       <use xlink:href="#DejaVuSans-8722"/>
       <use x="83.789062" xlink:href="#DejaVuSans-52"/>
       <use x="147.412109" xlink:href="#DejaVuSans-48"/>
      </g>
     </g>
    </g>
    <g id="ytick_2">
     <g id="line2d_10">
      <g>
       <use style="stroke:#000000;stroke-width:0.8;" x="52.85" xlink:href="#m2f3d9a0cea" y="242.595267"/>
      </g>
     </g>
     <g id="text_11">
      <!-- −20 -->
      <g transform="translate(24.745313 246.394486)scale(0.1 -0.1)">
       <use xlink:href="#DejaVuSans-8722"/>
       <use x="83.789062" xlink:href="#DejaVuSans-50"/>
       <use x="147.412109" xlink:href="#DejaVuSans-48"/>
      </g>
     </g>
    </g>
    <g id="ytick_3">
     <g id="line2d_11">
      <g>
       <use style="stroke:#000000;stroke-width:0.8;" x="52.85" xlink:href="#m2f3d9a0cea" y="210.07293"/>
      </g>
     </g>
     <g id="text_12">
      <!-- 0 -->
      <g transform="translate(39.4875 213.872149)scale(0.1 -0.1)">
       <use xlink:href="#DejaVuSans-48"/>
      </g>
     </g>
    </g>
    <g id="ytick_4">
     <g id="line2d_12">
      <g>
       <use style="stroke:#000000;stroke-width:0.8;" x="52.85" xlink:href="#m2f3d9a0cea" y="177.550593"/>
      </g>
     </g>
     <g id="text_13">
      <!-- 20 -->
      <g transform="translate(33.125 181.349812)scale(0.1 -0.1)">
       <use xlink:href="#DejaVuSans-50"/>
       <use x="63.623047" xlink:href="#DejaVuSans-48"/>
      </g>
     </g>
    </g>
    <g id="ytick_5">
     <g id="line2d_13">
      <g>
       <use style="stroke:#000000;stroke-width:0.8;" x="52.85" xlink:href="#m2f3d9a0cea" y="145.028256"/>
      </g>
     </g>
     <g id="text_14">
      <!-- 40 -->
      <g transform="translate(33.125 148.827475)scale(0.1 -0.1)">
       <use xlink:href="#DejaVuSans-52"/>
       <use x="63.623047" xlink:href="#DejaVuSans-48"/>
      </g>
     </g>
    </g>
    <g id="ytick_6">
     <g id="line2d_14">
      <g>
       <use style="stroke:#000000;stroke-width:0.8;" x="52.85" xlink:href="#m2f3d9a0cea" y="112.505919"/>
      </g>
     </g>
     <g id="text_15">
      <!-- 60 -->
      <g transform="translate(33.125 116.305138)scale(0.1 -0.1)">
       <use xlink:href="#DejaVuSans-54"/>
       <use x="63.623047" xlink:href="#DejaVuSans-48"/>
      </g>
     </g>
    </g>
    <g id="ytick_7">
     <g id="line2d_15">
      <g>
       <use style="stroke:#000000;stroke-width:0.8;" x="52.85" xlink:href="#m2f3d9a0cea" y="79.983582"/>
      </g>
     </g>
     <g id="text_16">
      <!-- 80 -->
      <g transform="translate(33.125 83.7828)scale(0.1 -0.1)">
       <use xlink:href="#DejaVuSans-56"/>
       <use x="63.623047" xlink:href="#DejaVuSans-48"/>
      </g>
     </g>
    </g>
    <g id="ytick_8">
     <g id="line2d_16">
      <g>
       <use style="stroke:#000000;stroke-width:0.8;" x="52.85" xlink:href="#m2f3d9a0cea" y="47.461245"/>
      </g>
     </g>
     <g id="text_17">
      <!-- 100 -->
      <g transform="translate(26.7625 51.260463)scale(0.1 -0.1)">
       <use xlink:href="#DejaVuSans-49"/>
       <use x="63.623047" xlink:href="#DejaVuSans-48"/>
       <use x="127.246094" xlink:href="#DejaVuSans-48"/>
      </g>
     </g>
    </g>
    <g id="ytick_9">
     <g id="line2d_17">
      <g>
       <use style="stroke:#000000;stroke-width:0.8;" x="52.85" xlink:href="#m2f3d9a0cea" y="14.938907"/>
      </g>
     </g>
     <g id="text_18">
      <!-- 120 -->
      <g transform="translate(26.7625 18.738126)scale(0.1 -0.1)">
       <use xlink:href="#DejaVuSans-49"/>
       <use x="63.623047" xlink:href="#DejaVuSans-50"/>
       <use x="127.246094" xlink:href="#DejaVuSans-48"/>
      </g>
     </g>
    </g>
    <g id="text_19">
     <!-- Percentage error in volume -->
     <g transform="translate(18.665625 226.309522)rotate(-90)scale(0.1 -0.1)">
      <defs>
       <path d="M 19.671875 64.796875 
L 19.671875 37.40625 
L 32.078125 37.40625 
Q 38.96875 37.40625 42.71875 40.96875 
Q 46.484375 44.53125 46.484375 51.125 
Q 46.484375 57.671875 42.71875 61.234375 
Q 38.96875 64.796875 32.078125 64.796875 
z
M 9.8125 72.90625 
L 32.078125 72.90625 
Q 44.34375 72.90625 50.609375 67.359375 
Q 56.890625 61.8125 56.890625 51.125 
Q 56.890625 40.328125 50.609375 34.8125 
Q 44.34375 29.296875 32.078125 29.296875 
L 19.671875 29.296875 
L 19.671875 0 
L 9.8125 0 
z
" id="DejaVuSans-80"/>
       <path d="M 41.109375 46.296875 
Q 39.59375 47.171875 37.8125 47.578125 
Q 36.03125 48 33.890625 48 
Q 26.265625 48 22.1875 43.046875 
Q 18.109375 38.09375 18.109375 28.8125 
L 18.109375 0 
L 9.078125 0 
L 9.078125 54.6875 
L 18.109375 54.6875 
L 18.109375 46.1875 
Q 20.953125 51.171875 25.484375 53.578125 
Q 30.03125 56 36.53125 56 
Q 37.453125 56 38.578125 55.875 
Q 39.703125 55.765625 41.0625 55.515625 
z
" id="DejaVuSans-114"/>
       <path d="M 48.78125 52.59375 
L 48.78125 44.1875 
Q 44.96875 46.296875 41.140625 47.34375 
Q 37.3125 48.390625 33.40625 48.390625 
Q 24.65625 48.390625 19.8125 42.84375 
Q 14.984375 37.3125 14.984375 27.296875 
Q 14.984375 17.28125 19.8125 11.734375 
Q 24.65625 6.203125 33.40625 6.203125 
Q 37.3125 6.203125 41.140625 7.25 
Q 44.96875 8.296875 48.78125 10.40625 
L 48.78125 2.09375 
Q 45.015625 0.34375 40.984375 -0.53125 
Q 36.96875 -1.421875 32.421875 -1.421875 
Q 20.0625 -1.421875 12.78125 6.34375 
Q 5.515625 14.109375 5.515625 27.296875 
Q 5.515625 40.671875 12.859375 48.328125 
Q 20.21875 56 33.015625 56 
Q 37.15625 56 41.109375 55.140625 
Q 45.0625 54.296875 48.78125 52.59375 
z
" id="DejaVuSans-99"/>
       <path d="M 54.890625 33.015625 
L 54.890625 0 
L 45.90625 0 
L 45.90625 32.71875 
Q 45.90625 40.484375 42.875 44.328125 
Q 39.84375 48.1875 33.796875 48.1875 
Q 26.515625 48.1875 22.3125 43.546875 
Q 18.109375 38.921875 18.109375 30.90625 
L 18.109375 0 
L 9.078125 0 
L 9.078125 54.6875 
L 18.109375 54.6875 
L 18.109375 46.1875 
Q 21.34375 51.125 25.703125 53.5625 
Q 30.078125 56 35.796875 56 
Q 45.21875 56 50.046875 50.171875 
Q 54.890625 44.34375 54.890625 33.015625 
z
" id="DejaVuSans-110"/>
       <path d="M 34.28125 27.484375 
Q 23.390625 27.484375 19.1875 25 
Q 14.984375 22.515625 14.984375 16.5 
Q 14.984375 11.71875 18.140625 8.90625 
Q 21.296875 6.109375 26.703125 6.109375 
Q 34.1875 6.109375 38.703125 11.40625 
Q 43.21875 16.703125 43.21875 25.484375 
L 43.21875 27.484375 
z
M 52.203125 31.203125 
L 52.203125 0 
L 43.21875 0 
L 43.21875 8.296875 
Q 40.140625 3.328125 35.546875 0.953125 
Q 30.953125 -1.421875 24.3125 -1.421875 
Q 15.921875 -1.421875 10.953125 3.296875 
Q 6 8.015625 6 15.921875 
Q 6 25.140625 12.171875 29.828125 
Q 18.359375 34.515625 30.609375 34.515625 
L 43.21875 34.515625 
L 43.21875 35.40625 
Q 43.21875 41.609375 39.140625 45 
Q 35.0625 48.390625 27.6875 48.390625 
Q 23 48.390625 18.546875 47.265625 
Q 14.109375 46.140625 10.015625 43.890625 
L 10.015625 52.203125 
Q 14.9375 54.109375 19.578125 55.046875 
Q 24.21875 56 28.609375 56 
Q 40.484375 56 46.34375 49.84375 
Q 52.203125 43.703125 52.203125 31.203125 
z
" id="DejaVuSans-97"/>
       <path d="M 45.40625 27.984375 
Q 45.40625 37.75 41.375 43.109375 
Q 37.359375 48.484375 30.078125 48.484375 
Q 22.859375 48.484375 18.828125 43.109375 
Q 14.796875 37.75 14.796875 27.984375 
Q 14.796875 18.265625 18.828125 12.890625 
Q 22.859375 7.515625 30.078125 7.515625 
Q 37.359375 7.515625 41.375 12.890625 
Q 45.40625 18.265625 45.40625 27.984375 
z
M 54.390625 6.78125 
Q 54.390625 -7.171875 48.1875 -13.984375 
Q 42 -20.796875 29.203125 -20.796875 
Q 24.46875 -20.796875 20.265625 -20.09375 
Q 16.0625 -19.390625 12.109375 -17.921875 
L 12.109375 -9.1875 
Q 16.0625 -11.328125 19.921875 -12.34375 
Q 23.78125 -13.375 27.78125 -13.375 
Q 36.625 -13.375 41.015625 -8.765625 
Q 45.40625 -4.15625 45.40625 5.171875 
L 45.40625 9.625 
Q 42.625 4.78125 38.28125 2.390625 
Q 33.9375 0 27.875 0 
Q 17.828125 0 11.671875 7.65625 
Q 5.515625 15.328125 5.515625 27.984375 
Q 5.515625 40.671875 11.671875 48.328125 
Q 17.828125 56 27.875 56 
Q 33.9375 56 38.28125 53.609375 
Q 42.625 51.21875 45.40625 46.390625 
L 45.40625 54.6875 
L 54.390625 54.6875 
z
" id="DejaVuSans-103"/>
       <path d="M 30.609375 48.390625 
Q 23.390625 48.390625 19.1875 42.75 
Q 14.984375 37.109375 14.984375 27.296875 
Q 14.984375 17.484375 19.15625 11.84375 
Q 23.34375 6.203125 30.609375 6.203125 
Q 37.796875 6.203125 41.984375 11.859375 
Q 46.1875 17.53125 46.1875 27.296875 
Q 46.1875 37.015625 41.984375 42.703125 
Q 37.796875 48.390625 30.609375 48.390625 
z
M 30.609375 56 
Q 42.328125 56 49.015625 48.375 
Q 55.71875 40.765625 55.71875 27.296875 
Q 55.71875 13.875 49.015625 6.21875 
Q 42.328125 -1.421875 30.609375 -1.421875 
Q 18.84375 -1.421875 12.171875 6.21875 
Q 5.515625 13.875 5.515625 27.296875 
Q 5.515625 40.765625 12.171875 48.375 
Q 18.84375 56 30.609375 56 
z
" id="DejaVuSans-111"/>
       <path d="M 2.984375 54.6875 
L 12.5 54.6875 
L 29.59375 8.796875 
L 46.6875 54.6875 
L 56.203125 54.6875 
L 35.6875 0 
L 23.484375 0 
z
" id="DejaVuSans-118"/>
       <path d="M 9.421875 75.984375 
L 18.40625 75.984375 
L 18.40625 0 
L 9.421875 0 
z
" id="DejaVuSans-108"/>
       <path d="M 8.5 21.578125 
L 8.5 54.6875 
L 17.484375 54.6875 
L 17.484375 21.921875 
Q 17.484375 14.15625 20.5 10.265625 
Q 23.53125 6.390625 29.59375 6.390625 
Q 36.859375 6.390625 41.078125 11.03125 
Q 45.3125 15.671875 45.3125 23.6875 
L 45.3125 54.6875 
L 54.296875 54.6875 
L 54.296875 0 
L 45.3125 0 
L 45.3125 8.40625 
Q 42.046875 3.421875 37.71875 1 
Q 33.40625 -1.421875 27.6875 -1.421875 
Q 18.265625 -1.421875 13.375 4.4375 
Q 8.5 10.296875 8.5 21.578125 
z
M 31.109375 56 
z
" id="DejaVuSans-117"/>
      </defs>
      <use xlink:href="#DejaVuSans-80"/>
      <use x="56.677734" xlink:href="#DejaVuSans-101"/>
      <use x="118.201172" xlink:href="#DejaVuSans-114"/>
      <use x="157.064453" xlink:href="#DejaVuSans-99"/>
      <use x="212.044922" xlink:href="#DejaVuSans-101"/>
      <use x="273.568359" xlink:href="#DejaVuSans-110"/>
      <use x="336.947266" xlink:href="#DejaVuSans-116"/>
      <use x="376.15625" xlink:href="#DejaVuSans-97"/>
      <use x="437.435547" xlink:href="#DejaVuSans-103"/>
      <use x="500.912109" xlink:href="#DejaVuSans-101"/>
      <use x="562.435547" xlink:href="#DejaVuSans-32"/>
      <use x="594.222656" xlink:href="#DejaVuSans-101"/>
      <use x="655.746094" xlink:href="#DejaVuSans-114"/>
      <use x="695.109375" xlink:href="#DejaVuSans-114"/>
      <use x="733.972656" xlink:href="#DejaVuSans-111"/>
      <use x="795.154297" xlink:href="#DejaVuSans-114"/>
      <use x="836.267578" xlink:href="#DejaVuSans-32"/>
      <use x="868.054688" xlink:href="#DejaVuSans-105"/>
      <use x="895.837891" xlink:href="#DejaVuSans-110"/>
      <use x="959.216797" xlink:href="#DejaVuSans-32"/>
      <use x="991.003906" xlink:href="#DejaVuSans-118"/>
      <use x="1050.183594" xlink:href="#DejaVuSans-111"/>
      <use x="1111.365234" xlink:href="#DejaVuSans-108"/>
      <use x="1139.148438" xlink:href="#DejaVuSans-117"/>
      <use x="1202.527344" xlink:href="#DejaVuSans-109"/>
      <use x="1299.939453" xlink:href="#DejaVuSans-101"/>
     </g>
    </g>
   </g>
   <g id="line2d_18">
    <path clip-path="url(#p396a8e9461)" d="M 70.549678 290.421462 
L 71.602447 204.772602 
L 72.128832 128.795394 
L 72.918408 26.050706 
L 73.181601 211.356176 
L 73.444793 211.755904 
L 73.707985 203.844903 
L 73.971177 208.466057 
L 74.23437 200.612811 
L 74.497562 204.699278 
L 74.760754 196.97508 
L 75.023946 199.135463 
L 75.287139 189.866816 
L 75.550331 222.068289 
L 76.076715 212.101997 
L 76.866292 200.637819 
L 77.392677 189.246988 
L 77.655869 189.45222 
L 77.919061 183.106958 
L 78.182253 208.078139 
L 78.445446 204.502282 
L 78.708638 206.99379 
L 78.97183 207.248727 
L 79.235022 207.031711 
L 79.498214 209.534215 
L 80.024599 203.535504 
L 80.287791 198.395498 
L 80.550983 210.410744 
L 80.814176 207.841906 
L 81.077368 208.94734 
L 81.34056 207.34471 
L 81.603752 204.731747 
L 82.656521 199.383677 
L 82.919714 196.555834 
L 83.182906 207.901812 
L 83.446098 207.118315 
L 83.972483 209.093806 
L 84.235675 206.263395 
L 84.498867 207.206128 
L 84.762059 206.419686 
L 85.288444 203.111081 
L 85.551636 209.145449 
L 85.814828 208.017699 
L 86.078021 205.882267 
L 86.341213 207.346433 
L 86.867597 205.095021 
L 87.130789 205.122434 
L 87.393982 204.418162 
L 87.657174 202.453933 
L 87.920366 202.288764 
L 88.183558 207.208268 
L 88.446751 206.83304 
L 88.709943 207.872093 
L 88.973135 208.190793 
L 89.236327 207.437237 
L 89.49952 208.332454 
L 89.762712 207.14563 
L 90.025904 205.21607 
L 90.289096 204.841167 
L 90.552289 202.914413 
L 90.815481 206.788941 
L 91.078673 206.071929 
L 91.605058 206.513555 
L 91.86825 205.974216 
L 92.131442 206.270547 
L 92.394634 205.928486 
L 92.657827 204.319686 
L 92.921019 204.062559 
L 93.184211 208.242135 
L 93.447403 207.061957 
L 93.710596 207.635311 
L 93.973788 207.513679 
L 94.23698 207.933957 
L 94.500172 207.897133 
L 94.763364 207.399671 
L 95.026557 206.218484 
L 95.289749 205.736152 
L 95.552941 204.969496 
L 95.816133 206.510301 
L 96.079326 206.611737 
L 96.342518 207.587587 
L 96.60571 207.04933 
L 96.868902 207.139308 
L 97.132095 206.940156 
L 97.395287 205.776541 
L 97.658479 205.519249 
L 97.921671 205.568283 
L 98.184864 208.359351 
L 98.448056 207.749853 
L 98.711248 208.669807 
L 98.97444 209.065661 
L 100.290402 206.049747 
L 100.553594 205.766148 
L 100.816786 208.214556 
L 101.079978 207.457112 
L 101.343171 208.361504 
L 101.869555 208.090969 
L 102.132747 207.186069 
L 102.39594 207.053291 
L 102.659132 206.730261 
L 102.922324 206.597805 
L 103.185516 208.683811 
L 103.448708 208.572905 
L 103.711901 208.646658 
L 103.975093 208.906592 
L 104.238285 208.625061 
L 104.501477 208.672806 
L 105.027862 207.410777 
L 105.291054 207.338751 
L 105.554246 206.515538 
L 105.817439 208.120677 
L 106.607015 207.734261 
L 106.870208 207.855954 
L 107.1334 207.807428 
L 107.396592 207.57844 
L 107.659784 206.835011 
L 107.922977 207.044936 
L 108.186169 208.849899 
L 108.449361 209.031271 
L 108.712553 208.995661 
L 108.975746 208.679087 
L 109.238938 208.16946 
L 109.50213 208.426285 
L 110.028515 207.904709 
L 110.291707 207.807775 
L 110.554899 207.271006 
L 110.818091 208.225309 
L 111.081283 208.005216 
L 112.134052 208.412763 
L 112.660437 208.265022 
L 112.923629 208.021332 
L 113.186821 209.084651 
L 113.450014 209.362052 
L 114.23959 208.692007 
L 114.502783 207.924235 
L 114.765975 208.40419 
L 115.555552 207.758853 
L 115.818744 208.746867 
L 116.345128 208.456529 
L 116.608321 208.5916 
L 116.871513 208.514508 
L 117.134705 208.631797 
L 117.66109 208.412886 
L 117.924282 208.888196 
L 118.187474 210.066163 
L 118.450666 209.308522 
L 118.713858 209.305693 
L 118.977051 208.975113 
L 119.240243 208.825595 
L 119.503435 208.919187 
L 119.766627 208.756434 
L 120.02982 208.322883 
L 120.556204 208.107638 
L 120.819396 208.898923 
L 121.345781 209.070182 
L 121.608973 209.299668 
L 121.872165 208.728111 
L 122.135358 208.833447 
L 122.924934 208.599522 
L 123.188127 209.278576 
L 123.451319 209.27148 
L 123.714511 208.899227 
L 124.240896 208.971381 
L 124.504088 208.934972 
L 124.76728 208.776525 
L 125.030472 208.833228 
L 125.293665 208.657272 
L 125.556857 208.809674 
L 125.820049 209.404579 
L 126.346433 209.164034 
L 127.13601 209.260167 
L 127.399202 209.07916 
L 127.662395 209.035333 
L 127.925587 208.689573 
L 128.188779 209.313 
L 128.715164 209.503817 
L 129.241548 209.220796 
L 129.50474 208.741169 
L 130.294317 208.913449 
L 130.557509 208.741942 
L 130.820702 209.176075 
L 131.083894 209.160879 
L 131.610278 209.557498 
L 131.873471 209.584506 
L 132.92624 209.036463 
L 133.189432 209.594946 
L 133.452624 209.490052 
L 133.715816 209.240088 
L 133.979009 209.446102 
L 134.242201 209.008197 
L 134.768585 209.25821 
L 135.558162 208.887575 
L 135.821354 209.286921 
L 136.347739 209.584565 
L 136.610931 209.668154 
L 137.400508 209.371648 
L 137.6637 209.13614 
L 137.926892 209.192117 
L 138.190084 209.712595 
L 138.979661 209.52175 
L 139.769238 209.7964 
L 140.558815 209.34338 
L 140.822007 209.701484 
L 141.085199 209.842947 
L 141.348391 209.587312 
L 141.611584 209.637942 
L 142.137968 209.321506 
L 142.664352 209.265357 
L 142.927545 209.498276 
L 143.190737 209.375988 
L 143.453929 209.813385 
L 143.980314 209.675763 
L 144.243506 209.843007 
L 145.033083 209.808096 
L 145.559467 209.406583 
L 145.822659 209.857837 
L 146.612236 209.87884 
L 147.401813 209.535348 
L 147.665005 209.643115 
L 148.19139 209.573802 
L 148.454582 209.961096 
L 148.980966 209.845122 
L 149.770543 209.961524 
L 150.296927 209.745534 
L 150.56012 209.610383 
L 150.823312 209.974365 
L 151.086504 209.958478 
L 151.612889 210.227667 
L 151.876081 210.245791 
L 152.139273 209.959823 
L 152.665658 209.822299 
L 153.192042 209.867297 
L 154.244811 210.185146 
L 155.560772 209.941312 
L 155.823965 210.371017 
L 157.66631 210.151972 
L 158.192695 209.880241 
L 158.455887 210.166654 
L 159.771848 210.228392 
L 160.561425 210.21733 
L 160.824617 210.611515 
L 161.614194 210.34215 
L 161.877386 210.441184 
L 162.140578 210.264435 
L 162.666963 210.348615 
L 163.193347 210.245044 
L 163.45654 210.369898 
L 163.719732 210.261667 
L 164.246116 210.494664 
L 165.562078 210.401684 
L 165.82527 210.708056 
L 166.351654 210.729129 
L 166.878039 210.656159 
L 167.667615 210.463947 
L 167.930808 210.515472 
L 168.194 210.43792 
L 168.457192 210.655056 
L 169.246769 210.568872 
L 169.509961 210.669692 
L 169.773153 210.555532 
L 170.56273 210.584021 
L 170.825922 210.871599 
L 171.878691 210.845976 
L 173.194653 210.49893 
L 173.457845 210.718442 
L 173.721037 210.69058 
L 173.984229 210.511955 
L 174.247421 210.634114 
L 175.563383 210.426609 
L 175.826575 210.648599 
L 176.089767 210.555519 
L 176.352959 210.64888 
L 176.879344 210.47635 
L 177.142536 210.483969 
L 177.668921 210.339573 
L 177.932113 210.263014 
L 178.72169 210.488356 
L 179.248074 210.396822 
L 179.511266 210.447505 
L 180.564035 210.162933 
L 181.09042 210.346616 
L 183.195958 210.099318 
L 183.45915 210.398979 
L 183.722342 210.248552 
L 184.248727 210.266162 
L 184.775111 210.268732 
L 190.56534 210.033234 
L 190.828533 210.179921 
L 192.670878 210.055535 
L 193.197263 209.883661 
L 193.460455 210.103749 
L 194.250032 210.028997 
L 195.829185 209.872057 
L 196.35557 209.99591 
L 197.934723 209.824204 
L 198.197915 209.726734 
L 198.7243 209.950771 
L 200.040261 209.796413 
L 201.882607 209.826297 
L 202.935376 209.669091 
L 203.46176 209.807026 
L 204.777722 209.85764 
L 205.83049 209.599771 
L 206.093683 209.747084 
L 207.146452 209.704035 
L 207.672836 209.659173 
L 207.936028 209.596341 
L 208.725605 209.727052 
L 210.567951 209.469391 
L 210.831143 209.392547 
L 211.357528 209.596182 
L 211.883912 209.619194 
L 212.147104 209.516677 
L 212.673489 209.580872 
L 213.199873 209.54559 
L 213.726258 209.650316 
L 214.252642 209.566053 
L 214.779027 209.506569 
L 215.831796 209.442788 
L 216.094988 209.527759 
L 216.884565 209.478466 
L 217.674141 209.450474 
L 218.200526 209.326326 
L 218.72691 209.491425 
L 220.569256 209.341906 
L 220.832448 209.369873 
L 221.095641 209.530169 
L 221.358833 209.42372 
L 221.885217 209.401624 
L 223.464371 209.342955 
L 224.780332 209.331025 
L 225.306716 209.289371 
L 225.833101 209.238422 
L 226.359485 209.34022 
L 230.307369 209.194934 
L 230.833753 209.048594 
L 232.939291 209.155884 
L 240.571866 209.025885 
L 240.835059 208.976191 
L 241.361443 209.080971 
L 256.889785 208.926688 
L 257.152978 208.970174 
L 257.942554 208.831117 
L 258.468939 208.803038 
L 258.995323 208.855414 
L 260.048092 208.868757 
L 260.574477 208.759462 
L 260.837669 208.677699 
L 261.364053 208.818259 
L 261.890438 208.842876 
L 263.469591 208.744655 
L 263.995976 208.825193 
L 265.575129 208.750294 
L 266.627898 208.835773 
L 267.417475 208.763135 
L 272.418128 208.704101 
L 272.944512 208.66573 
L 280.577087 208.598485 
L 281.103472 208.668046 
L 283.20901 208.59617 
L 284.524971 208.597463 
L 285.57774 208.566107 
L 285.840932 208.516045 
L 286.367316 208.608907 
L 293.210315 208.545007 
L 293.473507 208.478143 
L 294.263084 208.58684 
L 306.369927 208.534026 
L 307.685888 208.461865 
L 313.476117 208.465983 
L 314.528886 208.524633 
L 319.792731 208.483587 
L 320.582308 208.483427 
L 321.108692 208.408931 
L 321.898269 208.460609 
L 322.687846 208.463956 
L 328.214883 208.453414 
L 329.794036 208.433282 
L 330.583613 208.468361 
L 331.37319 208.478419 
L 332.425959 208.475217 
L 335.847458 208.472281 
L 337.163419 208.48776 
L 341.900879 208.487505 
L 358.218798 208.532268 
L 359.53476 208.506045 
L 361.640298 208.551764 
L 371.115218 208.584509 
L 372.167987 208.622842 
L 377.958217 208.641739 
L 395.592097 208.783486 
L 396.908058 208.788246 
L 399.803173 208.833819 
L 404.014248 208.888061 
L 405.593402 208.877761 
L 422.174513 209.101747 
L 424.543243 209.143559 
L 424.543243 209.143559 
" style="fill:none;stroke:#1f77b4;stroke-linecap:square;stroke-width:1.5;"/>
   </g>
   <g id="patch_3">
    <path d="M 52.85 303.64 
L 52.85 12.832168 
" style="fill:none;stroke:#000000;stroke-linecap:square;stroke-linejoin:miter;stroke-width:0.8;"/>
   </g>
   <g id="patch_4">
    <path d="M 442.242922 303.64 
L 442.242922 12.832168 
" style="fill:none;stroke:#000000;stroke-linecap:square;stroke-linejoin:miter;stroke-width:0.8;"/>
   </g>
   <g id="patch_5">
    <path d="M 52.85 303.64 
L 442.242922 303.64 
" style="fill:none;stroke:#000000;stroke-linecap:square;stroke-linejoin:miter;stroke-width:0.8;"/>
   </g>
   <g id="patch_6">
    <path d="M 52.85 12.832168 
L 442.242922 12.832168 
" style="fill:none;stroke:#000000;stroke-linecap:square;stroke-linejoin:miter;stroke-width:0.8;"/>
   </g>
   <g id="legend_1">
    <g id="patch_7">
     <path d="M 367.260109 35.788418 
L 435.242922 35.788418 
Q 437.242922 35.788418 437.242922 33.788418 
L 437.242922 19.832168 
Q 437.242922 17.832168 435.242922 17.832168 
L 367.260109 17.832168 
Q 365.260109 17.832168 365.260109 19.832168 
L 365.260109 33.788418 
Q 365.260109 35.788418 367.260109 35.788418 
z
" style="fill:#ffffff;opacity:0.8;stroke:#cccccc;stroke-linejoin:miter;"/>
    </g>
    <g id="line2d_19">
     <path d="M 369.260109 25.930606 
L 389.260109 25.930606 
" style="fill:none;stroke:#1f77b4;stroke-linecap:square;stroke-width:1.5;"/>
    </g>
    <g id="line2d_20"/>
    <g id="text_20">
     <!-- vol_diff -->
     <g transform="translate(397.260109 29.430606)scale(0.1 -0.1)">
      <defs>
       <path d="M 50.984375 -16.609375 
L 50.984375 -23.578125 
L -0.984375 -23.578125 
L -0.984375 -16.609375 
z
" id="DejaVuSans-95"/>
       <path d="M 45.40625 46.390625 
L 45.40625 75.984375 
L 54.390625 75.984375 
L 54.390625 0 
L 45.40625 0 
L 45.40625 8.203125 
Q 42.578125 3.328125 38.25 0.953125 
Q 33.9375 -1.421875 27.875 -1.421875 
Q 17.96875 -1.421875 11.734375 6.484375 
Q 5.515625 14.40625 5.515625 27.296875 
Q 5.515625 40.1875 11.734375 48.09375 
Q 17.96875 56 27.875 56 
Q 33.9375 56 38.25 53.625 
Q 42.578125 51.265625 45.40625 46.390625 
z
M 14.796875 27.296875 
Q 14.796875 17.390625 18.875 11.75 
Q 22.953125 6.109375 30.078125 6.109375 
Q 37.203125 6.109375 41.296875 11.75 
Q 45.40625 17.390625 45.40625 27.296875 
Q 45.40625 37.203125 41.296875 42.84375 
Q 37.203125 48.484375 30.078125 48.484375 
Q 22.953125 48.484375 18.875 42.84375 
Q 14.796875 37.203125 14.796875 27.296875 
z
" id="DejaVuSans-100"/>
       <path d="M 37.109375 75.984375 
L 37.109375 68.5 
L 28.515625 68.5 
Q 23.6875 68.5 21.796875 66.546875 
Q 19.921875 64.59375 19.921875 59.515625 
L 19.921875 54.6875 
L 34.71875 54.6875 
L 34.71875 47.703125 
L 19.921875 47.703125 
L 19.921875 0 
L 10.890625 0 
L 10.890625 47.703125 
L 2.296875 47.703125 
L 2.296875 54.6875 
L 10.890625 54.6875 
L 10.890625 58.5 
Q 10.890625 67.625 15.140625 71.796875 
Q 19.390625 75.984375 28.609375 75.984375 
z
" id="DejaVuSans-102"/>
      </defs>
      <use xlink:href="#DejaVuSans-118"/>
      <use x="59.179688" xlink:href="#DejaVuSans-111"/>
      <use x="120.361328" xlink:href="#DejaVuSans-108"/>
      <use x="148.144531" xlink:href="#DejaVuSans-95"/>
      <use x="198.144531" xlink:href="#DejaVuSans-100"/>
      <use x="261.621094" xlink:href="#DejaVuSans-105"/>
      <use x="289.404297" xlink:href="#DejaVuSans-102"/>
      <use x="324.609375" xlink:href="#DejaVuSans-102"/>
     </g>
    </g>
   </g>
  </g>
 </g>
 <defs>
  <clipPath id="p396a8e9461">
   <rect height="290.807832" width="389.392922" x="52.85" y="12.832168"/>
  </clipPath>
 </defs>
</svg>
