<?xml version="1.0" encoding="utf-8" standalone="no"?>
<!DOCTYPE svg PUBLIC "-//W3C//DTD SVG 1.1//EN"
  "http://www.w3.org/Graphics/SVG/1.1/DTD/svg11.dtd">
<!-- Created with matplotlib (https://matplotlib.org/) -->
<svg height="345.6pt" version="1.1" viewBox="0 0 460.8 345.6" width="460.8pt" xmlns="http://www.w3.org/2000/svg" xmlns:xlink="http://www.w3.org/1999/xlink">
 <metadata>
  <rdf:RDF xmlns:cc="http://creativecommons.org/ns#" xmlns:dc="http://purl.org/dc/elements/1.1/" xmlns:rdf="http://www.w3.org/1999/02/22-rdf-syntax-ns#">
   <cc:Work>
    <dc:type rdf:resource="http://purl.org/dc/dcmitype/StillImage"/>
    <dc:date>2020-12-15T18:07:51.537368</dc:date>
    <dc:format>image/svg+xml</dc:format>
    <dc:creator>
     <cc:Agent>
      <dc:title>Matplotlib v3.3.3, https://matplotlib.org/</dc:title>
     </cc:Agent>
    </dc:creator>
   </cc:Work>
  </rdf:RDF>
 </metadata>
 <defs>
  <style type="text/css">*{stroke-linecap:butt;stroke-linejoin:round;}</style>
 </defs>
 <g id="figure_1">
  <g id="patch_1">
   <path d="M 0 345.6 
L 460.8 345.6 
L 460.8 0 
L 0 0 
z
" style="fill:#ffffff;"/>
  </g>
  <g id="axes_1">
   <g id="patch_2">
    <path d="M 56 303.64 
L 441.331692 303.64 
L 441.331692 10.8 
L 56 10.8 
z
" style="fill:#ffffff;"/>
   </g>
   <g id="matplotlib.axis_1">
    <g id="xtick_1">
     <g id="line2d_1">
      <defs>
       <path d="M 0 0 
L 0 3.5 
" id="m65149af16f" style="stroke:#000000;stroke-width:0.8;"/>
      </defs>
      <g>
       <use style="stroke:#000000;stroke-width:0.8;" x="99.400813" xlink:href="#m65149af16f" y="303.64"/>
      </g>
     </g>
     <g id="text_1">
      <!-- 200 -->
      <g transform="translate(89.857063 318.238437)scale(0.1 -0.1)">
       <defs>
        <path d="M 19.1875 8.296875 
L 53.609375 8.296875 
L 53.609375 0 
L 7.328125 0 
L 7.328125 8.296875 
Q 12.9375 14.109375 22.625 23.890625 
Q 32.328125 33.6875 34.8125 36.53125 
Q 39.546875 41.84375 41.421875 45.53125 
Q 43.3125 49.21875 43.3125 52.78125 
Q 43.3125 58.59375 39.234375 62.25 
Q 35.15625 65.921875 28.609375 65.921875 
Q 23.96875 65.921875 18.8125 64.3125 
Q 13.671875 62.703125 7.8125 59.421875 
L 7.8125 69.390625 
Q 13.765625 71.78125 18.9375 73 
Q 24.125 74.21875 28.421875 74.21875 
Q 39.75 74.21875 46.484375 68.546875 
Q 53.21875 62.890625 53.21875 53.421875 
Q 53.21875 48.921875 51.53125 44.890625 
Q 49.859375 40.875 45.40625 35.40625 
Q 44.1875 33.984375 37.640625 27.21875 
Q 31.109375 20.453125 19.1875 8.296875 
z
" id="DejaVuSans-50"/>
        <path d="M 31.78125 66.40625 
Q 24.171875 66.40625 20.328125 58.90625 
Q 16.5 51.421875 16.5 36.375 
Q 16.5 21.390625 20.328125 13.890625 
Q 24.171875 6.390625 31.78125 6.390625 
Q 39.453125 6.390625 43.28125 13.890625 
Q 47.125 21.390625 47.125 36.375 
Q 47.125 51.421875 43.28125 58.90625 
Q 39.453125 66.40625 31.78125 66.40625 
z
M 31.78125 74.21875 
Q 44.046875 74.21875 50.515625 64.515625 
Q 56.984375 54.828125 56.984375 36.375 
Q 56.984375 17.96875 50.515625 8.265625 
Q 44.046875 -1.421875 31.78125 -1.421875 
Q 19.53125 -1.421875 13.0625 8.265625 
Q 6.59375 17.96875 6.59375 36.375 
Q 6.59375 54.828125 13.0625 64.515625 
Q 19.53125 74.21875 31.78125 74.21875 
z
" id="DejaVuSans-48"/>
       </defs>
       <use xlink:href="#DejaVuSans-50"/>
       <use x="63.623047" xlink:href="#DejaVuSans-48"/>
       <use x="127.246094" xlink:href="#DejaVuSans-48"/>
      </g>
     </g>
    </g>
    <g id="xtick_2">
     <g id="line2d_2">
      <g>
       <use style="stroke:#000000;stroke-width:0.8;" x="155.674153" xlink:href="#m65149af16f" y="303.64"/>
      </g>
     </g>
     <g id="text_2">
      <!-- 400 -->
      <g transform="translate(146.130403 318.238437)scale(0.1 -0.1)">
       <defs>
        <path d="M 37.796875 64.3125 
L 12.890625 25.390625 
L 37.796875 25.390625 
z
M 35.203125 72.90625 
L 47.609375 72.90625 
L 47.609375 25.390625 
L 58.015625 25.390625 
L 58.015625 17.1875 
L 47.609375 17.1875 
L 47.609375 0 
L 37.796875 0 
L 37.796875 17.1875 
L 4.890625 17.1875 
L 4.890625 26.703125 
z
" id="DejaVuSans-52"/>
       </defs>
       <use xlink:href="#DejaVuSans-52"/>
       <use x="63.623047" xlink:href="#DejaVuSans-48"/>
       <use x="127.246094" xlink:href="#DejaVuSans-48"/>
      </g>
     </g>
    </g>
    <g id="xtick_3">
     <g id="line2d_3">
      <g>
       <use style="stroke:#000000;stroke-width:0.8;" x="211.947492" xlink:href="#m65149af16f" y="303.64"/>
      </g>
     </g>
     <g id="text_3">
      <!-- 600 -->
      <g transform="translate(202.403742 318.238437)scale(0.1 -0.1)">
       <defs>
        <path d="M 33.015625 40.375 
Q 26.375 40.375 22.484375 35.828125 
Q 18.609375 31.296875 18.609375 23.390625 
Q 18.609375 15.53125 22.484375 10.953125 
Q 26.375 6.390625 33.015625 6.390625 
Q 39.65625 6.390625 43.53125 10.953125 
Q 47.40625 15.53125 47.40625 23.390625 
Q 47.40625 31.296875 43.53125 35.828125 
Q 39.65625 40.375 33.015625 40.375 
z
M 52.59375 71.296875 
L 52.59375 62.3125 
Q 48.875 64.0625 45.09375 64.984375 
Q 41.3125 65.921875 37.59375 65.921875 
Q 27.828125 65.921875 22.671875 59.328125 
Q 17.53125 52.734375 16.796875 39.40625 
Q 19.671875 43.65625 24.015625 45.921875 
Q 28.375 48.1875 33.59375 48.1875 
Q 44.578125 48.1875 50.953125 41.515625 
Q 57.328125 34.859375 57.328125 23.390625 
Q 57.328125 12.15625 50.6875 5.359375 
Q 44.046875 -1.421875 33.015625 -1.421875 
Q 20.359375 -1.421875 13.671875 8.265625 
Q 6.984375 17.96875 6.984375 36.375 
Q 6.984375 53.65625 15.1875 63.9375 
Q 23.390625 74.21875 37.203125 74.21875 
Q 40.921875 74.21875 44.703125 73.484375 
Q 48.484375 72.75 52.59375 71.296875 
z
" id="DejaVuSans-54"/>
       </defs>
       <use xlink:href="#DejaVuSans-54"/>
       <use x="63.623047" xlink:href="#DejaVuSans-48"/>
       <use x="127.246094" xlink:href="#DejaVuSans-48"/>
      </g>
     </g>
    </g>
    <g id="xtick_4">
     <g id="line2d_4">
      <g>
       <use style="stroke:#000000;stroke-width:0.8;" x="268.220832" xlink:href="#m65149af16f" y="303.64"/>
      </g>
     </g>
     <g id="text_4">
      <!-- 800 -->
      <g transform="translate(258.677082 318.238437)scale(0.1 -0.1)">
       <defs>
        <path d="M 31.78125 34.625 
Q 24.75 34.625 20.71875 30.859375 
Q 16.703125 27.09375 16.703125 20.515625 
Q 16.703125 13.921875 20.71875 10.15625 
Q 24.75 6.390625 31.78125 6.390625 
Q 38.8125 6.390625 42.859375 10.171875 
Q 46.921875 13.96875 46.921875 20.515625 
Q 46.921875 27.09375 42.890625 30.859375 
Q 38.875 34.625 31.78125 34.625 
z
M 21.921875 38.8125 
Q 15.578125 40.375 12.03125 44.71875 
Q 8.5 49.078125 8.5 55.328125 
Q 8.5 64.0625 14.71875 69.140625 
Q 20.953125 74.21875 31.78125 74.21875 
Q 42.671875 74.21875 48.875 69.140625 
Q 55.078125 64.0625 55.078125 55.328125 
Q 55.078125 49.078125 51.53125 44.71875 
Q 48 40.375 41.703125 38.8125 
Q 48.828125 37.15625 52.796875 32.3125 
Q 56.78125 27.484375 56.78125 20.515625 
Q 56.78125 9.90625 50.3125 4.234375 
Q 43.84375 -1.421875 31.78125 -1.421875 
Q 19.734375 -1.421875 13.25 4.234375 
Q 6.78125 9.90625 6.78125 20.515625 
Q 6.78125 27.484375 10.78125 32.3125 
Q 14.796875 37.15625 21.921875 38.8125 
z
M 18.3125 54.390625 
Q 18.3125 48.734375 21.84375 45.5625 
Q 25.390625 42.390625 31.78125 42.390625 
Q 38.140625 42.390625 41.71875 45.5625 
Q 45.3125 48.734375 45.3125 54.390625 
Q 45.3125 60.0625 41.71875 63.234375 
Q 38.140625 66.40625 31.78125 66.40625 
Q 25.390625 66.40625 21.84375 63.234375 
Q 18.3125 60.0625 18.3125 54.390625 
z
" id="DejaVuSans-56"/>
       </defs>
       <use xlink:href="#DejaVuSans-56"/>
       <use x="63.623047" xlink:href="#DejaVuSans-48"/>
       <use x="127.246094" xlink:href="#DejaVuSans-48"/>
      </g>
     </g>
    </g>
    <g id="xtick_5">
     <g id="line2d_5">
      <g>
       <use style="stroke:#000000;stroke-width:0.8;" x="324.494171" xlink:href="#m65149af16f" y="303.64"/>
      </g>
     </g>
     <g id="text_5">
      <!-- 1000 -->
      <g transform="translate(311.769171 318.238437)scale(0.1 -0.1)">
       <defs>
        <path d="M 12.40625 8.296875 
L 28.515625 8.296875 
L 28.515625 63.921875 
L 10.984375 60.40625 
L 10.984375 69.390625 
L 28.421875 72.90625 
L 38.28125 72.90625 
L 38.28125 8.296875 
L 54.390625 8.296875 
L 54.390625 0 
L 12.40625 0 
z
" id="DejaVuSans-49"/>
       </defs>
       <use xlink:href="#DejaVuSans-49"/>
       <use x="63.623047" xlink:href="#DejaVuSans-48"/>
       <use x="127.246094" xlink:href="#DejaVuSans-48"/>
       <use x="190.869141" xlink:href="#DejaVuSans-48"/>
      </g>
     </g>
    </g>
    <g id="xtick_6">
     <g id="line2d_6">
      <g>
       <use style="stroke:#000000;stroke-width:0.8;" x="380.767511" xlink:href="#m65149af16f" y="303.64"/>
      </g>
     </g>
     <g id="text_6">
      <!-- 1200 -->
      <g transform="translate(368.042511 318.238437)scale(0.1 -0.1)">
       <use xlink:href="#DejaVuSans-49"/>
       <use x="63.623047" xlink:href="#DejaVuSans-50"/>
       <use x="127.246094" xlink:href="#DejaVuSans-48"/>
       <use x="190.869141" xlink:href="#DejaVuSans-48"/>
      </g>
     </g>
    </g>
    <g id="xtick_7">
     <g id="line2d_7">
      <g>
       <use style="stroke:#000000;stroke-width:0.8;" x="437.04085" xlink:href="#m65149af16f" y="303.64"/>
      </g>
     </g>
     <g id="text_7">
      <!-- 1400 -->
      <g transform="translate(424.31585 318.238437)scale(0.1 -0.1)">
       <use xlink:href="#DejaVuSans-49"/>
       <use x="63.623047" xlink:href="#DejaVuSans-52"/>
       <use x="127.246094" xlink:href="#DejaVuSans-48"/>
       <use x="190.869141" xlink:href="#DejaVuSans-48"/>
      </g>
     </g>
    </g>
    <g id="text_8">
     <!-- Time step -->
     <g transform="translate(224.027565 331.916562)scale(0.1 -0.1)">
      <defs>
       <path d="M -0.296875 72.90625 
L 61.375 72.90625 
L 61.375 64.59375 
L 35.5 64.59375 
L 35.5 0 
L 25.59375 0 
L 25.59375 64.59375 
L -0.296875 64.59375 
z
" id="DejaVuSans-84"/>
       <path d="M 9.421875 54.6875 
L 18.40625 54.6875 
L 18.40625 0 
L 9.421875 0 
z
M 9.421875 75.984375 
L 18.40625 75.984375 
L 18.40625 64.59375 
L 9.421875 64.59375 
z
" id="DejaVuSans-105"/>
       <path d="M 52 44.1875 
Q 55.375 50.25 60.0625 53.125 
Q 64.75 56 71.09375 56 
Q 79.640625 56 84.28125 50.015625 
Q 88.921875 44.046875 88.921875 33.015625 
L 88.921875 0 
L 79.890625 0 
L 79.890625 32.71875 
Q 79.890625 40.578125 77.09375 44.375 
Q 74.3125 48.1875 68.609375 48.1875 
Q 61.625 48.1875 57.5625 43.546875 
Q 53.515625 38.921875 53.515625 30.90625 
L 53.515625 0 
L 44.484375 0 
L 44.484375 32.71875 
Q 44.484375 40.625 41.703125 44.40625 
Q 38.921875 48.1875 33.109375 48.1875 
Q 26.21875 48.1875 22.15625 43.53125 
Q 18.109375 38.875 18.109375 30.90625 
L 18.109375 0 
L 9.078125 0 
L 9.078125 54.6875 
L 18.109375 54.6875 
L 18.109375 46.1875 
Q 21.1875 51.21875 25.484375 53.609375 
Q 29.78125 56 35.6875 56 
Q 41.65625 56 45.828125 52.96875 
Q 50 49.953125 52 44.1875 
z
" id="DejaVuSans-109"/>
       <path d="M 56.203125 29.59375 
L 56.203125 25.203125 
L 14.890625 25.203125 
Q 15.484375 15.921875 20.484375 11.0625 
Q 25.484375 6.203125 34.421875 6.203125 
Q 39.59375 6.203125 44.453125 7.46875 
Q 49.3125 8.734375 54.109375 11.28125 
L 54.109375 2.78125 
Q 49.265625 0.734375 44.1875 -0.34375 
Q 39.109375 -1.421875 33.890625 -1.421875 
Q 20.796875 -1.421875 13.15625 6.1875 
Q 5.515625 13.8125 5.515625 26.8125 
Q 5.515625 40.234375 12.765625 48.109375 
Q 20.015625 56 32.328125 56 
Q 43.359375 56 49.78125 48.890625 
Q 56.203125 41.796875 56.203125 29.59375 
z
M 47.21875 32.234375 
Q 47.125 39.59375 43.09375 43.984375 
Q 39.0625 48.390625 32.421875 48.390625 
Q 24.90625 48.390625 20.390625 44.140625 
Q 15.875 39.890625 15.1875 32.171875 
z
" id="DejaVuSans-101"/>
       <path id="DejaVuSans-32"/>
       <path d="M 44.28125 53.078125 
L 44.28125 44.578125 
Q 40.484375 46.53125 36.375 47.5 
Q 32.28125 48.484375 27.875 48.484375 
Q 21.1875 48.484375 17.84375 46.4375 
Q 14.5 44.390625 14.5 40.28125 
Q 14.5 37.15625 16.890625 35.375 
Q 19.28125 33.59375 26.515625 31.984375 
L 29.59375 31.296875 
Q 39.15625 29.25 43.1875 25.515625 
Q 47.21875 21.78125 47.21875 15.09375 
Q 47.21875 7.46875 41.1875 3.015625 
Q 35.15625 -1.421875 24.609375 -1.421875 
Q 20.21875 -1.421875 15.453125 -0.5625 
Q 10.6875 0.296875 5.421875 2 
L 5.421875 11.28125 
Q 10.40625 8.6875 15.234375 7.390625 
Q 20.0625 6.109375 24.8125 6.109375 
Q 31.15625 6.109375 34.5625 8.28125 
Q 37.984375 10.453125 37.984375 14.40625 
Q 37.984375 18.0625 35.515625 20.015625 
Q 33.0625 21.96875 24.703125 23.78125 
L 21.578125 24.515625 
Q 13.234375 26.265625 9.515625 29.90625 
Q 5.8125 33.546875 5.8125 39.890625 
Q 5.8125 47.609375 11.28125 51.796875 
Q 16.75 56 26.8125 56 
Q 31.78125 56 36.171875 55.265625 
Q 40.578125 54.546875 44.28125 53.078125 
z
" id="DejaVuSans-115"/>
       <path d="M 18.3125 70.21875 
L 18.3125 54.6875 
L 36.8125 54.6875 
L 36.8125 47.703125 
L 18.3125 47.703125 
L 18.3125 18.015625 
Q 18.3125 11.328125 20.140625 9.421875 
Q 21.96875 7.515625 27.59375 7.515625 
L 36.8125 7.515625 
L 36.8125 0 
L 27.59375 0 
Q 17.1875 0 13.234375 3.875 
Q 9.28125 7.765625 9.28125 18.015625 
L 9.28125 47.703125 
L 2.6875 47.703125 
L 2.6875 54.6875 
L 9.28125 54.6875 
L 9.28125 70.21875 
z
" id="DejaVuSans-116"/>
       <path d="M 18.109375 8.203125 
L 18.109375 -20.796875 
L 9.078125 -20.796875 
L 9.078125 54.6875 
L 18.109375 54.6875 
L 18.109375 46.390625 
Q 20.953125 51.265625 25.265625 53.625 
Q 29.59375 56 35.59375 56 
Q 45.5625 56 51.78125 48.09375 
Q 58.015625 40.1875 58.015625 27.296875 
Q 58.015625 14.40625 51.78125 6.484375 
Q 45.5625 -1.421875 35.59375 -1.421875 
Q 29.59375 -1.421875 25.265625 0.953125 
Q 20.953125 3.328125 18.109375 8.203125 
z
M 48.6875 27.296875 
Q 48.6875 37.203125 44.609375 42.84375 
Q 40.53125 48.484375 33.40625 48.484375 
Q 26.265625 48.484375 22.1875 42.84375 
Q 18.109375 37.203125 18.109375 27.296875 
Q 18.109375 17.390625 22.1875 11.75 
Q 26.265625 6.109375 33.40625 6.109375 
Q 40.53125 6.109375 44.609375 11.75 
Q 48.6875 17.390625 48.6875 27.296875 
z
" id="DejaVuSans-112"/>
      </defs>
      <use xlink:href="#DejaVuSans-84"/>
      <use x="57.958984" xlink:href="#DejaVuSans-105"/>
      <use x="85.742188" xlink:href="#DejaVuSans-109"/>
      <use x="183.154297" xlink:href="#DejaVuSans-101"/>
      <use x="244.677734" xlink:href="#DejaVuSans-32"/>
      <use x="276.464844" xlink:href="#DejaVuSans-115"/>
      <use x="328.564453" xlink:href="#DejaVuSans-116"/>
      <use x="367.773438" xlink:href="#DejaVuSans-101"/>
      <use x="429.296875" xlink:href="#DejaVuSans-112"/>
     </g>
    </g>
   </g>
   <g id="matplotlib.axis_2">
    <g id="ytick_1">
     <g id="line2d_8">
      <defs>
       <path d="M 0 0 
L -3.5 0 
" id="md43da21176" style="stroke:#000000;stroke-width:0.8;"/>
      </defs>
      <g>
       <use style="stroke:#000000;stroke-width:0.8;" x="56" xlink:href="#md43da21176" y="288.708296"/>
      </g>
     </g>
     <g id="text_9">
      <!-- −0.5 -->
      <g transform="translate(24.717188 292.507515)scale(0.1 -0.1)">
       <defs>
        <path d="M 10.59375 35.5 
L 73.1875 35.5 
L 73.1875 27.203125 
L 10.59375 27.203125 
z
" id="DejaVuSans-8722"/>
        <path d="M 10.6875 12.40625 
L 21 12.40625 
L 21 0 
L 10.6875 0 
z
" id="DejaVuSans-46"/>
        <path d="M 10.796875 72.90625 
L 49.515625 72.90625 
L 49.515625 64.59375 
L 19.828125 64.59375 
L 19.828125 46.734375 
Q 21.96875 47.46875 24.109375 47.828125 
Q 26.265625 48.1875 28.421875 48.1875 
Q 40.625 48.1875 47.75 41.5 
Q 54.890625 34.8125 54.890625 23.390625 
Q 54.890625 11.625 47.5625 5.09375 
Q 40.234375 -1.421875 26.90625 -1.421875 
Q 22.3125 -1.421875 17.546875 -0.640625 
Q 12.796875 0.140625 7.71875 1.703125 
L 7.71875 11.625 
Q 12.109375 9.234375 16.796875 8.0625 
Q 21.484375 6.890625 26.703125 6.890625 
Q 35.15625 6.890625 40.078125 11.328125 
Q 45.015625 15.765625 45.015625 23.390625 
Q 45.015625 31 40.078125 35.4375 
Q 35.15625 39.890625 26.703125 39.890625 
Q 22.75 39.890625 18.8125 39.015625 
Q 14.890625 38.140625 10.796875 36.28125 
z
" id="DejaVuSans-53"/>
       </defs>
       <use xlink:href="#DejaVuSans-8722"/>
       <use x="83.789062" xlink:href="#DejaVuSans-48"/>
       <use x="147.412109" xlink:href="#DejaVuSans-46"/>
       <use x="179.199219" xlink:href="#DejaVuSans-53"/>
      </g>
     </g>
    </g>
    <g id="ytick_2">
     <g id="line2d_9">
      <g>
       <use style="stroke:#000000;stroke-width:0.8;" x="56" xlink:href="#md43da21176" y="248.621919"/>
      </g>
     </g>
     <g id="text_10">
      <!-- 0.0 -->
      <g transform="translate(33.096875 252.421138)scale(0.1 -0.1)">
       <use xlink:href="#DejaVuSans-48"/>
       <use x="63.623047" xlink:href="#DejaVuSans-46"/>
       <use x="95.410156" xlink:href="#DejaVuSans-48"/>
      </g>
     </g>
    </g>
    <g id="ytick_3">
     <g id="line2d_10">
      <g>
       <use style="stroke:#000000;stroke-width:0.8;" x="56" xlink:href="#md43da21176" y="208.535541"/>
      </g>
     </g>
     <g id="text_11">
      <!-- 0.5 -->
      <g transform="translate(33.096875 212.33476)scale(0.1 -0.1)">
       <use xlink:href="#DejaVuSans-48"/>
       <use x="63.623047" xlink:href="#DejaVuSans-46"/>
       <use x="95.410156" xlink:href="#DejaVuSans-53"/>
      </g>
     </g>
    </g>
    <g id="ytick_4">
     <g id="line2d_11">
      <g>
       <use style="stroke:#000000;stroke-width:0.8;" x="56" xlink:href="#md43da21176" y="168.449164"/>
      </g>
     </g>
     <g id="text_12">
      <!-- 1.0 -->
      <g transform="translate(33.096875 172.248383)scale(0.1 -0.1)">
       <use xlink:href="#DejaVuSans-49"/>
       <use x="63.623047" xlink:href="#DejaVuSans-46"/>
       <use x="95.410156" xlink:href="#DejaVuSans-48"/>
      </g>
     </g>
    </g>
    <g id="ytick_5">
     <g id="line2d_12">
      <g>
       <use style="stroke:#000000;stroke-width:0.8;" x="56" xlink:href="#md43da21176" y="128.362787"/>
      </g>
     </g>
     <g id="text_13">
      <!-- 1.5 -->
      <g transform="translate(33.096875 132.162005)scale(0.1 -0.1)">
       <use xlink:href="#DejaVuSans-49"/>
       <use x="63.623047" xlink:href="#DejaVuSans-46"/>
       <use x="95.410156" xlink:href="#DejaVuSans-53"/>
      </g>
     </g>
    </g>
    <g id="ytick_6">
     <g id="line2d_13">
      <g>
       <use style="stroke:#000000;stroke-width:0.8;" x="56" xlink:href="#md43da21176" y="88.276409"/>
      </g>
     </g>
     <g id="text_14">
      <!-- 2.0 -->
      <g transform="translate(33.096875 92.075628)scale(0.1 -0.1)">
       <use xlink:href="#DejaVuSans-50"/>
       <use x="63.623047" xlink:href="#DejaVuSans-46"/>
       <use x="95.410156" xlink:href="#DejaVuSans-48"/>
      </g>
     </g>
    </g>
    <g id="ytick_7">
     <g id="line2d_14">
      <g>
       <use style="stroke:#000000;stroke-width:0.8;" x="56" xlink:href="#md43da21176" y="48.190032"/>
      </g>
     </g>
     <g id="text_15">
      <!-- 2.5 -->
      <g transform="translate(33.096875 51.98925)scale(0.1 -0.1)">
       <use xlink:href="#DejaVuSans-50"/>
       <use x="63.623047" xlink:href="#DejaVuSans-46"/>
       <use x="95.410156" xlink:href="#DejaVuSans-53"/>
      </g>
     </g>
    </g>
    <g id="text_16">
     <!-- Percentage error in volume -->
     <g transform="translate(18.6375 225.293437)rotate(-90)scale(0.1 -0.1)">
      <defs>
       <path d="M 19.671875 64.796875 
L 19.671875 37.40625 
L 32.078125 37.40625 
Q 38.96875 37.40625 42.71875 40.96875 
Q 46.484375 44.53125 46.484375 51.125 
Q 46.484375 57.671875 42.71875 61.234375 
Q 38.96875 64.796875 32.078125 64.796875 
z
M 9.8125 72.90625 
L 32.078125 72.90625 
Q 44.34375 72.90625 50.609375 67.359375 
Q 56.890625 61.8125 56.890625 51.125 
Q 56.890625 40.328125 50.609375 34.8125 
Q 44.34375 29.296875 32.078125 29.296875 
L 19.671875 29.296875 
L 19.671875 0 
L 9.8125 0 
z
" id="DejaVuSans-80"/>
       <path d="M 41.109375 46.296875 
Q 39.59375 47.171875 37.8125 47.578125 
Q 36.03125 48 33.890625 48 
Q 26.265625 48 22.1875 43.046875 
Q 18.109375 38.09375 18.109375 28.8125 
L 18.109375 0 
L 9.078125 0 
L 9.078125 54.6875 
L 18.109375 54.6875 
L 18.109375 46.1875 
Q 20.953125 51.171875 25.484375 53.578125 
Q 30.03125 56 36.53125 56 
Q 37.453125 56 38.578125 55.875 
Q 39.703125 55.765625 41.0625 55.515625 
z
" id="DejaVuSans-114"/>
       <path d="M 48.78125 52.59375 
L 48.78125 44.1875 
Q 44.96875 46.296875 41.140625 47.34375 
Q 37.3125 48.390625 33.40625 48.390625 
Q 24.65625 48.390625 19.8125 42.84375 
Q 14.984375 37.3125 14.984375 27.296875 
Q 14.984375 17.28125 19.8125 11.734375 
Q 24.65625 6.203125 33.40625 6.203125 
Q 37.3125 6.203125 41.140625 7.25 
Q 44.96875 8.296875 48.78125 10.40625 
L 48.78125 2.09375 
Q 45.015625 0.34375 40.984375 -0.53125 
Q 36.96875 -1.421875 32.421875 -1.421875 
Q 20.0625 -1.421875 12.78125 6.34375 
Q 5.515625 14.109375 5.515625 27.296875 
Q 5.515625 40.671875 12.859375 48.328125 
Q 20.21875 56 33.015625 56 
Q 37.15625 56 41.109375 55.140625 
Q 45.0625 54.296875 48.78125 52.59375 
z
" id="DejaVuSans-99"/>
       <path d="M 54.890625 33.015625 
L 54.890625 0 
L 45.90625 0 
L 45.90625 32.71875 
Q 45.90625 40.484375 42.875 44.328125 
Q 39.84375 48.1875 33.796875 48.1875 
Q 26.515625 48.1875 22.3125 43.546875 
Q 18.109375 38.921875 18.109375 30.90625 
L 18.109375 0 
L 9.078125 0 
L 9.078125 54.6875 
L 18.109375 54.6875 
L 18.109375 46.1875 
Q 21.34375 51.125 25.703125 53.5625 
Q 30.078125 56 35.796875 56 
Q 45.21875 56 50.046875 50.171875 
Q 54.890625 44.34375 54.890625 33.015625 
z
" id="DejaVuSans-110"/>
       <path d="M 34.28125 27.484375 
Q 23.390625 27.484375 19.1875 25 
Q 14.984375 22.515625 14.984375 16.5 
Q 14.984375 11.71875 18.140625 8.90625 
Q 21.296875 6.109375 26.703125 6.109375 
Q 34.1875 6.109375 38.703125 11.40625 
Q 43.21875 16.703125 43.21875 25.484375 
L 43.21875 27.484375 
z
M 52.203125 31.203125 
L 52.203125 0 
L 43.21875 0 
L 43.21875 8.296875 
Q 40.140625 3.328125 35.546875 0.953125 
Q 30.953125 -1.421875 24.3125 -1.421875 
Q 15.921875 -1.421875 10.953125 3.296875 
Q 6 8.015625 6 15.921875 
Q 6 25.140625 12.171875 29.828125 
Q 18.359375 34.515625 30.609375 34.515625 
L 43.21875 34.515625 
L 43.21875 35.40625 
Q 43.21875 41.609375 39.140625 45 
Q 35.0625 48.390625 27.6875 48.390625 
Q 23 48.390625 18.546875 47.265625 
Q 14.109375 46.140625 10.015625 43.890625 
L 10.015625 52.203125 
Q 14.9375 54.109375 19.578125 55.046875 
Q 24.21875 56 28.609375 56 
Q 40.484375 56 46.34375 49.84375 
Q 52.203125 43.703125 52.203125 31.203125 
z
" id="DejaVuSans-97"/>
       <path d="M 45.40625 27.984375 
Q 45.40625 37.75 41.375 43.109375 
Q 37.359375 48.484375 30.078125 48.484375 
Q 22.859375 48.484375 18.828125 43.109375 
Q 14.796875 37.75 14.796875 27.984375 
Q 14.796875 18.265625 18.828125 12.890625 
Q 22.859375 7.515625 30.078125 7.515625 
Q 37.359375 7.515625 41.375 12.890625 
Q 45.40625 18.265625 45.40625 27.984375 
z
M 54.390625 6.78125 
Q 54.390625 -7.171875 48.1875 -13.984375 
Q 42 -20.796875 29.203125 -20.796875 
Q 24.46875 -20.796875 20.265625 -20.09375 
Q 16.0625 -19.390625 12.109375 -17.921875 
L 12.109375 -9.1875 
Q 16.0625 -11.328125 19.921875 -12.34375 
Q 23.78125 -13.375 27.78125 -13.375 
Q 36.625 -13.375 41.015625 -8.765625 
Q 45.40625 -4.15625 45.40625 5.171875 
L 45.40625 9.625 
Q 42.625 4.78125 38.28125 2.390625 
Q 33.9375 0 27.875 0 
Q 17.828125 0 11.671875 7.65625 
Q 5.515625 15.328125 5.515625 27.984375 
Q 5.515625 40.671875 11.671875 48.328125 
Q 17.828125 56 27.875 56 
Q 33.9375 56 38.28125 53.609375 
Q 42.625 51.21875 45.40625 46.390625 
L 45.40625 54.6875 
L 54.390625 54.6875 
z
" id="DejaVuSans-103"/>
       <path d="M 30.609375 48.390625 
Q 23.390625 48.390625 19.1875 42.75 
Q 14.984375 37.109375 14.984375 27.296875 
Q 14.984375 17.484375 19.15625 11.84375 
Q 23.34375 6.203125 30.609375 6.203125 
Q 37.796875 6.203125 41.984375 11.859375 
Q 46.1875 17.53125 46.1875 27.296875 
Q 46.1875 37.015625 41.984375 42.703125 
Q 37.796875 48.390625 30.609375 48.390625 
z
M 30.609375 56 
Q 42.328125 56 49.015625 48.375 
Q 55.71875 40.765625 55.71875 27.296875 
Q 55.71875 13.875 49.015625 6.21875 
Q 42.328125 -1.421875 30.609375 -1.421875 
Q 18.84375 -1.421875 12.171875 6.21875 
Q 5.515625 13.875 5.515625 27.296875 
Q 5.515625 40.765625 12.171875 48.375 
Q 18.84375 56 30.609375 56 
z
" id="DejaVuSans-111"/>
       <path d="M 2.984375 54.6875 
L 12.5 54.6875 
L 29.59375 8.796875 
L 46.6875 54.6875 
L 56.203125 54.6875 
L 35.6875 0 
L 23.484375 0 
z
" id="DejaVuSans-118"/>
       <path d="M 9.421875 75.984375 
L 18.40625 75.984375 
L 18.40625 0 
L 9.421875 0 
z
" id="DejaVuSans-108"/>
       <path d="M 8.5 21.578125 
L 8.5 54.6875 
L 17.484375 54.6875 
L 17.484375 21.921875 
Q 17.484375 14.15625 20.5 10.265625 
Q 23.53125 6.390625 29.59375 6.390625 
Q 36.859375 6.390625 41.078125 11.03125 
Q 45.3125 15.671875 45.3125 23.6875 
L 45.3125 54.6875 
L 54.296875 54.6875 
L 54.296875 0 
L 45.3125 0 
L 45.3125 8.40625 
Q 42.046875 3.421875 37.71875 1 
Q 33.40625 -1.421875 27.6875 -1.421875 
Q 18.265625 -1.421875 13.375 4.4375 
Q 8.5 10.296875 8.5 21.578125 
z
M 31.109375 56 
z
" id="DejaVuSans-117"/>
      </defs>
      <use xlink:href="#DejaVuSans-80"/>
      <use x="56.677734" xlink:href="#DejaVuSans-101"/>
      <use x="118.201172" xlink:href="#DejaVuSans-114"/>
      <use x="157.064453" xlink:href="#DejaVuSans-99"/>
      <use x="212.044922" xlink:href="#DejaVuSans-101"/>
      <use x="273.568359" xlink:href="#DejaVuSans-110"/>
      <use x="336.947266" xlink:href="#DejaVuSans-116"/>
      <use x="376.15625" xlink:href="#DejaVuSans-97"/>
      <use x="437.435547" xlink:href="#DejaVuSans-103"/>
      <use x="500.912109" xlink:href="#DejaVuSans-101"/>
      <use x="562.435547" xlink:href="#DejaVuSans-32"/>
      <use x="594.222656" xlink:href="#DejaVuSans-101"/>
      <use x="655.746094" xlink:href="#DejaVuSans-114"/>
      <use x="695.109375" xlink:href="#DejaVuSans-114"/>
      <use x="733.972656" xlink:href="#DejaVuSans-111"/>
      <use x="795.154297" xlink:href="#DejaVuSans-114"/>
      <use x="836.267578" xlink:href="#DejaVuSans-32"/>
      <use x="868.054688" xlink:href="#DejaVuSans-105"/>
      <use x="895.837891" xlink:href="#DejaVuSans-110"/>
      <use x="959.216797" xlink:href="#DejaVuSans-32"/>
      <use x="991.003906" xlink:href="#DejaVuSans-118"/>
      <use x="1050.183594" xlink:href="#DejaVuSans-111"/>
      <use x="1111.365234" xlink:href="#DejaVuSans-108"/>
      <use x="1139.148438" xlink:href="#DejaVuSans-117"/>
      <use x="1202.527344" xlink:href="#DejaVuSans-109"/>
      <use x="1299.939453" xlink:href="#DejaVuSans-101"/>
     </g>
    </g>
   </g>
   <g id="line2d_15">
    <path clip-path="url(#p62f4a4c840)" d="M 73.515077 103.984972 
L 73.796444 94.166162 
L 74.07781 36.796227 
L 74.359177 24.110909 
L 74.640544 26.528449 
L 74.92191 164.13701 
L 75.203277 134.086804 
L 75.484644 179.443469 
L 75.76601 198.960324 
L 77.172844 50.266153 
L 77.454211 36.283828 
L 77.735577 156.998154 
L 78.016944 119.653752 
L 78.298311 164.243131 
L 78.579677 159.384856 
L 78.861044 150.904924 
L 79.142411 106.290462 
L 79.423778 99.744048 
L 79.705144 83.817634 
L 79.986511 77.287128 
L 80.267878 180.133931 
L 80.549244 174.665876 
L 80.830611 178.302134 
L 81.111978 191.117714 
L 81.393344 177.237331 
L 81.674711 179.591303 
L 81.956078 140.002386 
L 82.237445 117.36926 
L 82.518811 113.818172 
L 82.800178 73.231136 
L 83.081545 152.369619 
L 83.362911 144.121444 
L 83.644278 130.840392 
L 83.925645 133.318051 
L 84.207011 139.317895 
L 84.488378 136.92541 
L 84.769745 125.635599 
L 85.051112 88.982155 
L 85.332478 99.332137 
L 85.613845 188.322562 
L 85.895212 197.264789 
L 86.176578 195.509122 
L 86.457945 179.900977 
L 86.739312 154.774746 
L 87.020678 167.437055 
L 87.583412 141.721708 
L 87.864778 136.942545 
L 88.146145 110.478095 
L 88.427512 157.528285 
L 88.708879 146.67701 
L 88.990245 152.291784 
L 89.552979 169.11793 
L 89.834345 166.770381 
L 90.397079 159.486279 
L 90.678445 147.471581 
L 90.959812 199.896592 
L 91.241179 213.573363 
L 92.085279 180.538015 
L 92.366646 142.684406 
L 92.648012 166.347721 
L 93.210746 151.976976 
L 93.492112 134.530501 
L 93.773479 183.24277 
L 94.054846 174.051138 
L 94.336213 168.928197 
L 94.617579 175.587588 
L 94.898946 171.786737 
L 95.180313 177.569438 
L 95.461679 173.835717 
L 95.743046 166.77646 
L 96.024413 190.210728 
L 96.305779 248.288255 
L 96.587146 210.934155 
L 96.868513 210.794669 
L 97.14988 194.496028 
L 97.431246 187.124305 
L 97.712613 191.738717 
L 97.99398 183.714441 
L 98.275346 162.339029 
L 98.556713 155.219788 
L 98.83808 151.726731 
L 99.119446 190.739619 
L 99.68218 199.183243 
L 99.963546 210.497647 
L 100.244913 182.318022 
L 100.52628 187.51146 
L 100.807647 184.635082 
L 101.089013 185.762482 
L 101.37038 175.978206 
L 101.651747 209.457706 
L 101.933113 209.10789 
L 102.21448 190.754588 
L 102.495847 195.054377 
L 102.777213 194.312035 
L 103.05858 192.516929 
L 103.339947 184.705027 
L 103.621314 187.500632 
L 103.90268 178.825436 
L 104.184047 186.339376 
L 104.465414 215.670051 
L 105.028147 203.810418 
L 105.309514 204.259694 
L 105.59088 200.422356 
L 105.872247 208.550078 
L 106.153614 199.625855 
L 106.434981 197.465065 
L 106.716347 180.418004 
L 106.997714 211.154955 
L 107.560447 220.562832 
L 108.123181 206.609008 
L 108.404547 182.96184 
L 108.685914 186.888853 
L 108.967281 188.34431 
L 109.248648 191.455792 
L 109.530014 182.999936 
L 109.811381 204.4041 
L 110.092748 203.654867 
L 110.374114 217.150976 
L 110.655481 223.209458 
L 110.936848 224.541029 
L 111.218214 217.171116 
L 111.499581 215.947585 
L 112.062314 197.520762 
L 112.343681 225.05577 
L 112.625048 219.884178 
L 112.906415 207.560127 
L 113.187781 217.717294 
L 113.469148 196.127161 
L 113.750515 200.525186 
L 114.031881 208.453604 
L 114.594615 195.138336 
L 114.875981 190.180112 
L 115.157348 209.869168 
L 115.720082 224.543944 
L 116.001448 228.665185 
L 116.282815 224.297878 
L 116.564182 222.629158 
L 117.126915 202.435174 
L 117.408282 205.19501 
L 117.689648 230.856248 
L 118.252382 220.904693 
L 118.533749 221.447 
L 119.096482 234.356894 
L 119.377849 234.988105 
L 119.940582 223.462289 
L 120.221949 212.652765 
L 120.503315 230.308427 
L 120.784682 237.28301 
L 121.066049 224.679382 
L 121.347415 227.175629 
L 121.910149 211.574313 
L 122.191516 207.846201 
L 122.472882 208.805972 
L 122.754249 220.289647 
L 123.035616 214.260446 
L 123.316982 235.825538 
L 123.879716 229.040297 
L 124.161082 237.285951 
L 124.442449 237.479157 
L 124.723816 241.852518 
L 125.005183 235.564747 
L 125.567916 215.768875 
L 125.849283 238.017131 
L 126.130649 239.036409 
L 126.412016 237.131884 
L 126.693383 239.052664 
L 126.974749 232.217727 
L 127.256116 221.860499 
L 127.537483 222.117412 
L 127.81885 227.430646 
L 128.100216 224.681795 
L 128.381583 224.013286 
L 128.66295 243.108155 
L 128.944316 237.840678 
L 129.225683 237.390263 
L 129.50705 240.06796 
L 129.788416 238.25111 
L 130.069783 243.129241 
L 130.35115 239.926173 
L 130.913883 225.816869 
L 131.19525 243.762363 
L 131.476617 242.979074 
L 131.757983 251.63069 
L 132.03935 256.25094 
L 132.320717 257.144514 
L 132.602083 243.045353 
L 132.88345 237.984489 
L 133.164817 236.264982 
L 133.446183 235.275934 
L 133.72755 238.483569 
L 134.008917 243.236816 
L 134.290284 244.590809 
L 134.853017 254.154543 
L 135.134384 252.30426 
L 135.41575 247.174921 
L 135.697117 246.891297 
L 135.978484 242.877091 
L 136.25985 242.132717 
L 136.541217 263.318568 
L 136.822584 261.920146 
L 137.103951 256.77279 
L 137.385317 261.224702 
L 137.666684 262.161632 
L 137.948051 254.962226 
L 138.229417 254.712714 
L 138.510784 252.518941 
L 139.073517 239.121734 
L 139.354884 253.242827 
L 139.636251 254.684796 
L 140.198984 260.376855 
L 140.480351 263.577096 
L 140.761718 256.286696 
L 141.043084 255.580521 
L 141.324451 255.441643 
L 141.605818 255.741315 
L 141.887184 275.175852 
L 142.168551 268.981695 
L 142.731285 261.895296 
L 143.012651 266.778031 
L 143.294018 258.063736 
L 143.575385 260.742657 
L 143.856751 262.214066 
L 144.138118 258.438991 
L 144.419485 257.1077 
L 144.700851 263.263381 
L 144.982218 257.927236 
L 145.544951 269.414734 
L 145.826318 269.084788 
L 146.107685 268.03205 
L 146.389052 269.697637 
L 146.670418 264.844807 
L 146.951785 264.830556 
L 147.233152 279.93565 
L 147.514518 282.571697 
L 147.795885 280.974613 
L 148.077252 280.544708 
L 149.202719 267.900323 
L 149.484085 270.440654 
L 149.765452 266.617075 
L 150.046819 277.322577 
L 150.609552 272.364919 
L 150.890919 273.073453 
L 151.172285 278.044175 
L 151.453652 272.415718 
L 151.735019 274.532705 
L 152.016386 271.136219 
L 152.297752 273.820321 
L 152.579119 287.998867 
L 152.860486 288.262857 
L 153.141852 290.329091 
L 153.423219 287.134027 
L 153.704586 286.735542 
L 153.985952 283.181849 
L 154.267319 275.000403 
L 154.548686 274.16922 
L 154.830052 272.789938 
L 155.111419 269.625053 
L 155.392786 280.447692 
L 155.674153 279.074025 
L 155.955519 270.267241 
L 156.236886 276.29009 
L 156.518253 274.565557 
L 156.799619 271.424964 
L 157.362353 269.664637 
L 157.643719 266.059438 
L 157.925086 277.00425 
L 158.206453 272.415086 
L 158.48782 277.0181 
L 159.050553 268.511832 
L 159.33192 268.887456 
L 159.613286 262.586465 
L 159.894653 261.768252 
L 160.17602 257.993642 
L 160.457386 262.625157 
L 160.738753 271.111496 
L 161.02012 269.103756 
L 161.301487 265.717682 
L 161.582853 264.590829 
L 161.86422 267.089656 
L 162.145587 263.540576 
L 162.426953 262.628863 
L 162.70832 260.387142 
L 162.989687 253.059326 
L 163.271053 259.406769 
L 163.55242 262.11551 
L 163.833787 260.407926 
L 164.115154 262.003659 
L 164.39652 260.575034 
L 164.677887 260.048774 
L 164.959254 257.507531 
L 165.24062 251.273504 
L 165.521987 250.097086 
L 165.803354 249.922923 
L 166.08472 264.69717 
L 166.366087 257.280627 
L 166.647454 259.751207 
L 166.92882 258.148846 
L 167.210187 255.542041 
L 167.491554 258.275554 
L 167.772921 257.684297 
L 168.335654 252.07098 
L 168.617021 255.006804 
L 168.898387 259.894893 
L 169.179754 258.84673 
L 169.461121 258.26813 
L 169.742487 258.780307 
L 170.305221 254.850697 
L 170.867954 246.637092 
L 171.149321 245.118651 
L 171.430688 251.235864 
L 171.712054 252.009583 
L 171.993421 251.586439 
L 172.274788 250.330442 
L 172.556154 248.367274 
L 172.837521 248.794782 
L 173.118888 245.166593 
L 173.400255 247.124943 
L 173.681621 246.664765 
L 173.962988 253.896889 
L 174.244355 253.18718 
L 174.807088 250.533669 
L 175.088455 249.991271 
L 175.369821 251.802806 
L 175.651188 250.785319 
L 175.932555 247.764292 
L 176.213922 240.819644 
L 176.495288 239.290368 
L 176.776655 250.141411 
L 177.058022 247.140662 
L 177.620755 246.455899 
L 177.902122 244.819681 
L 178.464855 238.212213 
L 178.746222 234.829075 
L 179.027588 234.169744 
L 179.590322 243.870756 
L 179.871689 244.824573 
L 180.153055 243.775302 
L 180.434422 241.271248 
L 180.715789 242.101642 
L 181.278522 241.21829 
L 181.841255 231.553356 
L 182.122622 238.51138 
L 182.403989 242.599083 
L 182.685356 240.389054 
L 182.966722 242.865947 
L 183.248089 239.316638 
L 183.529456 239.255299 
L 183.810822 234.988732 
L 184.092189 235.973198 
L 184.654922 233.129646 
L 184.936289 241.382539 
L 185.217656 239.620876 
L 185.499023 240.634429 
L 186.061756 233.642846 
L 186.343123 232.970875 
L 186.624489 229.891687 
L 186.905856 228.711342 
L 187.187223 229.446406 
L 187.468589 235.512014 
L 187.749956 236.958266 
L 188.031323 236.35511 
L 188.312689 236.596282 
L 188.594056 239.546728 
L 188.875423 238.007431 
L 189.15679 235.630879 
L 189.719523 228.99697 
L 190.00089 225.293656 
L 190.282256 232.556673 
L 190.563623 232.841816 
L 190.84499 230.777441 
L 191.126356 232.285847 
L 191.407723 230.434196 
L 191.68909 226.740439 
L 191.970457 228.222352 
L 192.251823 225.124546 
L 192.53319 228.262493 
L 192.814557 233.034772 
L 193.37729 230.234462 
L 193.658657 229.873327 
L 193.940023 228.837577 
L 194.22139 225.220658 
L 194.502757 227.640197 
L 194.784124 225.08026 
L 195.346857 215.076833 
L 195.628224 222.226563 
L 195.90959 225.116713 
L 196.190957 226.011028 
L 196.472324 226.251282 
L 196.75369 221.19685 
L 197.035057 224.619133 
L 197.316424 224.361869 
L 197.597791 223.010226 
L 197.879157 222.622361 
L 198.160524 227.466321 
L 198.441891 227.785679 
L 198.723257 224.669599 
L 199.004624 223.631261 
L 199.285991 224.76193 
L 199.567357 220.698526 
L 200.130091 218.520101 
L 200.411457 219.102072 
L 200.692824 217.553898 
L 200.974191 221.743219 
L 201.255558 219.182147 
L 201.818291 219.312963 
L 202.099658 220.499508 
L 202.381024 225.834234 
L 202.662391 217.932831 
L 202.943758 213.521683 
L 203.225124 211.811934 
L 203.506491 217.570691 
L 203.787858 219.951877 
L 204.069225 218.391602 
L 204.631958 220.026123 
L 205.194691 214.639723 
L 205.476058 213.197969 
L 205.757425 212.58011 
L 206.038791 213.958971 
L 206.320158 221.862085 
L 206.601525 216.613771 
L 206.882892 218.182179 
L 207.164258 215.524404 
L 207.445625 214.405098 
L 207.726992 217.266793 
L 208.008358 215.430473 
L 208.289725 211.73985 
L 208.571092 209.57478 
L 208.852458 212.631812 
L 209.133825 213.606422 
L 209.415192 212.23777 
L 209.696559 210.313206 
L 209.977925 211.919966 
L 210.259292 212.043636 
L 210.540659 212.935478 
L 210.822025 209.989962 
L 211.384759 207.477998 
L 211.666125 212.51425 
L 211.947492 212.49697 
L 212.228859 212.137911 
L 212.510225 213.351126 
L 212.791592 213.128067 
L 213.072959 207.070429 
L 213.354326 207.072211 
L 213.635692 206.736972 
L 213.917059 209.362858 
L 214.198426 213.977396 
L 214.479792 212.957114 
L 214.761159 210.147367 
L 215.042526 208.880146 
L 215.323892 206.827224 
L 215.605259 207.754602 
L 215.886626 207.756483 
L 216.167993 205.333925 
L 216.449359 200.244779 
L 216.730726 198.118886 
L 217.012093 199.38782 
L 217.293459 205.374697 
L 217.574826 205.45 
L 217.856193 207.709298 
L 218.137559 208.86557 
L 218.418926 205.992381 
L 218.700293 206.129092 
L 218.98166 203.408633 
L 219.263026 203.299905 
L 219.544393 206.408896 
L 219.82576 207.549042 
L 220.107126 204.358578 
L 220.388493 206.435542 
L 220.66986 204.576741 
L 220.951226 201.796152 
L 221.232593 200.767332 
L 221.51396 198.261762 
L 221.795327 199.714072 
L 222.076693 199.806414 
L 222.35806 202.101422 
L 222.639427 203.161859 
L 222.920793 201.419523 
L 223.20216 203.566156 
L 223.483527 203.526058 
L 223.764893 203.846716 
L 224.04626 203.20587 
L 224.327627 201.073258 
L 224.608993 197.10014 
L 225.171727 202.698761 
L 225.453094 202.781714 
L 225.73446 201.508354 
L 226.015827 201.300989 
L 226.297194 199.981179 
L 226.57856 200.305488 
L 226.859927 196.957349 
L 227.141294 196.999264 
L 227.42266 194.549189 
L 227.704027 199.623792 
L 227.985394 199.715166 
L 228.266761 199.519799 
L 228.548127 196.979021 
L 228.829494 198.561782 
L 229.110861 196.892819 
L 229.392227 198.069784 
L 229.673594 196.412797 
L 229.954961 193.975491 
L 230.236327 198.862986 
L 230.517694 199.404072 
L 231.080428 198.306375 
L 231.361794 199.178209 
L 231.643161 198.882932 
L 231.924528 198.423769 
L 232.205894 197.197215 
L 232.487261 197.624561 
L 232.768628 192.244626 
L 233.049994 195.852423 
L 233.331361 194.429578 
L 233.612728 194.861385 
L 233.894094 197.941576 
L 234.175461 197.012008 
L 234.456828 196.518659 
L 234.738195 193.988719 
L 235.019561 193.667574 
L 235.300928 190.732774 
L 235.863661 195.633074 
L 236.145028 192.349459 
L 236.426395 195.255813 
L 236.707761 195.673657 
L 236.989128 190.897952 
L 237.270495 190.699258 
L 237.551862 190.710021 
L 237.833228 190.461341 
L 238.114595 190.680975 
L 238.395962 193.071537 
L 238.677328 193.231155 
L 238.958695 191.334148 
L 239.240062 195.342025 
L 239.521428 195.443368 
L 239.802795 194.525336 
L 240.084162 195.442174 
L 240.365529 192.553888 
L 240.646895 188.0615 
L 240.928262 186.316418 
L 241.209629 191.875078 
L 241.490995 191.48436 
L 241.772362 190.246229 
L 242.053729 191.009909 
L 242.335095 188.338311 
L 242.616462 189.301061 
L 242.897829 186.648749 
L 243.179196 189.585337 
L 243.460562 188.325133 
L 244.023296 193.111172 
L 244.304662 193.120123 
L 244.586029 192.108534 
L 244.867396 194.252504 
L 245.430129 188.14291 
L 245.711496 187.396552 
L 245.992862 185.886474 
L 246.274229 186.01219 
L 246.555596 188.667103 
L 246.836963 188.594484 
L 247.118329 187.478876 
L 247.962429 189.252339 
L 248.243796 188.710846 
L 248.806529 179.832572 
L 249.087896 185.988038 
L 249.369263 186.762644 
L 249.65063 188.551756 
L 249.931996 187.976315 
L 250.213363 186.390263 
L 250.49473 185.823774 
L 250.776096 185.994061 
L 251.057463 184.334179 
L 251.33883 185.05451 
L 251.620196 183.133692 
L 251.901563 187.210473 
L 252.18293 187.104509 
L 252.464297 186.052341 
L 252.745663 187.074508 
L 253.308397 182.614177 
L 253.87113 183.411723 
L 254.152497 185.272804 
L 254.433863 185.795427 
L 254.71523 187.375191 
L 254.996597 187.626134 
L 255.277964 184.976488 
L 255.55933 184.83781 
L 255.840697 184.044816 
L 256.122064 184.084726 
L 256.40343 182.645169 
L 256.684797 179.302963 
L 256.966164 178.922164 
L 257.24753 182.084959 
L 257.810264 183.677984 
L 258.09163 183.290936 
L 258.372997 183.419117 
L 258.654364 182.182511 
L 258.935731 183.587821 
L 259.217097 181.595437 
L 259.498464 181.558597 
L 259.779831 185.062772 
L 260.342564 184.469071 
L 260.623931 185.596677 
L 260.905297 184.215493 
L 261.468031 178.357119 
L 261.749398 179.242441 
L 262.030764 179.296483 
L 262.312131 179.020627 
L 262.593498 182.201022 
L 262.874864 182.411844 
L 263.718964 180.352851 
L 264.000331 181.541519 
L 264.563065 178.729449 
L 264.844431 177.45498 
L 265.125798 178.479631 
L 265.407165 180.221239 
L 265.688531 178.753644 
L 265.969898 176.653842 
L 266.251265 178.985433 
L 266.532631 179.716906 
L 266.813998 179.810509 
L 267.095365 177.53212 
L 267.658098 177.651873 
L 267.939465 180.653533 
L 268.220832 181.0191 
L 268.783565 178.357592 
L 269.064932 179.813523 
L 269.346298 177.814357 
L 269.627665 178.260652 
L 269.909032 175.92706 
L 270.190398 175.26038 
L 270.471765 179.356639 
L 270.753132 179.527755 
L 271.034499 178.437729 
L 271.315865 179.905219 
L 271.597232 179.997759 
L 271.878599 176.564884 
L 272.159965 176.060433 
L 272.441332 176.766579 
L 273.004065 174.93879 
L 273.285432 177.591088 
L 273.566799 175.895558 
L 273.848166 175.773884 
L 274.129532 175.876698 
L 274.410899 176.238808 
L 274.692266 175.674216 
L 274.973632 175.887677 
L 275.254999 174.330732 
L 275.536366 171.862515 
L 275.817732 176.999519 
L 276.099099 176.440917 
L 276.661833 176.678302 
L 276.943199 175.579527 
L 277.224566 175.972329 
L 277.505933 175.567247 
L 277.787299 173.757929 
L 278.068666 173.108724 
L 278.350033 173.648551 
L 278.631399 174.865739 
L 278.912766 174.219019 
L 279.194133 174.538359 
L 279.475499 176.172625 
L 279.756866 174.606021 
L 280.038233 173.860671 
L 280.3196 173.789954 
L 280.600966 174.213949 
L 280.882333 173.791134 
L 281.1637 176.527867 
L 281.726433 175.121609 
L 282.0078 174.980603 
L 282.289166 174.979229 
L 282.570533 175.325432 
L 282.8519 176.18863 
L 283.414633 173.29044 
L 283.696 169.993803 
L 283.977367 172.954885 
L 284.258733 174.464424 
L 284.5401 175.35294 
L 284.821467 175.182772 
L 285.102833 176.405424 
L 285.3842 173.930038 
L 285.665567 174.846495 
L 286.2283 171.719997 
L 286.509667 173.912343 
L 287.0724 172.216447 
L 287.353767 173.592526 
L 287.635134 174.396127 
L 287.9165 173.006172 
L 288.197867 170.793535 
L 288.479234 171.698672 
L 288.760601 169.135843 
L 289.323334 172.289216 
L 289.604701 171.774876 
L 289.886067 173.027865 
L 290.448801 171.483139 
L 290.730167 171.917737 
L 291.011534 171.669732 
L 291.292901 171.617088 
L 291.855634 170.80503 
L 292.137001 173.741063 
L 292.418368 172.948631 
L 292.699734 173.821322 
L 292.981101 175.455403 
L 293.262468 175.460038 
L 293.543834 174.640001 
L 294.106568 170.544995 
L 294.387934 170.624711 
L 294.669301 173.378628 
L 295.513401 170.189727 
L 295.794768 170.082996 
L 296.076135 170.56812 
L 296.357501 169.746621 
L 296.638868 170.137681 
L 296.920235 170.249164 
L 297.201601 169.834742 
L 297.482968 172.749034 
L 297.764335 173.100344 
L 298.045702 174.277139 
L 298.327068 174.01232 
L 298.889802 169.191261 
L 299.171168 169.030067 
L 299.452535 170.933336 
L 299.733902 169.134893 
L 300.015268 170.365489 
L 300.296635 171.048284 
L 300.578002 170.404597 
L 300.859368 171.715032 
L 301.140735 172.390599 
L 301.422102 172.406395 
L 301.703469 172.273381 
L 302.547569 166.01015 
L 302.828935 168.643619 
L 303.110302 169.435055 
L 303.391669 170.871468 
L 303.954402 171.556455 
L 304.235769 169.674087 
L 304.517136 170.076446 
L 304.798502 168.933297 
L 305.079869 169.39431 
L 305.361236 171.332787 
L 305.642602 171.641859 
L 305.923969 171.516782 
L 306.205336 172.285939 
L 306.768069 171.576454 
L 307.049436 170.250875 
L 307.330803 170.159376 
L 307.612169 167.785748 
L 307.893536 168.270135 
L 308.174903 171.279611 
L 308.456269 170.422671 
L 308.737636 171.492338 
L 309.019003 169.819746 
L 309.300369 169.844232 
L 309.581736 168.744285 
L 309.863103 169.865665 
L 310.14447 169.666759 
L 310.425836 168.853677 
L 310.707203 171.278466 
L 311.269936 169.685315 
L 311.551303 170.597844 
L 311.83267 170.262224 
L 312.114036 171.335191 
L 312.395403 171.440719 
L 312.67677 170.254339 
L 312.958136 167.3172 
L 313.239503 166.581428 
L 313.52087 169.073703 
L 313.802237 168.992801 
L 314.083603 169.129336 
L 314.36497 170.75872 
L 314.646337 169.537514 
L 314.927703 169.294378 
L 315.20907 169.484206 
L 315.490437 169.835328 
L 316.05317 170.747173 
L 316.334537 170.906487 
L 316.615904 171.27848 
L 316.89727 172.555135 
L 317.460004 170.582436 
L 317.74137 168.515548 
L 318.022737 168.017072 
L 318.304104 168.338618 
L 318.58547 169.028641 
L 318.866837 170.634731 
L 319.148204 170.871528 
L 319.429571 169.222421 
L 319.710937 169.539299 
L 319.992304 168.655728 
L 320.273671 168.660727 
L 320.555037 169.184902 
L 320.836404 168.77461 
L 321.117771 167.848164 
L 321.399137 169.920189 
L 322.243238 166.438948 
L 322.805971 169.349208 
L 323.087338 169.53232 
L 323.368704 169.511532 
L 323.650071 167.991655 
L 323.931438 167.974219 
L 324.494171 171.249235 
L 324.775538 170.116866 
L 325.619638 169.503661 
L 325.901005 168.934177 
L 326.182371 169.590509 
L 326.463738 169.347509 
L 326.745105 170.597363 
L 327.026471 169.807708 
L 327.307838 168.451127 
L 327.589205 169.671247 
L 327.870571 169.455361 
L 328.714672 167.857524 
L 328.996038 169.704807 
L 329.277405 170.762447 
L 329.558772 171.011 
L 329.840138 170.383198 
L 330.121505 170.996584 
L 330.402872 170.467961 
L 330.684238 170.184235 
L 330.965605 169.007042 
L 331.246972 170.028903 
L 331.528339 169.00181 
L 331.809705 167.232969 
L 332.372439 170.274584 
L 332.653805 171.260605 
L 332.935172 169.407713 
L 333.216539 169.654872 
L 333.779272 170.525935 
L 334.342005 167.801855 
L 334.623372 168.474604 
L 334.904739 170.227137 
L 335.186106 170.611422 
L 335.467472 170.455414 
L 335.748839 170.557212 
L 336.030206 170.052226 
L 336.311572 170.59704 
L 336.592939 169.047298 
L 336.874306 168.734002 
L 337.155672 167.146708 
L 337.718406 169.763247 
L 337.999773 170.441654 
L 338.281139 170.658064 
L 338.562506 171.332353 
L 338.843873 168.88935 
L 339.125239 168.07861 
L 339.687973 169.246751 
L 339.969339 168.849154 
L 340.250706 170.769237 
L 340.532073 171.072649 
L 340.81344 171.014291 
L 341.094806 171.768242 
L 341.376173 171.393524 
L 341.65754 171.91937 
L 341.938906 171.725699 
L 342.50164 170.423934 
L 343.34574 172.391689 
L 343.627107 171.023327 
L 343.908473 171.964564 
L 344.471207 172.908682 
L 345.03394 169.272507 
L 345.315307 169.9892 
L 345.87804 172.202757 
L 346.159407 171.120205 
L 346.440773 170.739025 
L 346.72214 172.142989 
L 347.003507 171.349099 
L 347.284874 170.124534 
L 347.56624 170.245793 
L 347.847607 169.935394 
L 348.128974 170.553135 
L 348.41034 172.889746 
L 348.691707 173.756922 
L 348.973074 174.106991 
L 349.25444 173.707579 
L 349.535807 171.344323 
L 349.817174 170.439324 
L 350.098541 171.048985 
L 350.379907 170.700099 
L 350.661274 170.565 
L 350.942641 172.356982 
L 351.224007 171.923814 
L 351.505374 172.125027 
L 352.068107 173.576602 
L 352.349474 173.438337 
L 352.630841 173.991866 
L 353.193574 171.33711 
L 353.474941 171.246166 
L 353.756308 172.673791 
L 354.037674 172.414969 
L 354.319041 171.369483 
L 355.163141 173.800574 
L 355.725875 171.929716 
L 356.007241 172.332298 
L 356.288608 173.653944 
L 356.851341 173.551943 
L 357.414075 172.251765 
L 357.695441 172.528388 
L 357.976808 172.317744 
L 358.258175 173.260631 
L 358.820908 174.370888 
L 359.102275 176.068741 
L 359.383642 174.911684 
L 359.665008 176.602857 
L 359.946375 176.728852 
L 360.227742 175.976195 
L 360.509108 175.943475 
L 360.790475 174.299538 
L 361.071842 173.555234 
L 361.353208 174.954489 
L 361.634575 174.60761 
L 362.197309 176.185252 
L 362.478675 175.188852 
L 362.760042 174.942604 
L 363.041409 175.501645 
L 363.604142 173.876673 
L 363.885509 173.927707 
L 364.166875 173.393569 
L 364.448242 175.429877 
L 365.010976 174.440544 
L 365.292342 174.374212 
L 365.573709 175.950966 
L 365.855076 175.998035 
L 366.136442 175.698916 
L 366.417809 175.227613 
L 366.699176 175.237986 
L 366.980542 176.933864 
L 367.261909 177.017616 
L 367.543276 175.880002 
L 367.824643 177.127957 
L 368.106009 176.926156 
L 368.387376 176.89593 
L 368.668743 175.7856 
L 368.950109 175.341055 
L 369.231476 175.937818 
L 369.512843 176.098438 
L 369.794209 176.710822 
L 370.075576 177.621633 
L 370.356943 177.854121 
L 370.638309 178.685145 
L 370.919676 177.269502 
L 371.201043 176.568126 
L 371.763776 176.922002 
L 372.045143 176.763853 
L 372.32651 179.165074 
L 372.607876 178.35595 
L 372.889243 178.806121 
L 373.17061 178.572335 
L 373.451976 176.976323 
L 373.733343 177.261144 
L 374.01471 178.059615 
L 374.296077 178.232144 
L 374.577443 177.141638 
L 374.85881 176.821908 
L 375.140177 177.725542 
L 375.421543 177.770503 
L 375.70291 178.705914 
L 375.984277 177.642166 
L 376.54701 179.233427 
L 376.828377 178.752059 
L 377.109744 177.857964 
L 377.39111 177.596774 
L 377.672477 180.175377 
L 377.953844 179.445234 
L 378.516577 181.084553 
L 379.07931 179.506714 
L 379.360677 180.260248 
L 379.642044 180.123782 
L 379.92341 180.944818 
L 380.204777 180.1351 
L 380.486144 181.359986 
L 381.048877 181.104123 
L 381.330244 181.512561 
L 381.892977 180.205758 
L 382.174344 178.881727 
L 382.455711 178.540294 
L 382.737077 178.793645 
L 383.018444 181.188618 
L 383.299811 181.906106 
L 383.581178 182.118078 
L 383.862544 182.624304 
L 384.143911 182.626723 
L 384.425278 182.284173 
L 384.706644 182.373902 
L 384.988011 181.550752 
L 385.269378 182.105488 
L 385.550744 181.76647 
L 385.832111 182.353192 
L 386.113478 181.929202 
L 386.394845 182.873089 
L 386.676211 182.517876 
L 386.957578 182.504515 
L 387.520311 184.08969 
L 388.083045 183.247147 
L 388.645778 184.213642 
L 388.927145 183.221727 
L 389.208512 183.62811 
L 389.771245 184.135712 
L 390.052612 183.28475 
L 390.333978 183.421424 
L 390.615345 183.257942 
L 390.896712 183.827181 
L 391.178078 185.258841 
L 391.459445 185.242361 
L 391.740812 184.563911 
L 392.022178 184.565492 
L 392.303545 185.541359 
L 392.584912 184.239139 
L 392.866279 185.048219 
L 393.429012 182.883989 
L 393.710379 184.707643 
L 393.991745 185.134815 
L 394.273112 185.282866 
L 394.554479 185.985185 
L 394.835845 187.157034 
L 395.117212 185.481447 
L 395.398579 185.352387 
L 395.679946 185.434897 
L 395.961312 185.209601 
L 396.242679 186.035036 
L 396.524046 186.358001 
L 396.805412 187.275489 
L 397.368146 187.529785 
L 397.649512 187.960632 
L 397.930879 187.526423 
L 398.212246 189.249603 
L 398.493613 187.666984 
L 398.774979 187.330857 
L 399.056346 189.12624 
L 399.337713 189.963807 
L 399.619079 189.024155 
L 399.900446 188.719891 
L 400.181813 189.60161 
L 400.463179 190.007612 
L 400.744546 190.191911 
L 401.025913 190.01405 
L 401.30728 189.491446 
L 401.588646 188.687905 
L 401.870013 190.204066 
L 402.15138 189.246186 
L 402.432746 189.461322 
L 402.714113 190.018795 
L 402.99548 190.045861 
L 403.558213 189.696271 
L 403.83958 189.956003 
L 404.120946 190.570656 
L 404.402313 190.349796 
L 404.68368 191.100993 
L 404.965047 191.157036 
L 405.52778 192.46567 
L 405.809147 192.458362 
L 406.090513 192.604203 
L 406.653247 191.125824 
L 406.934613 190.892334 
L 407.497347 193.16032 
L 407.778714 193.652489 
L 408.06008 193.719879 
L 408.341447 193.650911 
L 408.90418 192.112818 
L 409.185547 192.332661 
L 409.466914 193.047384 
L 409.74828 192.845346 
L 410.029647 194.784865 
L 410.311014 194.79019 
L 410.873747 194.443337 
L 411.155114 195.342098 
L 411.436481 195.450758 
L 411.717847 195.692688 
L 412.280581 193.74863 
L 412.843314 195.326553 
L 413.124681 195.036979 
L 413.406047 196.601044 
L 413.687414 196.501367 
L 413.968781 197.120201 
L 414.250148 197.034985 
L 414.531514 196.716119 
L 414.812881 195.668824 
L 415.094248 196.504156 
L 415.375614 197.715187 
L 415.656981 197.528155 
L 415.938348 197.515895 
L 416.219714 196.779541 
L 416.501081 197.448279 
L 417.063815 197.957839 
L 417.345181 197.902036 
L 417.907915 199.542148 
L 419.033381 201.495251 
L 419.314748 200.381374 
L 419.596115 199.796705 
L 419.877482 199.583184 
L 420.158848 199.582973 
L 420.721582 201.350844 
L 421.002948 200.854003 
L 421.284315 200.739512 
L 421.565682 200.794147 
L 421.847048 200.384863 
L 422.128415 201.408853 
L 422.409782 201.12593 
L 422.691149 201.068285 
L 422.972515 201.457633 
L 423.253882 202.697604 
L 423.535249 202.15002 
L 423.816615 202.800931 
L 423.816615 202.800931 
" style="fill:none;stroke:#1f77b4;stroke-linecap:square;stroke-width:1.5;"/>
   </g>
   <g id="patch_3">
    <path d="M 56 303.64 
L 56 10.8 
" style="fill:none;stroke:#000000;stroke-linecap:square;stroke-linejoin:miter;stroke-width:0.8;"/>
   </g>
   <g id="patch_4">
    <path d="M 441.331692 303.64 
L 441.331692 10.8 
" style="fill:none;stroke:#000000;stroke-linecap:square;stroke-linejoin:miter;stroke-width:0.8;"/>
   </g>
   <g id="patch_5">
    <path d="M 56 303.64 
L 441.331692 303.64 
" style="fill:none;stroke:#000000;stroke-linecap:square;stroke-linejoin:miter;stroke-width:0.8;"/>
   </g>
   <g id="patch_6">
    <path d="M 56 10.8 
L 441.331692 10.8 
" style="fill:none;stroke:#000000;stroke-linecap:square;stroke-linejoin:miter;stroke-width:0.8;"/>
   </g>
   <g id="legend_1">
    <g id="patch_7">
     <path d="M 366.34888 33.75625 
L 434.331692 33.75625 
Q 436.331692 33.75625 436.331692 31.75625 
L 436.331692 17.8 
Q 436.331692 15.8 434.331692 15.8 
L 366.34888 15.8 
Q 364.34888 15.8 364.34888 17.8 
L 364.34888 31.75625 
Q 364.34888 33.75625 366.34888 33.75625 
z
" style="fill:#ffffff;opacity:0.8;stroke:#cccccc;stroke-linejoin:miter;"/>
    </g>
    <g id="line2d_16">
     <path d="M 368.34888 23.898438 
L 388.34888 23.898438 
" style="fill:none;stroke:#1f77b4;stroke-linecap:square;stroke-width:1.5;"/>
    </g>
    <g id="line2d_17"/>
    <g id="text_17">
     <!-- vol_diff -->
     <g transform="translate(396.34888 27.398438)scale(0.1 -0.1)">
      <defs>
       <path d="M 50.984375 -16.609375 
L 50.984375 -23.578125 
L -0.984375 -23.578125 
L -0.984375 -16.609375 
z
" id="DejaVuSans-95"/>
       <path d="M 45.40625 46.390625 
L 45.40625 75.984375 
L 54.390625 75.984375 
L 54.390625 0 
L 45.40625 0 
L 45.40625 8.203125 
Q 42.578125 3.328125 38.25 0.953125 
Q 33.9375 -1.421875 27.875 -1.421875 
Q 17.96875 -1.421875 11.734375 6.484375 
Q 5.515625 14.40625 5.515625 27.296875 
Q 5.515625 40.1875 11.734375 48.09375 
Q 17.96875 56 27.875 56 
Q 33.9375 56 38.25 53.625 
Q 42.578125 51.265625 45.40625 46.390625 
z
M 14.796875 27.296875 
Q 14.796875 17.390625 18.875 11.75 
Q 22.953125 6.109375 30.078125 6.109375 
Q 37.203125 6.109375 41.296875 11.75 
Q 45.40625 17.390625 45.40625 27.296875 
Q 45.40625 37.203125 41.296875 42.84375 
Q 37.203125 48.484375 30.078125 48.484375 
Q 22.953125 48.484375 18.875 42.84375 
Q 14.796875 37.203125 14.796875 27.296875 
z
" id="DejaVuSans-100"/>
       <path d="M 37.109375 75.984375 
L 37.109375 68.5 
L 28.515625 68.5 
Q 23.6875 68.5 21.796875 66.546875 
Q 19.921875 64.59375 19.921875 59.515625 
L 19.921875 54.6875 
L 34.71875 54.6875 
L 34.71875 47.703125 
L 19.921875 47.703125 
L 19.921875 0 
L 10.890625 0 
L 10.890625 47.703125 
L 2.296875 47.703125 
L 2.296875 54.6875 
L 10.890625 54.6875 
L 10.890625 58.5 
Q 10.890625 67.625 15.140625 71.796875 
Q 19.390625 75.984375 28.609375 75.984375 
z
" id="DejaVuSans-102"/>
      </defs>
      <use xlink:href="#DejaVuSans-118"/>
      <use x="59.179688" xlink:href="#DejaVuSans-111"/>
      <use x="120.361328" xlink:href="#DejaVuSans-108"/>
      <use x="148.144531" xlink:href="#DejaVuSans-95"/>
      <use x="198.144531" xlink:href="#DejaVuSans-100"/>
      <use x="261.621094" xlink:href="#DejaVuSans-105"/>
      <use x="289.404297" xlink:href="#DejaVuSans-102"/>
      <use x="324.609375" xlink:href="#DejaVuSans-102"/>
     </g>
    </g>
   </g>
  </g>
 </g>
 <defs>
  <clipPath id="p62f4a4c840">
   <rect height="292.84" width="385.331692" x="56" y="10.8"/>
  </clipPath>
 </defs>
</svg>
