<?xml version="1.0" encoding="UTF-8" standalone="no"?>
<!-- Created with Inkscape (http://www.inkscape.org/) -->

<svg
   version="1.1"
   id="svg2"
   xml:space="preserve"
   width="1335.3083"
   height="975.62665"
   viewBox="0 0 1335.3083 975.62665"
   sodipodi:docname="energyvstime.pdf"
   xmlns:inkscape="http://www.inkscape.org/namespaces/inkscape"
   xmlns:sodipodi="http://sodipodi.sourceforge.net/DTD/sodipodi-0.dtd"
   xmlns="http://www.w3.org/2000/svg"
   xmlns:svg="http://www.w3.org/2000/svg"><defs
     id="defs6"><clipPath
       clipPathUnits="userSpaceOnUse"
       id="clipPath100"><path
         d="m 82.73125,72.2 h 892.8 v 652.32 h -892.8 z"
         id="path98" /></clipPath><clipPath
       clipPathUnits="userSpaceOnUse"
       id="clipPath110"><path
         d="m 82.73125,72.2 h 892.8 v 652.32 h -892.8 z"
         id="path108" /></clipPath><clipPath
       clipPathUnits="userSpaceOnUse"
       id="clipPath120"><path
         d="m 82.73125,72.2 h 892.8 v 652.32 h -892.8 z"
         id="path118" /></clipPath><clipPath
       clipPathUnits="userSpaceOnUse"
       id="clipPath130"><path
         d="m 82.73125,72.2 h 892.8 v 652.32 h -892.8 z"
         id="path128" /></clipPath></defs><sodipodi:namedview
     id="namedview4"
     pagecolor="#ffffff"
     bordercolor="#666666"
     borderopacity="1.0"
     inkscape:pageshadow="2"
     inkscape:pageopacity="0.0"
     inkscape:pagecheckerboard="0" /><g
     id="g8"
     inkscape:groupmode="layer"
     inkscape:label="energyvstime"
     transform="matrix(1.3333333,0,0,-1.3333333,0,975.62667)"><path
       d="M 0,0 H 1001.4812 V 731.72 H 0 Z"
       style="fill:#ffffff;fill-opacity:1;fill-rule:nonzero;stroke:none"
       id="path10" /><path
       d="m 82.73125,72.2 h 892.8 v 652.32 h -892.8 z"
       style="fill:#ffffff;fill-opacity:1;fill-rule:nonzero;stroke:none"
       id="path12" /><path
       d="M 82.73125,72.2 V 68.7"
       style="fill:#000000;fill-opacity:1;fill-rule:nonzero;stroke:#000000;stroke-width:0.8;stroke-linecap:butt;stroke-linejoin:round;stroke-miterlimit:10;stroke-dasharray:none;stroke-opacity:1"
       id="path14" /><text
       transform="matrix(1,0,0,-1,63.98125,44.715625)"
       style="font-variant:normal;font-weight:normal;font-size:30px;font-family:STIXGeneral;-inkscape-font-specification:STIXGeneral-Regular;writing-mode:lr-tb;fill:#000000;fill-opacity:1;fill-rule:nonzero;stroke:none"
       id="text18"><tspan
         x="0 15 22.5"
         y="0"
         sodipodi:role="line"
         id="tspan16">0.0</tspan></text><path
       d="M 261.29125,72.2 V 68.7"
       style="fill:#000000;fill-opacity:1;fill-rule:nonzero;stroke:#000000;stroke-width:0.8;stroke-linecap:butt;stroke-linejoin:round;stroke-miterlimit:10;stroke-dasharray:none;stroke-opacity:1"
       id="path20" /><text
       transform="matrix(1,0,0,-1,242.54125,44.715625)"
       style="font-variant:normal;font-weight:normal;font-size:30px;font-family:STIXGeneral;-inkscape-font-specification:STIXGeneral-Regular;writing-mode:lr-tb;fill:#000000;fill-opacity:1;fill-rule:nonzero;stroke:none"
       id="text24"><tspan
         x="0 15 22.5"
         y="0"
         sodipodi:role="line"
         id="tspan22">0.2</tspan></text><path
       d="M 439.85125,72.2 V 68.7"
       style="fill:#000000;fill-opacity:1;fill-rule:nonzero;stroke:#000000;stroke-width:0.8;stroke-linecap:butt;stroke-linejoin:round;stroke-miterlimit:10;stroke-dasharray:none;stroke-opacity:1"
       id="path26" /><text
       transform="matrix(1,0,0,-1,421.10125,44.715625)"
       style="font-variant:normal;font-weight:normal;font-size:30px;font-family:STIXGeneral;-inkscape-font-specification:STIXGeneral-Regular;writing-mode:lr-tb;fill:#000000;fill-opacity:1;fill-rule:nonzero;stroke:none"
       id="text30"><tspan
         x="0 15 22.5"
         y="0"
         sodipodi:role="line"
         id="tspan28">0.4</tspan></text><path
       d="M 618.41125,72.2 V 68.7"
       style="fill:#000000;fill-opacity:1;fill-rule:nonzero;stroke:#000000;stroke-width:0.8;stroke-linecap:butt;stroke-linejoin:round;stroke-miterlimit:10;stroke-dasharray:none;stroke-opacity:1"
       id="path32" /><text
       transform="matrix(1,0,0,-1,599.66125,44.715625)"
       style="font-variant:normal;font-weight:normal;font-size:30px;font-family:STIXGeneral;-inkscape-font-specification:STIXGeneral-Regular;writing-mode:lr-tb;fill:#000000;fill-opacity:1;fill-rule:nonzero;stroke:none"
       id="text36"><tspan
         x="0 15 22.5"
         y="0"
         sodipodi:role="line"
         id="tspan34">0.6</tspan></text><path
       d="M 796.97125,72.2 V 68.7"
       style="fill:#000000;fill-opacity:1;fill-rule:nonzero;stroke:#000000;stroke-width:0.8;stroke-linecap:butt;stroke-linejoin:round;stroke-miterlimit:10;stroke-dasharray:none;stroke-opacity:1"
       id="path38" /><text
       transform="matrix(1,0,0,-1,778.22125,44.715625)"
       style="font-variant:normal;font-weight:normal;font-size:30px;font-family:STIXGeneral;-inkscape-font-specification:STIXGeneral-Regular;writing-mode:lr-tb;fill:#000000;fill-opacity:1;fill-rule:nonzero;stroke:none"
       id="text42"><tspan
         x="0 15 22.5"
         y="0"
         sodipodi:role="line"
         id="tspan40">0.8</tspan></text><path
       d="M 975.53125,72.2 V 68.7"
       style="fill:#000000;fill-opacity:1;fill-rule:nonzero;stroke:#000000;stroke-width:0.8;stroke-linecap:butt;stroke-linejoin:round;stroke-miterlimit:10;stroke-dasharray:none;stroke-opacity:1"
       id="path44" /><text
       transform="matrix(1,0,0,-1,956.78125,44.715625)"
       style="font-variant:normal;font-weight:normal;font-size:30px;font-family:STIXGeneral;-inkscape-font-specification:STIXGeneral-Regular;writing-mode:lr-tb;fill:#000000;fill-opacity:1;fill-rule:nonzero;stroke:none"
       id="text48"><tspan
         x="0 15 22.5"
         y="0"
         sodipodi:role="line"
         id="tspan46">1.0</tspan></text><text
       transform="matrix(1,0,0,-1,428.70156,13.715625)"
       style="font-variant:normal;font-weight:normal;font-size:30px;font-family:STIXGeneral;-inkscape-font-specification:STIXGeneral-Regular;writing-mode:lr-tb;fill:#000000;fill-opacity:1;fill-rule:nonzero;stroke:none"
       id="text52"><tspan
         x="0 21.66 36.66 46.650002 69.989998 83.309998 91.650002 99.989998 111.66 124.98 139.98 147.48 155.82001 164.16 187.5"
         y="0"
         sodipodi:role="line"
         id="tspan50">Normalised time</tspan></text><path
       d="m 82.73125,101.85091 h -3.5"
       style="fill:#000000;fill-opacity:1;fill-rule:nonzero;stroke:#000000;stroke-width:0.8;stroke-linecap:butt;stroke-linejoin:round;stroke-miterlimit:10;stroke-dasharray:none;stroke-opacity:1"
       id="path54" /><text
       transform="matrix(1,0,0,-1,38.23125,91.608722)"
       style="font-variant:normal;font-weight:normal;font-size:30px;font-family:STIXGeneral;-inkscape-font-specification:STIXGeneral-Regular;writing-mode:lr-tb;fill:#000000;fill-opacity:1;fill-rule:nonzero;stroke:none"
       id="text58"><tspan
         x="0 15 22.5"
         y="0"
         sodipodi:role="line"
         id="tspan56">0.0</tspan></text><path
       d="m 82.73125,220.45291 h -3.5"
       style="fill:#000000;fill-opacity:1;fill-rule:nonzero;stroke:#000000;stroke-width:0.8;stroke-linecap:butt;stroke-linejoin:round;stroke-miterlimit:10;stroke-dasharray:none;stroke-opacity:1"
       id="path60" /><text
       transform="matrix(1,0,0,-1,38.23125,210.21072)"
       style="font-variant:normal;font-weight:normal;font-size:30px;font-family:STIXGeneral;-inkscape-font-specification:STIXGeneral-Regular;writing-mode:lr-tb;fill:#000000;fill-opacity:1;fill-rule:nonzero;stroke:none"
       id="text64"><tspan
         x="0 15 22.5"
         y="0"
         sodipodi:role="line"
         id="tspan62">0.2</tspan></text><path
       d="m 82.73125,339.05491 h -3.5"
       style="fill:#000000;fill-opacity:1;fill-rule:nonzero;stroke:#000000;stroke-width:0.8;stroke-linecap:butt;stroke-linejoin:round;stroke-miterlimit:10;stroke-dasharray:none;stroke-opacity:1"
       id="path66" /><text
       transform="matrix(1,0,0,-1,38.23125,328.81272)"
       style="font-variant:normal;font-weight:normal;font-size:30px;font-family:STIXGeneral;-inkscape-font-specification:STIXGeneral-Regular;writing-mode:lr-tb;fill:#000000;fill-opacity:1;fill-rule:nonzero;stroke:none"
       id="text70"><tspan
         x="0 15 22.5"
         y="0"
         sodipodi:role="line"
         id="tspan68">0.4</tspan></text><path
       d="m 82.73125,457.65691 h -3.5"
       style="fill:#000000;fill-opacity:1;fill-rule:nonzero;stroke:#000000;stroke-width:0.8;stroke-linecap:butt;stroke-linejoin:round;stroke-miterlimit:10;stroke-dasharray:none;stroke-opacity:1"
       id="path72" /><text
       transform="matrix(1,0,0,-1,38.23125,447.41472)"
       style="font-variant:normal;font-weight:normal;font-size:30px;font-family:STIXGeneral;-inkscape-font-specification:STIXGeneral-Regular;writing-mode:lr-tb;fill:#000000;fill-opacity:1;fill-rule:nonzero;stroke:none"
       id="text76"><tspan
         x="0 15 22.5"
         y="0"
         sodipodi:role="line"
         id="tspan74">0.6</tspan></text><path
       d="m 82.73125,576.25891 h -3.5"
       style="fill:#000000;fill-opacity:1;fill-rule:nonzero;stroke:#000000;stroke-width:0.8;stroke-linecap:butt;stroke-linejoin:round;stroke-miterlimit:10;stroke-dasharray:none;stroke-opacity:1"
       id="path78" /><text
       transform="matrix(1,0,0,-1,38.23125,566.01672)"
       style="font-variant:normal;font-weight:normal;font-size:30px;font-family:STIXGeneral;-inkscape-font-specification:STIXGeneral-Regular;writing-mode:lr-tb;fill:#000000;fill-opacity:1;fill-rule:nonzero;stroke:none"
       id="text82"><tspan
         x="0 15 22.5"
         y="0"
         sodipodi:role="line"
         id="tspan80">0.8</tspan></text><path
       d="m 82.73125,694.86091 h -3.5"
       style="fill:#000000;fill-opacity:1;fill-rule:nonzero;stroke:#000000;stroke-width:0.8;stroke-linecap:butt;stroke-linejoin:round;stroke-miterlimit:10;stroke-dasharray:none;stroke-opacity:1"
       id="path84" /><text
       transform="matrix(1,0,0,-1,38.23125,684.61872)"
       style="font-variant:normal;font-weight:normal;font-size:30px;font-family:STIXGeneral;-inkscape-font-specification:STIXGeneral-Regular;writing-mode:lr-tb;fill:#000000;fill-opacity:1;fill-rule:nonzero;stroke:none"
       id="text88"><tspan
         x="0 15 22.5"
         y="0"
         sodipodi:role="line"
         id="tspan86">1.0</tspan></text><text
       transform="matrix(0,1,1,0,27.684375,283.78969)"
       style="font-variant:normal;font-weight:normal;font-size:30px;font-family:STIXGeneral;-inkscape-font-specification:STIXGeneral-Regular;writing-mode:lr-tb;fill:#000000;fill-opacity:1;fill-rule:nonzero;stroke:none"
       id="text92"><tspan
         x="0 21.66 36.66 46.650002 69.989998 83.309998 91.650002 99.989998 111.66 124.98 139.98 147.48 160.8 175.8 189.12 199.11 214.11"
         y="0"
         sodipodi:role="line"
         id="tspan90">Normalised energy</tspan></text><g
       id="g94"><g
         id="g96"
         clip-path="url(#clipPath100)"><path
           d="m 82.73125,694.86091 h 892.8 v 0"
           style="fill:none;stroke:#ff0000;stroke-width:2;stroke-linecap:square;stroke-linejoin:round;stroke-miterlimit:10;stroke-dasharray:none;stroke-opacity:1"
           id="path102" /></g></g><g
       id="g104"><g
         id="g106"
         clip-path="url(#clipPath110)"><path
           d="m 82.73125,694.86091 87.23542,-0.10262 14.99359,-0.2464 12.26748,-0.41838 9.54137,-0.53393 8.17832,-0.66834 6.81527,-0.74969 6.81527,-0.95722 6.81526,-1.17403 6.81527,-1.42215 6.81527,-1.6819 5.45221,-1.59349 5.45222,-1.83297 5.45221,-2.07538 5.45221,-2.31992 5.45222,-2.6065 4.08916,-2.15453 5.45221,-3.16144 4.08916,-2.59604 4.08916,-2.79594 5.45222,-4.06103 5.45221,-4.40992 4.08916,-3.5622 4.08916,-3.79312 4.08916,-4.04167 5.45221,-5.75731 5.45222,-6.20029 5.45221,-6.63386 4.08916,-5.28995 5.45222,-7.50349 5.45221,-7.97149 5.45221,-8.42801 5.45222,-8.89985 5.45221,-9.37997 5.45221,-9.83857 5.45222,-10.32871 5.45221,-10.79691 5.45222,-11.2737 5.45221,-11.73595 5.45221,-12.15226 6.81527,-15.74866 6.81527,-16.29298 6.81526,-16.84211 8.17833,-20.81556 8.17832,-21.46626 12.26748,-32.99677 17.71969,-48.51473 12.26748,-33.15275 9.54138,-25.07936 6.81526,-17.32304 6.81527,-16.74194 5.45221,-12.89151 5.45222,-12.39125 5.45221,-11.8324 5.45222,-11.2108 5.45221,-10.59208 4.08916,-7.49576 4.08916,-7.0642 4.08916,-6.62859 4.08916,-6.17777 4.08916,-5.68794 4.08916,-5.19696 4.08916,-4.69382 2.72611,-2.85224 2.72611,-2.61675 2.7261,-2.3867 2.72611,-2.14943 2.72611,-1.90109 2.7261,-1.65651 2.72611,-1.41567 2.72611,-1.17191 2.7261,-0.92796 2.72611,-0.68372 2.72611,-0.43861 2.7261,-0.19285 2.72611,0.0501 2.72611,0.29266 2.7261,0.53396 2.72611,0.77306 2.72611,1.00913 2.72611,1.24238 2.7261,1.47324 2.72611,1.70366 2.72611,1.92709 2.7261,2.16616 2.72611,2.40844 2.72611,2.62484 2.7261,2.85688 4.08916,4.67868 4.08916,5.10304 4.08916,5.5187 4.08916,5.91577 4.08916,6.32575 4.08917,6.71383 5.45221,9.48444 5.45221,10.07008 5.45222,10.62624 5.45221,11.047 6.81527,14.3147 6.81526,14.79065 12.26749,27.26863 12.26748,27.772 9.54137,21.4788 12.26748,26.81072 6.81527,14.37889 6.81527,13.86721 6.81526,13.33384 5.45222,10.20397 5.45221,9.75186 5.45221,9.31849 5.45222,8.86354 5.45221,8.34386 5.45222,7.84391 4.08916,5.53924 4.08916,5.23067 4.08916,4.93457 4.08916,4.64289 4.08916,4.36495 4.08916,4.07819 4.08916,3.76573 4.08916,3.48631 4.08916,3.23765 4.08916,2.96649 4.08916,2.71094 4.08916,2.4862 5.45221,3.00165 5.45222,2.67058 5.45221,2.37229 5.45221,2.09699 5.45222,1.82661 5.45221,1.5966 5.45222,1.37658 5.45221,1.16642 6.81527,1.20006 6.81526,0.9528 6.81527,0.7429 8.17832,0.6364 9.54138,0.49383 10.90442,0.33262 14.99359,0.20808 24.53496,0.069 10.90443,7e-4 v 0"
           style="fill:none;stroke:#008000;stroke-width:2;stroke-linecap:butt;stroke-linejoin:round;stroke-miterlimit:10;stroke-dasharray:7.4, 3.2;stroke-dashoffset:0;stroke-opacity:1"
           id="path112" /></g></g><g
       id="g114"><g
         id="g116"
         clip-path="url(#clipPath120)"><path
           d="m 82.73125,101.85091 226.26687,0.10565 32.71328,0.24424 23.17191,0.37838 19.08275,0.5111 16.35664,0.65383 14.99359,0.82676 13.63053,0.9904 12.26748,1.12378 10.90443,1.22232 10.90443,1.46173 10.90443,1.71358 9.54137,1.70142 9.54137,1.91671 9.54138,2.16143 8.17832,2.05948 10.90443,3.00143 8.17832,2.50125 9.54137,3.16087 8.17832,2.96283 9.54138,3.70415 9.54137,3.97375 9.54137,4.26825 8.17832,3.85486 10.90443,5.39554 10.90443,5.68166 9.54137,5.20601 9.54138,5.54755 20.4458,12.29171 19.08275,12.06459 28.62412,18.2045 19.08275,11.73349 10.90442,6.42152 9.54138,5.40025 8.17832,4.44194 8.17832,4.20412 8.17832,3.96612 8.17832,3.70391 6.81527,2.88981 6.81526,2.67529 8.17833,2.95069 6.81526,2.22448 6.81527,2.00016 6.81527,1.78393 6.81527,1.5433 6.81526,1.33952 8.17832,1.32531 9.54138,1.28562 9.54137,1.04386 9.54137,0.85205 10.90443,0.75403 10.90443,0.53742 13.63053,0.45925 14.99359,0.28173 20.4458,0.16316 40.89161,0.0456 5.45221,1e-5 v 0"
           style="fill:none;stroke:#0000ff;stroke-width:2;stroke-linecap:butt;stroke-linejoin:round;stroke-miterlimit:10;stroke-dasharray:2, 3.3;stroke-dashoffset:0;stroke-opacity:1"
           id="path122" /></g></g><g
       id="g124"><g
         id="g126"
         clip-path="url(#clipPath130)"><path
           d="m 82.73125,101.85091 87.23542,0.10262 14.99359,0.24638 12.26748,0.41834 9.54137,0.53381 8.17832,0.66813 6.81527,0.74938 6.81527,0.9567 6.81526,1.17321 6.81527,1.42089 6.81527,1.68002 5.45221,1.59142 5.45222,1.83024 5.45221,2.07179 5.45221,2.31529 5.45222,2.6006 4.08916,2.14912 5.45221,3.15258 4.08916,2.58801 4.08916,2.78652 5.45222,4.04584 5.45221,4.39161 4.08916,3.54607 4.08916,3.77453 4.08916,4.02031 5.45221,5.72385 5.45222,6.16054 5.45221,6.58759 4.08916,5.25009 5.45222,7.44256 5.45221,7.89947 5.45221,8.34468 5.45222,8.80348 5.45221,9.26995 5.45221,9.71481 5.45222,10.18882 5.45221,10.63787 5.45222,11.09196 6.81526,14.47228 6.81527,15.09397 8.17832,18.79182 6.81527,16.2272 8.17832,20.0346 8.17832,20.60114 12.26748,31.65583 29.98718,77.65917 8.17832,20.27708 6.81526,16.3189 6.81527,15.65642 5.45221,11.99071 5.45222,11.44253 5.45221,10.84082 5.45222,10.20147 4.08916,7.19083 4.08916,6.78619 4.08916,6.34977 4.08916,5.88166 4.08916,5.4092 4.08916,4.90617 2.7261,2.96421 2.72611,2.72516 2.72611,2.48772 2.72611,2.24506 2.7261,2.00117 2.72611,1.75297 2.72611,1.50207 2.7261,1.24608 2.72611,0.98325 2.72611,0.70887 2.7261,0.44193 2.72611,0.17703 2.72611,-0.0779 2.7261,-0.34638 2.72611,-0.61449 2.72611,-0.878 2.7261,-1.13601 2.72611,-1.39696 2.72611,-1.66016 2.7261,-1.92085 2.72611,-2.1779 2.72611,-2.43052 2.72611,-2.67885 2.7261,-2.92558 2.72611,-3.1754 2.72611,-3.4124 2.7261,-3.68622 4.08916,-6.04103 4.08916,-6.58624 4.08916,-7.11289 4.08916,-7.53447 4.08916,-7.9544 4.08916,-8.36522 4.08916,-8.8305 5.45222,-12.44024 5.45221,-13.04515 5.45222,-13.68408 6.81526,-17.84313 6.81527,-18.49687 8.17832,-22.79512 17.7197,-50.49654 23.1719,-66.02547 8.17832,-22.38549 8.17833,-21.55342 6.81526,-17.21053 5.45222,-13.24007 5.45221,-12.71021 5.45221,-12.14807 5.45222,-11.59252 4.08916,-8.31157 4.08916,-7.93993 5.45221,-10.02234 4.08916,-7.10276 4.08916,-6.72937 4.08916,-6.34031 4.08916,-5.96136 4.08916,-5.6035 4.08916,-5.25348 4.08916,-4.84492 4.08917,-4.47952 4.08916,-4.14854 4.08915,-3.80645 4.08917,-3.46561 4.08916,-3.17108 4.08916,-2.91436 4.08916,-2.67598 4.08916,-2.44792 4.08916,-2.23648 5.45221,-2.69812 4.08916,-1.79124 5.45221,-2.12739 5.45222,-1.84785 5.45221,-1.57647 5.45222,-1.32592 5.45221,-1.11526 6.81527,-1.13206 6.81526,-0.87254 6.81527,-0.63893 8.17832,-0.54551 9.54138,-0.4047 12.26748,-0.27267 17.71969,-0.13353 23.17191,-0.0161 v 0"
           style="fill:none;stroke:#000000;stroke-width:2;stroke-linecap:butt;stroke-linejoin:round;stroke-miterlimit:10;stroke-dasharray:12.8, 3.2, 2, 3.2;stroke-dashoffset:0;stroke-opacity:1"
           id="path132" /></g></g><g
       id="g134"><path
         d="M 82.73125,72.2 V 724.52"
         style="fill:none;stroke:#000000;stroke-width:0.8;stroke-linecap:square;stroke-linejoin:miter;stroke-miterlimit:10;stroke-dasharray:none;stroke-opacity:1"
         id="path136" /><path
         d="M 975.53125,72.2 V 724.52"
         style="fill:none;stroke:#000000;stroke-width:0.8;stroke-linecap:square;stroke-linejoin:miter;stroke-miterlimit:10;stroke-dasharray:none;stroke-opacity:1"
         id="path138" /><path
         d="m 82.73125,72.2 h 892.8"
         style="fill:none;stroke:#000000;stroke-width:0.8;stroke-linecap:square;stroke-linejoin:miter;stroke-miterlimit:10;stroke-dasharray:none;stroke-opacity:1"
         id="path140" /><path
         d="m 82.73125,724.52 h 892.8"
         style="fill:none;stroke:#000000;stroke-width:0.8;stroke-linecap:square;stroke-linejoin:miter;stroke-miterlimit:10;stroke-dasharray:none;stroke-opacity:1"
         id="path142" /><path
         d="m 103.73125,308.82875 h 258.5 c 4,0 6,2 6,6 v 167.0625 c 0,4 -2,6 -6,6 h -258.5 c -4,0 -6,-2 -6,-6 v -167.0625 c 0,-4 2,-6 6,-6 z"
         style="fill:#ffffff;fill-opacity:0.8;fill-rule:nonzero;stroke:#cccccc;stroke-width:1;stroke-linecap:butt;stroke-linejoin:miter;stroke-miterlimit:10;stroke-dasharray:none;stroke-opacity:0.8"
         id="path144" /><path
         d="m 109.73125,465.39125 h 60"
         style="fill:none;stroke:#ff0000;stroke-width:2;stroke-linecap:square;stroke-linejoin:round;stroke-miterlimit:10;stroke-dasharray:none;stroke-opacity:1"
         id="path146" /><text
         transform="matrix(1,0,0,-1,193.73125,454.89125)"
         style="font-variant:normal;font-weight:normal;font-size:30px;font-family:STIXGeneral;-inkscape-font-specification:STIXGeneral-Regular;writing-mode:lr-tb;fill:#000000;fill-opacity:1;fill-rule:nonzero;stroke:none"
         id="text150"><tspan
           x="0 18.33 33.330002 41.669998 54.990002"
           y="0"
           sodipodi:role="line"
           id="tspan148">Total</tspan></text><path
         d="m 109.73125,422.87563 h 60"
         style="fill:none;stroke:#008000;stroke-width:2;stroke-linecap:butt;stroke-linejoin:round;stroke-miterlimit:10;stroke-dasharray:7.4, 3.2;stroke-dashoffset:0;stroke-opacity:1"
         id="path152" /><text
         transform="matrix(1,0,0,-1,193.73125,412.37563)"
         style="font-variant:normal;font-weight:normal;font-size:30px;font-family:STIXGeneral;-inkscape-font-specification:STIXGeneral-Regular;writing-mode:lr-tb;fill:#000000;fill-opacity:1;fill-rule:nonzero;stroke:none"
         id="text156"><tspan
           x="0 18.33 28.32 41.639999 56.639999 68.309998 76.650002 89.970001 98.309998 106.65 121.65 136.64999 149.97"
           y="0"
           sodipodi:role="line"
           id="tspan154">Translational</tspan></text><path
         d="m 109.73125,380.36 h 60"
         style="fill:none;stroke:#0000ff;stroke-width:2;stroke-linecap:butt;stroke-linejoin:round;stroke-miterlimit:10;stroke-dasharray:2, 3.3;stroke-dashoffset:0;stroke-opacity:1"
         id="path158" /><text
         transform="matrix(1,0,0,-1,193.73125,369.86)"
         style="font-variant:normal;font-weight:normal;font-size:30px;font-family:STIXGeneral;-inkscape-font-specification:STIXGeneral-Regular;writing-mode:lr-tb;fill:#000000;fill-opacity:1;fill-rule:nonzero;stroke:none"
         id="text162"><tspan
           x="0 20.01 35.009998 43.349998 56.669998 65.010002 73.349998 88.349998 103.35 116.67"
           y="0"
           sodipodi:role="line"
           id="tspan160">Rotational</tspan></text><path
         d="m 109.73125,337.84438 h 60"
         style="fill:none;stroke:#000000;stroke-width:2;stroke-linecap:butt;stroke-linejoin:round;stroke-miterlimit:10;stroke-dasharray:12.8, 3.2, 2, 3.2;stroke-dashoffset:0;stroke-opacity:1"
         id="path164" /><text
         transform="matrix(1,0,0,-1,193.73125,327.34438)"
         style="font-variant:normal;font-weight:normal;font-size:30px;font-family:STIXGeneral;-inkscape-font-specification:STIXGeneral-Regular;writing-mode:lr-tb;fill:#000000;fill-opacity:1;fill-rule:nonzero;stroke:none"
         id="text168"><tspan
           x="0 20.01 35.009998 50.009998 58.349998 71.669998 84.989998 93.330002 100.83 122.49 137.49001 147.48"
           y="0"
           sodipodi:role="line"
           id="tspan166">Contact work</tspan></text></g></g></svg>
